<?xml version="1.0" encoding="utf-8" ?>
<svg xmlns="http://www.w3.org/2000/svg" xmlns:xlink="http://www.w3.org/1999/xlink" width="826" height="826">
	<path fill="#1F8258" d="M0 0L392.47 0L429.41 0L826 0L826 388.543L826 439.564L826 826L439.873 826L388.415 826L0 826L0 437.465L0 386.43L0 0ZM0 437.465L0 826L388.415 826C386.525 824.618 375.685 824.656 372.827 824.37Q349.049 822.102 325.712 817.01Q318.784 815.517 311.911 813.787Q305.038 812.057 298.229 810.092Q291.419 808.127 284.681 805.93Q277.943 803.732 271.284 801.305Q264.626 798.878 258.054 796.224Q251.483 793.57 245.006 790.691Q238.53 787.813 232.156 784.714Q225.782 781.616 219.518 778.3Q213.254 774.985 207.108 771.456Q200.961 767.928 194.94 764.19Q188.918 760.453 183.028 756.511Q177.138 752.569 171.387 748.428Q165.635 744.286 160.03 739.95Q154.424 735.613 148.97 731.087Q143.517 726.561 138.221 721.85Q132.926 717.14 127.796 712.25Q122.665 707.36 117.706 702.298Q112.746 697.235 107.963 692.005Q103.18 686.775 98.5795 681.384Q93.9788 675.993 89.5658 670.447Q85.1527 664.902 80.9326 659.208Q76.7124 653.514 72.6901 647.679Q68.6678 641.844 64.848 635.874Q61.0283 629.904 57.4156 623.807Q53.803 617.709 50.4017 611.492Q47.0003 605.274 43.8144 598.943Q40.6284 592.612 37.6615 586.176Q34.6946 579.74 31.9503 573.205Q29.206 566.671 26.6876 560.046Q24.1691 553.422 21.8794 546.714Q19.5897 540.007 17.5315 533.225Q15.4733 526.443 13.649 519.595C9.85432 504.98 6.29665 489.983 4.26808 475.009C3.00886 465.714 1.64628 456.169 1.11193 446.813C1.00583 444.955 1.39363 439.251 0.349521 437.881C0.23979 437.737 0.116507 437.604 0 437.465ZM429.41 0C429.547 0.119648 429.676 0.248939 429.821 0.358944C431.63 1.73238 444.169 0.904936 447.386 1.10898C466.461 2.31884 485.719 5.72921 504.345 9.94581Q511.424 11.5385 518.443 13.3791Q525.461 15.2198 532.411 17.3062Q539.361 19.3926 546.233 21.7221Q553.105 24.0516 559.89 26.6214Q566.676 29.1912 573.367 31.998Q580.058 34.8049 586.647 37.8454Q593.235 40.8858 599.712 44.1561Q606.19 47.4264 612.548 50.9225Q618.906 54.4187 625.137 58.1362Q631.369 61.8538 637.466 65.7882Q643.562 69.7227 649.517 73.8691Q655.472 78.0156 661.277 82.3689Q667.082 86.7222 672.73 91.277Q678.378 95.8318 683.863 100.582Q689.348 105.333 694.662 110.274Q699.976 115.214 705.113 120.339Q710.25 125.463 715.204 130.765Q720.158 136.067 724.922 141.54Q729.686 147.013 734.255 152.65Q738.823 158.287 743.191 164.082Q747.559 169.876 751.72 175.82Q755.881 181.765 759.83 187.852Q763.78 193.939 767.513 200.161Q771.246 206.383 774.757 212.733Q778.269 219.082 781.555 225.551Q784.842 232.021 787.898 238.601Q790.955 245.182 793.779 251.866Q796.602 258.551 799.188 265.33Q801.775 272.109 804.121 278.976Q806.468 285.842 808.571 292.786Q810.675 299.731 812.533 306.745Q814.391 313.759 816.001 320.834Q821.752 345.921 824.253 371.537C824.562 374.738 824.534 386.467 826 388.543L826 0L429.41 0ZM0 0L0 386.43C1.16932 385.144 2.61716 363.835 3.03988 360.448Q5.06303 344.72 8.25242 329.187Q11.4418 313.654 15.7797 298.402Q17.6229 291.975 19.6736 285.612Q21.7244 279.248 23.9805 272.954Q26.2366 266.66 28.6957 260.443Q31.1548 254.226 33.8143 248.092Q36.4738 241.958 39.331 235.913Q42.1881 229.868 45.2398 223.92Q48.2916 217.971 51.5347 212.124Q54.7778 206.277 58.2089 200.539Q61.64 194.801 65.2554 189.177Q68.8709 183.553 72.6669 178.049Q76.4629 172.545 80.4355 167.167Q84.4081 161.79 88.553 156.544Q92.698 151.298 97.0109 146.189Q101.324 141.08 105.8 136.114Q110.277 131.148 114.912 126.33Q119.547 121.511 124.336 116.846Q129.125 112.18 134.063 107.673Q139.001 103.165 144.083 98.8203Q149.164 94.4753 154.384 90.2974Q159.604 86.1196 164.957 82.1133Q170.309 78.107 175.789 74.2765Q181.269 70.4459 186.87 66.7952Q192.471 63.1444 198.188 59.6773Q203.905 56.2102 209.731 52.9304Q215.557 49.6506 221.486 46.5615Q227.416 43.4725 233.442 40.5774Q239.469 37.6823 245.586 34.9843Q251.704 32.2862 257.905 29.7881Q264.107 27.29 270.386 24.9943Q276.666 22.6987 283.016 20.608Q289.367 18.5173 295.782 16.6337Q302.197 14.7502 308.67 13.0757Q323.725 9.14026 339.038 6.37247Q354.351 3.60467 369.831 2.02088C372.931 1.67412 390.971 1.01528 392.019 0.331501C392.176 0.229618 392.32 0.1105 392.47 0L0 0ZM439.873 826L826 826L826 439.564C825.885 439.741 825.762 439.913 825.656 440.095C825.088 441.061 822.266 471.371 821.685 475.265Q817.603 500.893 810.713 525.913Q809.008 531.945 807.12 537.923Q805.232 543.9 803.163 549.818Q801.095 555.735 798.847 561.587Q796.6 567.439 794.176 573.22Q791.752 579.001 789.154 584.705Q786.555 590.41 783.785 596.033Q781.014 601.656 778.074 607.192Q775.134 612.729 772.027 618.173Q768.92 623.618 765.649 628.965Q762.379 634.313 758.947 639.559Q755.515 644.804 751.926 649.943Q748.336 655.083 744.592 660.11Q740.848 665.138 736.953 670.05Q733.059 674.961 729.016 679.753Q724.974 684.544 720.788 689.21Q716.602 693.876 712.276 698.413Q707.951 702.95 703.489 707.353Q699.027 711.756 694.434 716.022Q689.841 720.288 685.12 724.412Q680.4 728.537 675.556 732.516Q670.712 736.495 665.75 740.325Q660.787 744.155 655.711 747.833Q650.635 751.51 645.449 755.032Q640.263 758.554 634.973 761.916Q629.682 765.279 624.292 768.479Q618.902 771.679 613.417 774.715Q607.932 777.75 602.358 780.617Q596.784 783.484 591.125 786.18Q585.466 788.877 579.727 791.4Q573.989 793.924 568.177 796.272Q562.365 798.62 556.484 800.79Q550.603 802.96 544.659 804.951Q527.476 810.592 509.891 814.814Q492.306 819.035 474.435 821.809C467.101 822.899 459.652 823.815 452.261 824.431C449.195 824.686 445.996 824.598 442.96 825.013C441.88 825.161 440.828 825.474 439.873 826Z"/>
	<path fill="#0C4835" d="M720.162 246.908L720.858 246.79C722.369 249.07 723.527 250.942 724.299 253.602C724.842 255.476 725.813 257.253 726.186 259.171C727.233 264.565 727.144 273.386 724.943 278.486C724.318 279.933 724.177 281.52 723.488 282.953C719.757 290.718 713.107 297.297 705.142 300.598C701.915 301.935 692.169 302.405 691.176 303.027C689.588 304.023 686.89 309.252 685.375 311.033C681.707 315.344 677.423 318.657 672.1 320.657C670.323 321.325 668.31 321.657 666.614 322.489C665.179 323.192 663.957 325.254 662.67 325.782C661.949 326.077 661.668 325.54 660.83 326.112C663.66 330.275 669.303 334.509 672.717 339.131L672.316 339.893C668.996 335.952 665.582 332.158 661.861 328.59C660.353 326.967 658.965 325.329 657.626 323.563C661.088 323.236 664.578 322.35 667.884 321.288C678.521 317.874 685.187 311.707 690.289 301.878C696.603 302.193 702.818 301.096 708.385 298.021C716.298 293.649 722.201 285.788 724.591 277.105C727.59 266.215 725.644 256.539 720.162 246.908Z"/>
	<defs>
		<linearGradient id="gradient_0" gradientUnits="userSpaceOnUse" x1="724.77081" y1="260.98389" x2="573.12738" y2="260.91183">
			<stop offset="0" stop-color="#ECB343"/>
			<stop offset="1" stop-color="#FFD37B"/>
		</linearGradient>
	</defs>
	<path fill="url(#gradient_0)" d="M612.512 224.977C620.1 213.106 627.949 203.464 642.089 199.564C652.745 196.625 663.686 198.698 673.16 204.172C683.866 210.357 690.365 220.283 693.534 232.064Q695.314 232.115 697.087 232.282C706.75 233.282 714.185 239.732 720.162 246.908C725.644 256.539 727.59 266.215 724.591 277.105C722.201 285.788 716.298 293.649 708.385 298.021C702.818 301.096 696.603 302.193 690.289 301.878C685.187 311.707 678.521 317.874 667.884 321.288C664.578 322.35 661.088 323.236 657.626 323.563C658.965 325.329 660.353 326.967 661.861 328.59C659.074 328.205 652.259 328.768 649.893 330.156L649.462 330.788C647.306 328.983 645.391 326.14 643.789 323.816C632.32 322.174 624.774 318.792 616.151 310.759Q614.862 311.925 613.414 312.886C608.99 315.809 603.229 315.987 598.179 314.919C589.654 313.118 582.372 307.433 577.743 300.157C573.005 292.708 571.257 284.01 573.227 275.365C575.326 266.152 580.559 260.481 588.415 255.61C587.745 247.692 588.374 240.41 593.652 234.002C598.637 227.948 604.938 225.689 612.512 224.977Z"/>
	<path fill="#D07C1F" d="M643.789 323.816C648.448 324.128 652.985 323.554 657.626 323.563C658.965 325.329 660.353 326.967 661.861 328.59C659.074 328.205 652.259 328.768 649.893 330.156L649.462 330.788C647.306 328.983 645.391 326.14 643.789 323.816Z"/>
	<path fill="#EFB449" d="M136.642 423.133C136.653 419.105 136.672 415.375 137.829 411.489C140.488 402.557 151.538 387.355 158.135 380.842C160.175 378.828 162.349 376.686 164.778 375.151C167.68 373.318 174.897 370.82 176.823 368.561C178.779 366.267 181.893 353.666 183.446 349.825C186.66 341.874 190.345 333.953 195.201 326.864C202.797 315.777 212.656 305.854 224.617 299.548C248.061 287.188 276.34 287.2 302.202 286.648Q324.359 286.138 346.52 286.422C377.207 286.763 399.376 290.884 421.903 313.876C428.719 320.832 435.003 328.36 441.427 335.678Q453.512 349.603 466.133 363.045C469.732 366.934 473.098 372.09 477.269 375.267C481.654 378.606 489.738 379.233 495.088 380.401L527.847 387.563C539.532 390.1 553.291 391.769 563.841 397.51C567.104 399.285 570.477 401.807 572.259 405.123C577.041 414.025 574.793 439.245 574.973 450.464C575.005 452.475 575.291 452.244 577.065 452.363C583.757 451.736 593.626 451.13 600.085 452.842C615.598 456.954 623.035 476.227 640.616 477.492C647.068 477.956 653.214 475.724 658.086 471.535C662.71 467.561 666.003 461.696 666.31 455.545C667.018 441.38 653.25 436.454 645.217 427.642C641.018 423.037 638.489 417.569 638.814 411.215C639.72 393.492 655.224 389.35 666.267 379.234C670.252 375.583 672.694 371.314 672.877 365.82C673.363 351.223 658.434 340.399 649.462 330.788L649.893 330.156C652.259 328.768 659.074 328.205 661.861 328.59C665.582 332.158 668.996 335.952 672.316 339.893C678.586 349.031 683.84 358.739 681.648 370.212C680.278 377.382 675.653 383.377 670.234 388.056C661.482 395.613 640.815 404.28 650.589 419.081C654.176 424.515 660.134 428.139 665.088 432.196C673.573 439.142 677.651 449.035 675.627 459.945C673.963 468.916 667.97 476.435 660.493 481.412C653.108 486.329 644.479 487.907 635.802 486.131C624.945 483.908 615.476 475.447 607.321 468.363C604.913 466.272 602.359 463.5 599.299 462.433C592.428 460.038 583.637 462.214 576.388 461.203L575.201 461.546C574.348 463.429 574.694 466.254 574.728 468.321C574.915 479.766 577.573 495.001 563.975 499.812C560.339 501.098 556.754 500.984 552.966 500.912C545.787 500.943 538.201 501.494 531.068 500.925C529.867 500.83 529.722 500.962 528.936 500.052C528.824 500.163 528.702 500.266 528.599 500.386C526.938 502.311 525.629 509.571 524.568 512.346C518.394 528.496 503.267 541.27 485.96 543.592C471.866 545.483 457.248 542.656 445.896 533.831C438.087 527.76 432.792 520.09 428.731 511.154C427.717 508.921 426.659 501.886 425.226 500.68L326.227 501.13C313.422 501.13 300.429 501.67 287.651 501.236C286.301 507.035 285.037 512.442 282.33 517.815C276.179 530.019 265.275 538.953 252.29 543.181Q251.07 543.576 249.831 543.91Q248.593 544.244 247.34 544.517Q246.086 544.79 244.821 545Q243.556 545.211 242.282 545.359Q241.008 545.507 239.728 545.592Q238.448 545.678 237.165 545.699Q235.883 545.721 234.601 545.68Q233.319 545.639 232.04 545.534Q230.762 545.43 229.49 545.263Q228.219 545.096 226.957 544.866Q225.695 544.636 224.446 544.345Q223.197 544.053 221.963 543.7Q220.73 543.347 219.516 542.934Q218.302 542.521 217.109 542.048Q215.917 541.576 214.749 541.045Q213.581 540.515 212.441 539.927C201.526 534.364 191.536 524.094 187.447 512.414C186.118 508.619 185.663 504.565 184.396 500.839C184.319 500.614 184.237 500.392 184.157 500.168C180.899 500.395 177.701 500.522 174.435 500.454C166.005 500.683 148.435 502.84 141.778 497.759C137.386 494.408 135.921 489.109 135.204 483.89C134.632 479.725 133.62 463.485 136.029 460.352C137.522 458.78 136.646 428.347 136.642 423.133Z"/>
	<path fill="#D07C1F" d="M136.642 423.133C140.4 422.672 148.441 421.263 151.503 423.829C152.806 424.921 152.832 427.49 152.917 429.099C153.206 434.633 153.768 455.761 151.138 459.549C147.513 461.26 140.113 460.553 136.029 460.352C137.522 458.78 136.646 428.347 136.642 423.133Z"/>
	<path fill="#E3992C" d="M218.94 373.885C220.372 368.094 222.843 362.416 224.97 356.849C230.287 342.926 234.823 328.647 246.544 318.591C251.449 314.383 256.872 311.041 263.15 309.342C274.604 306.242 288.415 307.791 300.304 307.777C308.416 307.768 316.802 307.318 324.882 307.909C325.435 309.027 325.13 309.781 324.97 311Q312.329 311.307 299.684 311.271C281.8 311.125 261.206 309.253 247.579 323.553Q246.887 324.275 246.228 325.027C234.918 338.351 230.644 357.116 225.463 373.499L225.48 373.753L225.066 374.224C222.992 374.413 220.998 374.125 218.94 373.885Z"/>
	<defs>
		<linearGradient id="gradient_1" gradientUnits="userSpaceOnUse" x1="400.18066" y1="387.95535" x2="380.34613" y2="298.88135">
			<stop offset="0" stop-color="#EC7E14"/>
			<stop offset="1" stop-color="#FBA72A"/>
		</linearGradient>
	</defs>
	<path fill="url(#gradient_1)" d="M334.709 308.184C343.342 307.832 351.935 307.785 360.573 307.781C381.628 307.771 394.408 308.985 410.671 323.863C424.198 336.237 436.179 350.518 448.031 364.453C451.216 368.197 456.716 373.236 458.377 377.795L458.168 378.727L457.542 379.077C452.696 371.864 443.395 362.2 437.292 355.495C431.838 349.503 426.189 343.685 420.693 337.731C406.497 322.352 396.352 312.451 374.307 311.264C362.383 310.623 350.391 311.372 338.429 310.803C338.694 331.728 340.813 352.66 339.803 373.596C339.684 374.422 339.615 375.144 339.283 375.918L338.573 376.348C336.817 371.269 336.874 352.403 336.557 345.885C335.945 333.289 334.829 320.812 334.709 308.184Z"/>
	<defs>
		<linearGradient id="gradient_2" gradientUnits="userSpaceOnUse" x1="276.67331" y1="376.07318" x2="280.26239" y2="316.76651">
			<stop offset="0" stop-color="#5FAD64"/>
			<stop offset="1" stop-color="#92D892"/>
		</linearGradient>
	</defs>
	<path fill="url(#gradient_2)" d="M246.228 325.027Q246.887 324.275 247.579 323.553C261.206 309.253 281.8 311.125 299.684 311.271Q312.329 311.307 324.97 311C326.348 314.97 326.022 325.518 326.214 330.202C326.687 345.445 327.864 360.697 328.421 375.956Q293.18 375.975 257.958 374.803C247.869 374.546 237.316 375.134 227.291 374.187C226.522 374.114 226.037 374.039 225.463 373.499C230.644 357.116 234.918 338.351 246.228 325.027Z"/>
	<path fill="#8ACB8A" d="M246.228 325.027Q246.887 324.275 247.579 323.553C261.206 309.253 281.8 311.125 299.684 311.271Q312.329 311.307 324.97 311C326.348 314.97 326.022 325.518 326.214 330.202L325.771 332.356L325.38 332.496C323.949 328.766 325.8 323.471 324.176 319.942C322.913 322.189 322.523 324.634 321.278 326.842C316.943 334.532 298.169 343.58 289.541 346.311C285.335 347.642 280.862 347.996 276.658 349.3C276.073 349.481 275.488 349.682 274.893 349.829C271.77 350.6 263.716 350.663 261.041 348.824C258.964 347.396 256.547 346.581 254.437 345.205C250.696 342.764 246.936 339.189 246.051 334.657C246.014 334.469 245.986 334.28 245.951 334.092C245.363 330.942 248.322 329.183 247.786 325.922C247.163 325.326 247.06 325.213 246.228 325.027Z"/>
	<defs>
		<linearGradient id="gradient_3" gradientUnits="userSpaceOnUse" x1="404.27084" y1="395.35562" x2="372.19" y2="300.71762">
			<stop offset="0" stop-color="#5DAB5F"/>
			<stop offset="1" stop-color="#95D298"/>
		</linearGradient>
	</defs>
	<path fill="url(#gradient_3)" d="M338.429 310.803C350.391 311.372 362.383 310.623 374.307 311.264C396.352 312.451 406.497 322.352 420.693 337.731C426.189 343.685 431.838 349.503 437.292 355.495C443.395 362.2 452.696 371.864 457.542 379.077C455.306 380.068 432.95 378.405 428.616 378.336L366.509 376.88C357.922 376.616 348.989 377.053 340.47 376.118C339.708 375.243 339.88 374.71 339.803 373.596C340.813 352.66 338.694 331.728 338.429 310.803Z"/>
	<path fill="#E3992C" d="M413.288 468.243C420.341 450.28 431.972 436.595 449.822 428.729C466.19 421.515 485.759 420.556 502.529 427.06Q504.182 427.708 505.802 428.435Q507.422 429.162 509.004 429.968Q510.587 430.774 512.128 431.655Q513.669 432.537 515.165 433.493Q516.661 434.449 518.109 435.477Q519.557 436.505 520.953 437.602Q522.349 438.699 523.69 439.863Q525.031 441.027 526.313 442.255Q527.596 443.483 528.817 444.772Q530.038 446.061 531.195 447.408Q532.352 448.756 533.441 450.158Q534.531 451.559 535.551 453.013Q536.571 454.466 537.519 455.968Q538.466 457.469 539.34 459.015Q540.213 460.561 541.01 462.148Q541.807 463.734 542.526 465.358C544.768 470.472 546.569 475.979 547.974 481.371C548.823 484.632 551.272 499.449 552.966 500.912C545.787 500.943 538.201 501.494 531.068 500.925C529.867 500.83 529.722 500.962 528.936 500.052C528.824 500.163 528.702 500.266 528.599 500.386C526.938 502.311 525.629 509.571 524.568 512.346C518.394 528.496 503.267 541.27 485.96 543.592C471.866 545.483 457.248 542.656 445.896 533.831C438.087 527.76 432.792 520.09 428.731 511.154C427.717 508.921 426.659 501.886 425.226 500.68L326.227 501.13C313.422 501.13 300.429 501.67 287.651 501.236C286.301 507.035 285.037 512.442 282.33 517.815C276.179 530.019 265.275 538.953 252.29 543.181Q251.07 543.576 249.831 543.91Q248.593 544.244 247.34 544.517Q246.086 544.79 244.821 545Q243.556 545.211 242.282 545.359Q241.008 545.507 239.728 545.592Q238.448 545.678 237.165 545.699Q235.883 545.721 234.601 545.68Q233.319 545.639 232.04 545.534Q230.762 545.43 229.49 545.263Q228.219 545.096 226.957 544.866Q225.695 544.636 224.446 544.345Q223.197 544.053 221.963 543.7Q220.73 543.347 219.516 542.934Q218.302 542.521 217.109 542.048Q215.917 541.576 214.749 541.045Q213.581 540.515 212.441 539.927C201.526 534.364 191.536 524.094 187.447 512.414C186.118 508.619 185.663 504.565 184.396 500.839C184.319 500.614 184.237 500.392 184.157 500.168C180.899 500.395 177.701 500.522 174.435 500.454C174.325 500.43 174.216 500.405 174.106 500.383C172.56 500.08 163.728 500.28 163.325 499.505C161.226 495.464 167.926 473.835 169.64 469.745C177.137 451.851 191.885 436.264 209.933 428.935C227.153 421.942 245.941 421.918 263.041 429.167C280.604 436.612 292.279 450.515 299.813 467.739C337.609 468.284 375.514 466.821 413.288 468.243Z"/>
	<path fill="#329A71" d="M425.226 500.68C425.806 498.563 424.956 495.168 424.959 492.862Q424.997 488.841 425.648 484.873C427.878 471.612 435.905 459.527 446.8 451.77C457.911 443.859 472.805 440.111 486.302 442.514C500.354 445.014 512.658 453.875 520.656 465.539C527.256 475.163 531.117 488.43 528.936 500.052C528.824 500.163 528.702 500.266 528.599 500.386C526.938 502.311 525.629 509.571 524.568 512.346C518.394 528.496 503.267 541.27 485.96 543.592C471.866 545.483 457.248 542.656 445.896 533.831C438.087 527.76 432.792 520.09 428.731 511.154C427.717 508.921 426.659 501.886 425.226 500.68Z"/>
	<defs>
		<linearGradient id="gradient_4" gradientUnits="userSpaceOnUse" x1="501.95935" y1="499.70755" x2="455.61777" y2="489.60614">
			<stop offset="0" stop-color="#DD942A"/>
			<stop offset="1" stop-color="#F4C260"/>
		</linearGradient>
	</defs>
	<path fill="url(#gradient_4)" d="M477.172 470.774Q478.152 470.689 479.135 470.684Q480.118 470.679 481.099 470.754Q482.079 470.83 483.05 470.985Q484.021 471.14 484.976 471.375Q485.931 471.609 486.864 471.921Q487.797 472.233 488.701 472.619Q489.605 473.007 490.474 473.466Q491.343 473.926 492.172 474.455C497.745 478.039 501.918 484.087 503.17 490.606C504.412 497.065 502.521 504.411 498.704 509.724C494.549 515.508 488.945 518.387 481.996 519.556C476.1 519.597 470.088 518.134 465.132 514.868Q464.632 514.537 464.149 514.182Q463.667 513.827 463.202 513.449Q462.738 513.07 462.293 512.668Q461.848 512.266 461.424 511.843Q461 511.419 460.598 510.975Q460.196 510.531 459.816 510.067Q459.437 509.604 459.081 509.121Q458.725 508.639 458.394 508.14Q458.063 507.64 457.757 507.125Q457.451 506.609 457.172 506.079Q456.892 505.549 456.64 505.006Q456.387 504.462 456.162 503.907Q455.937 503.351 455.74 502.785Q455.544 502.219 455.375 501.644Q455.207 501.069 455.068 500.486Q454.929 499.903 454.819 499.314Q454.717 498.775 454.642 498.231Q454.567 497.687 454.519 497.141Q454.471 496.594 454.451 496.045Q454.43 495.497 454.436 494.948Q454.442 494.4 454.476 493.852Q454.509 493.304 454.57 492.759Q454.63 492.213 454.718 491.671Q454.805 491.13 454.919 490.593Q455.033 490.056 455.173 489.525Q455.314 488.995 455.48 488.472Q455.647 487.949 455.839 487.435Q456.031 486.921 456.249 486.417Q456.466 485.913 456.708 485.42Q456.95 484.928 457.216 484.448Q457.482 483.968 457.771 483.502Q458.061 483.035 458.373 482.584C462.859 475.958 469.448 472.266 477.172 470.774Z"/>
	<defs>
		<linearGradient id="gradient_5" gradientUnits="userSpaceOnUse" x1="281.8038" y1="471.61017" x2="189.74889" y2="516.65259">
			<stop offset="0" stop-color="#258B64"/>
			<stop offset="1" stop-color="#42B07D"/>
		</linearGradient>
	</defs>
	<path fill="url(#gradient_5)" d="M184.157 500.168C182.029 488.801 186.672 475.518 192.994 466.19C201.326 453.896 212.617 445.798 227.282 443.016C240.048 440.593 252.998 442.634 263.824 450.002C275.877 458.205 284.695 470.671 287.294 485.126C288.191 490.119 288.481 496.212 287.651 501.236C286.301 507.035 285.037 512.442 282.33 517.815C276.179 530.019 265.275 538.953 252.29 543.181Q251.07 543.576 249.831 543.91Q248.593 544.244 247.34 544.517Q246.086 544.79 244.821 545Q243.556 545.211 242.282 545.359Q241.008 545.507 239.728 545.592Q238.448 545.678 237.165 545.699Q235.883 545.721 234.601 545.68Q233.319 545.639 232.04 545.534Q230.762 545.43 229.49 545.263Q228.219 545.096 226.957 544.866Q225.695 544.636 224.446 544.345Q223.197 544.053 221.963 543.7Q220.73 543.347 219.516 542.934Q218.302 542.521 217.109 542.048Q215.917 541.576 214.749 541.045Q213.581 540.515 212.441 539.927C201.526 534.364 191.536 524.094 187.447 512.414C186.118 508.619 185.663 504.565 184.396 500.839C184.319 500.614 184.237 500.392 184.157 500.168Z"/>
	<defs>
		<linearGradient id="gradient_6" gradientUnits="userSpaceOnUse" x1="257.52795" y1="497.85141" x2="211.72858" y2="491.34683">
			<stop offset="0" stop-color="#D9942C"/>
			<stop offset="1" stop-color="#F4BC51"/>
		</linearGradient>
	</defs>
	<path fill="url(#gradient_6)" d="M232.694 471.588C239.074 470.916 245.348 471.875 250.459 476.065C255.271 480.01 258.036 485.988 258.639 492.116C259.285 498.685 257.19 505.098 252.936 510.136C248.824 515.007 243.542 517.908 237.159 518.442C231.758 518.505 226.932 518.012 222.173 515.236Q221.684 514.953 221.21 514.645Q220.735 514.338 220.277 514.007Q219.819 513.676 219.378 513.322Q218.938 512.968 218.515 512.593Q218.093 512.217 217.69 511.821Q217.287 511.424 216.905 511.008Q216.523 510.592 216.162 510.157Q215.801 509.721 215.462 509.269Q215.124 508.816 214.809 508.347Q214.494 507.878 214.203 507.393Q213.912 506.909 213.645 506.41Q213.379 505.912 213.138 505.4Q212.898 504.889 212.683 504.366Q212.469 503.843 212.281 503.31Q212.093 502.777 211.932 502.235Q211.771 501.693 211.638 501.144C210.115 494.979 210.905 488.258 214.316 482.835C218.54 476.122 225.24 473.145 232.694 471.588Z"/>
</svg>
