<?xml version="1.0" encoding="utf-8" ?>
<svg xmlns="http://www.w3.org/2000/svg" xmlns:xlink="http://www.w3.org/1999/xlink" width="1486" height="1486">
	<defs>
		<linearGradient id="gradient_0" gradientUnits="userSpaceOnUse" x1="376.16898" y1="1197.8883" x2="1216.4482" y2="376.1293">
			<stop offset="0" stop-color="#064641"/>
			<stop offset="1" stop-color="#0A6B60"/>
		</linearGradient>
	</defs>
	<path fill="url(#gradient_0)" d="M0 0L716.545 0L768.908 0L1486 0L1486 715.466L1486 770.526L1486 1486L771.627 1486L715.483 1486L0 1486L0 768.103L0 762.421L0 717.802L0 0ZM0 0L0 717.802L0 762.421C0.461009 762.307 0.948861 762.472 1.42052 762.527C2.541 766.238 1.38851 770.458 1.91082 774.349L2.8538 774.794C15.0331 768.95 28.1033 765.988 40.6403 761.144C82.9708 744.79 121.2 723.072 151.68 688.884Q165.81 673.066 178.426 656.016C184.431 647.733 189.878 637.128 197.116 630.071C197.274 629.917 197.439 629.769 197.6 629.618C194.432 617.749 191.406 604.086 196.476 592.246C198.288 588.015 201.226 584.589 205.604 582.934C210.701 581.007 216.514 581.573 221.336 583.981C236.203 591.405 242.412 611.838 247.585 626.345C247.578 621.607 245.589 616.864 243.965 612.472L244.111 612.435L243.452 611.785C246.433 610.178 249.211 608.801 251.617 606.36C252.226 604.143 252.927 602.232 253.945 600.169L255.25 599.774L255.666 600.796C252.271 606.483 252.384 612.523 252.548 618.934L253.563 619.636C252.957 613.138 253.223 607.02 256.917 601.332C260.81 595.336 266.82 593.027 273.561 591.727Q274.383 588.624 275.263 585.538C282.899 558.818 298.336 532.098 321.582 516.033C340.278 503.113 360.369 499.631 382.149 495.281C431.071 485.51 475.398 462.089 518.47 437.725Q544.88 423.074 570.611 407.262C583.018 399.534 594.4 389.604 607.132 382.522C612.239 378.275 619.502 366.083 623.559 360.281C649.87 322.648 677.185 284.062 696.903 242.483C701.019 236.044 704.298 228.541 707.649 221.66C724.123 187.827 736.28 152.43 742.46 115.268C743.062 106.472 745.035 97.3867 746.416 88.6583L748.586 85.0734L749.212 85.1335L749.342 89.4936C748.474 93.0821 748.76 96.8109 748.813 100.48C752.19 139.759 757.184 161.381 772.513 197.368C784.888 229.135 807.448 265.1 825.89 293.904C830.708 301.429 835.426 310.23 841.238 316.943C844.08 317.478 846.373 318.604 848.805 320.155C865.624 330.883 881.475 344.027 897.656 355.763C914.713 368.135 933.056 379.643 951.21 390.35C978.089 406.201 1006.94 419.661 1036.78 428.869C1052.51 433.72 1068.9 434.873 1085.04 431.509C1108.77 426.562 1128.32 412.918 1152.33 426.277C1177.66 440.37 1198.41 471.106 1219.33 491.559Q1225.38 497.496 1231.62 503.226Q1237.87 508.957 1244.3 514.474Q1250.73 519.991 1257.35 525.288Q1263.96 530.586 1270.75 535.658Q1277.54 540.73 1284.5 545.57Q1291.46 550.411 1298.57 555.015Q1305.69 559.619 1312.95 563.981Q1320.22 568.343 1327.63 572.458C1338.58 578.658 1356.02 590.139 1368.27 591.836C1379.17 598.029 1389.33 605.453 1400.31 611.538C1415.11 619.741 1461.93 640.415 1478.26 642.004L1479.19 640.835Q1482.81 664.055 1484.15 687.518C1484.7 696.399 1484.12 706.848 1486 715.466L1486 0L768.908 0L716.545 0L0 0ZM197.6 629.618C197.439 629.769 197.274 629.917 197.116 630.071C189.878 637.128 184.431 647.733 178.426 656.016Q165.81 673.066 151.68 688.884C121.2 723.072 82.9708 744.79 40.6403 761.144C28.1033 765.988 15.0331 768.95 2.8538 774.794L1.91082 774.349C1.38851 770.458 2.541 766.238 1.42052 762.527C0.948861 762.472 0.461009 762.307 0 762.421L0 768.103L0 1486L715.483 1486C707.203 1484.04 696.573 1484.69 687.948 1484.12Q668.547 1482.77 649.244 1480.39C648.05 1422.02 649.12 1363.63 648.503 1305.26Q647.837 1248.28 647.902 1191.3C647.875 1172.35 647.112 1153.11 647.975 1134.19C648.726 1117.75 653.167 1101.54 654.234 1085.04C657.241 1038.51 649.581 976.696 622.428 937.936C616.687 929.742 609.819 922.346 603.354 914.724C592.811 902.295 582.201 889.592 572.577 876.44C553.021 849.717 537.378 820.688 515.33 795.813C507.512 788.479 498.451 783.469 487.408 783.742C478.876 783.952 470.339 787.414 464.483 793.701C458.239 800.405 456.445 808.786 456.84 817.696C457.778 824.046 459.823 829.878 462.532 835.682C470.222 852.157 480.842 867.752 489.971 883.513C497.139 895.888 503.332 908.907 511.024 920.952C504.251 914.493 496.346 908.972 488.966 903.215Q471.878 890.052 456.028 875.422C407.686 829.981 363.28 756.836 335.756 696.872Q326.641 677.062 318.685 656.759C313.404 643.416 303.632 613.407 295.529 603.191C289.778 595.941 282.45 592.87 273.561 591.727C266.82 593.027 260.81 595.336 256.917 601.332C253.223 607.02 252.957 613.138 253.563 619.636L252.548 618.934C252.384 612.523 252.271 606.483 255.666 600.796L255.25 599.774L253.945 600.169C252.927 602.232 252.226 604.143 251.617 606.36C249.211 608.801 246.433 610.178 243.452 611.785L244.111 612.435L243.965 612.472C245.589 616.864 247.578 621.607 247.585 626.345C242.412 611.838 236.203 591.405 221.336 583.981C216.514 581.573 210.701 581.007 205.604 582.934C201.226 584.589 198.288 588.015 196.476 592.246C191.406 604.086 194.432 617.749 197.6 629.618ZM1295.6 617.57C1289.94 645.535 1279.52 672.038 1271.58 699.358L1272.16 699.636C1274.87 698.739 1278.35 693.449 1280.66 691.374L1281.15 690.943C1286.46 684.982 1292.04 677.84 1300.73 677.419C1304.91 677.216 1310.11 678.759 1313.11 681.773C1317.4 686.085 1320.15 692.733 1319.93 698.812C1319.33 715.579 1311.84 734.107 1306.88 750.052Q1292.8 796.978 1275.96 842.986C1268.75 862.391 1260.36 881.343 1253.11 900.7C1248.66 912.572 1245.22 924.974 1241.23 937.021Q1236.87 950.373 1231.61 963.396Q1226.36 976.419 1220.22 989.052Q1214.63 1000.21 1208.42 1011.04Q1202.21 1021.87 1195.41 1032.33Q1188.61 1042.8 1181.23 1052.87Q1173.86 1062.94 1165.93 1072.58Q1144.35 1098.93 1120.3 1123.05C1095.48 1148.03 1051.17 1184.32 1038.9 1215.95C1036.62 1221.82 1035.86 1229.07 1035.56 1235.35C1034.21 1263.57 1036.13 1292.31 1035.97 1320.62Q1035.68 1356 1035.92 1391.37C1035.98 1402.69 1035.26 1414.7 1036.57 1425.94Q1025.12 1430.88 1013.52 1435.42Q1001.91 1439.96 990.156 1444.11Q978.402 1448.26 966.513 1452Q954.625 1455.75 942.616 1459.09Q930.607 1462.42 918.492 1465.35Q906.376 1468.28 894.169 1470.8Q881.961 1473.32 869.675 1475.42Q857.388 1477.52 845.038 1479.2Q822.011 1482.59 798.784 1484.09C789.988 1484.7 780.216 1484.23 771.627 1486L1486 1486L1486 770.526C1484.58 778.987 1484.81 788.046 1484.48 796.631C1475.57 794.479 1466.37 793.478 1457.42 791.437C1446.28 788.896 1435.17 785.307 1424.23 781.978C1403.85 775.777 1384.09 767.499 1363.59 761.625C1351.18 758.068 1338.57 755.023 1326.01 752.012C1320.54 750.702 1314.96 749.798 1309.58 748.152C1309.33 738.634 1320.33 715.213 1320.75 700.97C1320.94 694.163 1319.7 686.724 1314.64 681.757C1311.09 678.271 1305.65 676.156 1300.68 676.26C1289.42 676.494 1280.55 689.421 1273.5 696.892C1277.45 684.404 1297.82 626.276 1295.6 617.57Z"/>
	<defs>
		<linearGradient id="gradient_1" gradientUnits="userSpaceOnUse" x1="1226.8579" y1="1313.4753" x2="907.88715" y2="762.02032">
			<stop offset="0" stop-color="#2D723F"/>
			<stop offset="1" stop-color="#4A9458"/>
		</linearGradient>
	</defs>
	<path fill="url(#gradient_1)" d="M975.872 919.581L977.211 918.966C997.814 909.726 1020.69 880.779 1035.35 863.492C1066.33 826.96 1097.25 790.937 1122.38 749.98Q1138.06 724.452 1151.17 697.516Q1160.83 677.553 1169.86 657.293C1178.55 637.808 1192.64 598.386 1210.22 586.081C1215.91 582.098 1223.12 579.729 1230.08 581.026Q1230.53 581.107 1230.98 581.21Q1231.43 581.314 1231.87 581.441Q1232.32 581.567 1232.75 581.716Q1233.19 581.865 1233.61 582.036Q1234.04 582.208 1234.46 582.401Q1234.88 582.594 1235.29 582.808Q1235.69 583.022 1236.09 583.256Q1236.49 583.491 1236.87 583.746Q1237.25 584.001 1237.62 584.275Q1237.99 584.549 1238.35 584.841Q1238.7 585.134 1239.04 585.444Q1239.38 585.755 1239.71 586.082Q1240.03 586.41 1240.34 586.754Q1240.64 587.097 1240.93 587.456Q1241.22 587.815 1241.49 588.188Q1241.76 588.561 1242.01 588.948C1246.85 596.348 1245.23 604.627 1243.32 612.64L1243.75 613.571C1245.66 613.386 1249.68 607.542 1251.15 605.758C1254.47 598.899 1258.32 593.034 1265.88 590.319Q1266.38 590.145 1266.88 589.997Q1267.38 589.848 1267.89 589.725Q1268.4 589.601 1268.92 589.503Q1269.43 589.405 1269.95 589.333Q1270.47 589.261 1271 589.215Q1271.52 589.169 1272.04 589.148Q1272.57 589.128 1273.09 589.134Q1273.62 589.14 1274.14 589.172Q1274.66 589.204 1275.19 589.262Q1275.71 589.32 1276.23 589.404Q1276.74 589.488 1277.26 589.597Q1277.77 589.707 1278.28 589.842Q1278.78 589.977 1279.28 590.137Q1279.78 590.297 1280.28 590.481Q1280.77 590.666 1281.25 590.875Q1281.73 591.083 1282.2 591.316C1288.4 594.414 1292.52 600.568 1294.35 607.125C1295.3 610.518 1295.42 614.071 1295.6 617.57C1289.94 645.535 1279.52 672.038 1271.58 699.358L1272.16 699.636C1274.87 698.739 1278.35 693.449 1280.66 691.374L1281.15 690.943C1286.46 684.982 1292.04 677.84 1300.73 677.419C1304.91 677.216 1310.11 678.759 1313.11 681.773C1317.4 686.085 1320.15 692.733 1319.93 698.812C1319.33 715.579 1311.84 734.107 1306.88 750.052Q1292.8 796.978 1275.96 842.986C1268.75 862.391 1260.36 881.343 1253.11 900.7C1248.66 912.572 1245.22 924.974 1241.23 937.021Q1236.87 950.373 1231.61 963.396Q1226.36 976.419 1220.22 989.052Q1214.63 1000.21 1208.42 1011.04Q1202.21 1021.87 1195.41 1032.33Q1188.61 1042.8 1181.23 1052.87Q1173.86 1062.94 1165.93 1072.58Q1144.35 1098.93 1120.3 1123.05C1095.48 1148.03 1051.17 1184.32 1038.9 1215.95C1036.62 1221.82 1035.86 1229.07 1035.56 1235.35C1034.21 1263.57 1036.13 1292.31 1035.97 1320.62Q1035.68 1356 1035.92 1391.37C1035.98 1402.69 1035.26 1414.7 1036.57 1425.94Q1025.12 1430.88 1013.52 1435.42Q1001.91 1439.96 990.156 1444.11Q978.402 1448.26 966.513 1452Q954.625 1455.75 942.616 1459.09Q930.607 1462.42 918.492 1465.35Q906.376 1468.28 894.169 1470.8Q881.961 1473.32 869.675 1475.42Q857.388 1477.52 845.038 1479.2L845.385 1276.27C845.449 1245.22 846.046 1214.01 845.249 1182.97C844.595 1157.49 839.874 1132.71 837.112 1107.44Q835.569 1094.19 835.206 1080.85Q834.843 1067.51 835.664 1054.19C837.618 1019.57 842.892 982.279 859.004 951.227C870.373 929.316 888.924 912.116 903.715 892.545C925.306 863.976 943.49 831.968 968.909 806.407C977.411 797.857 986.186 791.154 997.768 787.504C1006.8 785.579 1014.97 785.723 1023.07 790.857C1028.35 794.202 1032.25 799.056 1034.6 804.811C1037.07 811.416 1036.67 818.194 1034.74 824.879C1028.56 846.322 1002.16 878.331 988.928 897.884C984.24 904.81 979.082 911.826 975.872 919.581Z"/>
	<path fill="#6EB46F" d="M997.768 787.504C1006.8 785.579 1014.97 785.723 1023.07 790.857C1028.35 794.202 1032.25 799.056 1034.6 804.811C1033.9 805.987 1033.58 806.129 1032.44 806.883C1021.67 813.99 1005.27 839.628 994.443 841.498C989.68 842.321 985.051 841.888 981.045 838.97C977.019 836.037 974.621 831.418 974.091 826.51C972.428 811.107 988.986 798.131 997.768 787.504Z"/>
	<path fill="#23673D" d="M1281.15 690.943L1281.6 692.238L1284.35 688.817C1286.28 708.144 1222.07 889.773 1209 905.726C1207.21 907.904 1205.16 909.226 1202.36 909.593C1200.69 908.69 1200.13 908.191 1199.68 906.275C1198.85 902.759 1199.84 898.018 1200.88 894.637C1205.31 880.376 1214.93 862.004 1221.14 847.744C1227.19 833.847 1232.07 819.237 1237.16 804.956C1249.61 770.079 1258.87 734.165 1271.58 699.358L1272.16 699.636C1274.87 698.739 1278.35 693.449 1280.66 691.374L1281.15 690.943Z"/>
	<path fill="#23673D" d="M1243.32 612.64L1243.75 613.571C1245.66 613.386 1249.68 607.542 1251.15 605.758C1248.74 616.498 1245.53 627.205 1242.96 637.941C1240.02 650.154 1237.97 662.567 1234.79 674.702Q1232.25 684.537 1229.42 694.294Q1226.59 704.05 1223.48 713.72Q1220.36 723.39 1216.97 732.964Q1213.57 742.539 1209.9 752.01Q1206.23 761.482 1202.28 770.842Q1198.33 780.202 1194.12 789.443Q1189.9 798.684 1185.41 807.798Q1180.92 816.911 1176.17 825.89C1171.5 834.616 1164.72 850.447 1156.13 855.533C1154.35 856.59 1152.08 857.24 1150.08 856.339C1148.38 855.572 1148.18 854.842 1147.64 853.236C1149.8 842.675 1158.45 831.353 1163.27 821.629Q1173.43 801.122 1182.27 780.01Q1199.66 738.974 1214.93 697.104Q1230.2 655.234 1243.32 612.64Z"/>
	<defs>
		<linearGradient id="gradient_2" gradientUnits="userSpaceOnUse" x1="835.91675" y1="854.86987" x2="571.71619" y2="195.29915">
			<stop offset="0" stop-color="#AC2D1F"/>
			<stop offset="1" stop-color="#CF3D29"/>
		</linearGradient>
	</defs>
	<path fill="url(#gradient_2)" d="M746.416 88.6583L748.586 85.0734L749.212 85.1335L749.342 89.4936C748.474 93.0821 748.76 96.8109 748.813 100.48C752.19 139.759 757.184 161.381 772.513 197.368C784.888 229.135 807.448 265.1 825.89 293.904C830.708 301.429 835.426 310.23 841.238 316.943C864.637 351.848 890.359 385.163 913.112 420.482C965.032 501.074 998.829 590.638 979.671 687.297C968.048 745.936 936.535 796.704 886.652 830.21Q884.034 831.959 881.373 833.642Q878.712 835.325 876.011 836.942Q873.309 838.559 870.568 840.108Q867.827 841.657 865.049 843.138Q862.27 844.619 859.456 846.03Q856.641 847.442 853.793 848.783Q850.944 850.124 848.063 851.394Q845.182 852.664 842.271 853.863Q839.359 855.061 836.419 856.186Q833.479 857.312 830.511 858.365Q827.544 859.417 824.551 860.395Q821.559 861.374 818.543 862.278Q815.527 863.182 812.49 864.011Q809.452 864.84 806.395 865.593Q803.338 866.346 800.263 867.023Q797.188 867.701 794.098 868.301Q791.007 868.902 787.903 869.426Q784.798 869.95 781.682 870.397Q778.565 870.843 775.438 871.213Q772.311 871.582 769.177 871.874Q766.042 872.165 762.9 872.379Q759.759 872.593 756.614 872.729Q753.468 872.865 750.32 872.922Q747.172 872.98 744.024 872.96Q740.875 872.939 737.728 872.841Q734.582 872.743 731.438 872.566Q728.294 872.39 725.156 872.135Q722.018 871.881 718.887 871.549Q715.756 871.217 712.635 870.807Q709.513 870.397 706.402 869.911Q703.292 869.424 700.194 868.86Q697.097 868.296 694.014 867.655Q691.16 867.082 688.321 866.438Q685.482 865.795 682.659 865.081Q679.837 864.367 677.033 863.584Q674.229 862.801 671.445 861.949Q668.662 861.097 665.9 860.177Q663.138 859.256 660.4 858.267Q657.662 857.279 654.949 856.223Q652.236 855.167 649.55 854.044Q646.864 852.922 644.206 851.733Q641.549 850.545 638.921 849.291Q636.294 848.037 633.698 846.718Q631.103 845.4 628.541 844.018Q625.979 842.636 623.451 841.191Q620.924 839.746 618.433 838.239Q615.943 836.732 613.49 835.164Q611.037 833.596 608.624 831.967Q606.21 830.339 603.838 828.652Q601.466 826.965 599.136 825.219Q596.806 823.474 594.52 821.671Q592.234 819.869 589.993 818.011Q587.752 816.152 585.558 814.239Q583.363 812.326 581.217 810.359Q579.071 808.392 576.974 806.373Q574.877 804.354 572.83 802.284Q570.783 800.213 568.789 798.093Q566.794 795.973 564.852 793.804Q562.91 791.635 561.022 789.418Q559.135 787.202 557.302 784.94Q555.47 782.678 553.694 780.371Q551.918 778.064 550.2 775.714Q548.482 773.364 546.822 770.973Q545.162 768.581 543.562 766.149C518.371 728.192 504.727 681.694 503.987 636.21C503.861 628.476 503.403 619.655 504.783 612.089C504.83 611.83 504.898 611.575 504.956 611.318C507.456 546.244 541.795 479.351 577.178 426.356C586.88 411.613 598.015 397.61 607.132 382.522C612.239 378.275 619.502 366.083 623.559 360.281C649.87 322.648 677.185 284.062 696.903 242.483C701.019 236.044 704.298 228.541 707.649 221.66C724.123 187.827 736.28 152.43 742.46 115.268C743.062 106.472 745.035 97.3867 746.416 88.6583Z"/>
	<path fill="#F6B460" d="M625.06 659.661C629.593 621.278 654.508 585.823 673.446 552.995C686.894 529.685 700.471 506.257 712.255 482.054Q723.36 459.107 732.891 435.463C736.339 426.715 738.805 416.746 743.273 408.547C730.926 455.346 701.393 507.771 677.699 550.582C658.412 585.429 632.84 622.33 627.556 662.498C625.367 690.978 632.596 717.359 651.395 739.209C661.128 750.521 672.307 758.833 684.708 766.986C671.488 763.185 654.109 746.241 645.709 735.614C628.237 713.509 621.88 687.47 625.06 659.661Z"/>
	<path fill="#C74C26" d="M746.416 88.6583L748.586 85.0734L749.212 85.1335L749.342 89.4936C748.474 93.0821 748.76 96.8109 748.813 100.48C747.043 108.242 748.032 117.261 747.161 125.29L746.562 125.403L746.469 125.322C741.923 132.431 742.218 142.379 739.9 150.383C732.279 176.701 723.005 201.31 711.192 226.023C708.594 231.458 705.881 239.653 700.857 243.132C700.347 243.486 698.385 244.62 698.112 245.078C697.143 246.706 696.578 249.45 695.848 251.27C694.749 254.011 684.093 279.566 683.898 279.844C682.657 281.616 680.839 283.709 678.886 284.584L678.448 283.519L677.689 284.112L678.03 283.657C676.432 288.261 675.352 293.357 671.344 296.429C669.685 297.701 667.504 299.117 666.952 301.243C666.528 302.879 666.885 304.778 666.579 306.443C665.866 310.326 659.631 316.812 657.263 320.469C655.593 320.531 656.44 320.605 654.724 320.213C650.796 326.354 656.253 331.76 647.072 335.238C643.09 340.606 639.693 346.781 636.554 352.683C634.956 355.688 632.463 356.389 630.225 358.653C628.285 360.616 626.872 364.074 625.334 366.422C620.266 374.158 614.497 384.094 607.443 389.958C604.247 392.614 602.662 397.369 600.935 401.067L601.094 401.835L603.028 401.478C602.2 405.103 587.149 422.295 583.579 424.572C581.737 425.747 579.949 427.035 577.755 427.389C575.497 433.576 572.725 443.535 568.561 448.381C568.645 446.314 568.899 444.169 568.444 442.136C566.401 444.308 564.081 448.651 564.136 451.588L565.42 452.556C560.68 465.666 551.168 477.637 545.264 490.439C540.816 500.083 536.059 509.788 532.048 519.619C530.442 523.555 531.222 527.639 529.09 531.518C525.233 538.537 519.048 556.124 517.24 563.774C515.935 569.296 515.287 584.389 511.954 587.968C510.752 586.611 510.943 585.15 511.052 583.397C511.294 579.497 512.744 575.076 512.056 571.232L511.856 571.164L511.854 572.525C511.627 572.876 511.32 573.187 511.175 573.578C510.497 575.401 510.668 578.775 510.381 580.779C508.8 591.836 506.212 602.751 505.909 613.978C505.854 616.025 506.379 619.269 505.344 620.996C505.255 617.792 505.32 614.501 504.956 611.318C507.456 546.244 541.795 479.351 577.178 426.356C586.88 411.613 598.015 397.61 607.132 382.522C612.239 378.275 619.502 366.083 623.559 360.281C649.87 322.648 677.185 284.062 696.903 242.483C701.019 236.044 704.298 228.541 707.649 221.66C724.123 187.827 736.28 152.43 742.46 115.268C743.062 106.472 745.035 97.3867 746.416 88.6583Z"/>
	<defs>
		<linearGradient id="gradient_3" gradientUnits="userSpaceOnUse" x1="857.95795" y1="586.17365" x2="626.98291" y2="589.58014">
			<stop offset="0" stop-color="#761717"/>
			<stop offset="1" stop-color="#BD391F"/>
		</linearGradient>
	</defs>
	<path fill="url(#gradient_3)" d="M743.273 408.547C745.931 402.513 746.733 395.548 748.78 389.258C759.702 425.764 774.97 460.572 791.464 494.891C811.032 535.605 854.019 615.805 859.813 657.03Q860.102 659.162 860.306 661.305Q860.511 663.447 860.632 665.595Q860.752 667.744 860.788 669.895Q860.824 672.047 860.776 674.198Q860.727 676.349 860.594 678.497Q860.461 680.645 860.244 682.786Q860.027 684.926 859.725 687.057Q859.424 689.188 859.04 691.305Q858.655 693.422 858.188 695.523Q857.721 697.623 857.171 699.704Q856.622 701.784 855.991 703.842Q855.36 705.899 854.649 707.93Q853.938 709.961 853.148 711.962Q852.357 713.964 851.489 715.933Q850.621 717.902 849.676 719.835Q848.731 721.768 847.711 723.663Q847.06 724.875 846.379 726.071Q845.699 727.267 844.988 728.445Q844.278 729.624 843.539 730.785Q842.8 731.945 842.033 733.087Q841.265 734.229 840.47 735.352Q839.674 736.475 838.851 737.577Q838.028 738.68 837.178 739.762Q836.327 740.844 835.451 741.904Q834.574 742.965 833.672 744.003Q832.769 745.042 831.841 746.058Q830.913 747.074 829.96 748.066Q829.007 749.059 828.03 750.028Q827.053 750.996 826.052 751.941Q825.051 752.885 824.027 753.804Q823.003 754.723 821.957 755.617Q820.911 756.51 819.843 757.378Q818.774 758.245 817.685 759.086Q816.596 759.927 815.486 760.74Q814.376 761.554 813.247 762.34Q812.117 763.125 810.969 763.883Q809.82 764.641 808.653 765.37Q807.486 766.099 806.302 766.798Q805.117 767.498 803.915 768.169Q802.714 768.839 801.496 769.479Q800.278 770.12 799.044 770.73Q797.811 771.34 796.563 771.919Q795.315 772.499 794.053 773.047Q792.791 773.595 791.516 774.112Q790.241 774.629 788.953 775.114Q787.665 775.599 786.366 776.053Q785.067 776.506 783.757 776.927Q782.447 777.348 781.127 777.736Q778.862 778.401 776.573 778.979Q774.283 779.557 771.974 780.046Q769.664 780.536 767.337 780.936Q765.01 781.336 762.67 781.646Q760.329 781.956 757.979 782.176Q755.628 782.395 753.271 782.524Q750.913 782.653 748.552 782.692Q746.192 782.73 743.832 782.677Q741.471 782.624 739.115 782.481Q736.758 782.337 734.409 782.103Q732.059 781.869 729.721 781.544Q727.382 781.22 725.058 780.805Q722.734 780.391 720.427 779.887Q718.12 779.384 715.835 778.792Q713.549 778.2 711.288 777.521Q709.027 776.841 706.794 776.075C699.352 773.472 692.157 769.157 684.708 766.986C672.307 758.833 661.128 750.521 651.395 739.209C632.596 717.359 625.367 690.978 627.556 662.498C632.84 622.33 658.412 585.429 677.699 550.582C701.393 507.771 730.926 455.346 743.273 408.547Z"/>
	<path fill="#C74C26" d="M714.364 536.564C715.667 536.514 717.077 536.398 718.372 536.544C721.069 536.846 723.428 538.297 725.084 540.423C736.542 555.12 738.266 608.381 740.258 628.706C741.208 638.394 743.654 647.876 744.046 657.63C744.448 667.625 744.14 677.922 742.625 687.819C739.883 705.729 732.375 725.806 717.168 736.779C708.335 743.152 699.475 744.886 688.883 743.188C686.708 742.89 684.63 742.203 682.566 741.473C668.107 736.359 657.094 727.105 650.612 713.166C642.763 696.29 641.702 673.577 645.355 655.488C647.331 645.708 650.884 636.095 654.346 626.748C656.345 621.35 658.362 615.835 661.011 610.718C668.441 596.363 696.608 550.495 707.292 540.738C709.372 538.839 711.83 537.725 714.364 536.564Z"/>
	<defs>
		<linearGradient id="gradient_4" gradientUnits="userSpaceOnUse" x1="1115.0504" y1="1045.7528" x2="1369.9572" y2="1158.655">
			<stop offset="0" stop-color="#043430"/>
			<stop offset="1" stop-color="#0B6761"/>
		</linearGradient>
	</defs>
	<path fill="url(#gradient_4)" d="M1295.6 617.57C1297.82 626.276 1277.45 684.404 1273.5 696.892C1280.55 689.421 1289.42 676.494 1300.68 676.26C1305.65 676.156 1311.09 678.271 1314.64 681.757C1319.7 686.724 1320.94 694.163 1320.75 700.97C1320.33 715.213 1309.33 738.634 1309.58 748.152C1314.96 749.798 1320.54 750.702 1326.01 752.012C1338.57 755.023 1351.18 758.068 1363.59 761.625C1384.09 767.499 1403.85 775.777 1424.23 781.978C1435.17 785.307 1446.28 788.896 1457.42 791.437C1466.37 793.478 1475.57 794.479 1484.48 796.631C1484.81 788.046 1484.58 778.987 1486 770.526L1486 1486L771.627 1486C780.216 1484.23 789.988 1484.7 798.784 1484.09Q822.011 1482.59 845.038 1479.2Q857.388 1477.52 869.675 1475.42Q881.961 1473.32 894.169 1470.8Q906.376 1468.28 918.492 1465.35Q930.607 1462.43 942.616 1459.09Q954.625 1455.75 966.513 1452Q978.402 1448.26 990.156 1444.11Q1001.91 1439.96 1013.52 1435.42Q1025.12 1430.88 1036.57 1425.94C1035.26 1414.7 1035.98 1402.69 1035.92 1391.37Q1035.68 1355.99 1035.97 1320.62C1036.13 1292.31 1034.21 1263.57 1035.56 1235.35C1035.86 1229.07 1036.62 1221.82 1038.9 1215.95C1051.17 1184.32 1095.48 1148.03 1120.3 1123.05Q1144.35 1098.93 1165.93 1072.58Q1173.86 1062.94 1181.23 1052.87Q1188.61 1042.8 1195.41 1032.33Q1202.21 1021.87 1208.42 1011.04Q1214.63 1000.21 1220.22 989.052Q1226.36 976.419 1231.61 963.396Q1236.87 950.373 1241.23 937.021C1245.22 924.974 1248.66 912.572 1253.11 900.7C1260.36 881.343 1268.75 862.391 1275.96 842.986Q1292.8 796.978 1306.88 750.052C1311.84 734.107 1319.33 715.579 1319.93 698.812C1320.15 692.733 1317.4 686.085 1313.11 681.773C1310.11 678.759 1304.91 677.216 1300.73 677.419C1292.04 677.84 1286.46 684.982 1281.15 690.943L1280.66 691.374C1278.35 693.449 1274.87 698.739 1272.16 699.636L1271.58 699.358C1279.52 672.038 1289.94 645.535 1295.6 617.57ZM1486 770.526C1484.58 778.987 1484.81 788.046 1484.48 796.631L1484.38 797.229C1482.41 809.575 1482.23 822.422 1480.67 834.875Q1475.34 877.408 1465.23 919.064Q1463.31 926.941 1461.23 934.775Q1459.14 942.608 1456.88 950.394Q1454.62 958.18 1452.2 965.915Q1449.77 973.65 1447.17 981.33Q1444.58 989.01 1441.81 996.631Q1439.05 1004.25 1436.12 1011.81Q1433.19 1019.37 1430.1 1026.87Q1427.01 1034.36 1423.75 1041.78Q1420.5 1049.21 1417.08 1056.56Q1413.66 1063.91 1410.08 1071.18Q1406.51 1078.46 1402.77 1085.65Q1399.04 1092.85 1395.15 1099.96Q1391.26 1107.07 1387.21 1114.1Q1383.16 1121.12 1378.97 1128.06Q1374.77 1134.99 1370.42 1141.84Q1366.07 1148.68 1361.57 1155.42Q1357.08 1162.17 1352.43 1168.81Q1347.79 1175.46 1343 1182Q1338.22 1188.54 1333.29 1194.98Q1328.36 1201.42 1323.29 1207.74Q1318.22 1214.07 1313.02 1220.29Q1307.81 1226.5 1302.47 1232.6Q1297.13 1238.7 1291.66 1244.68Q1286.19 1250.66 1280.59 1256.53Q1274.99 1262.39 1269.26 1268.12Q1263.53 1273.86 1257.68 1279.47Q1251.83 1285.08 1245.86 1290.56Q1239.88 1296.04 1233.79 1301.39Q1227.7 1306.74 1221.49 1311.96Q1215.29 1317.18 1208.97 1322.25Q1202.65 1327.33 1196.22 1332.27Q1189.79 1337.21 1183.26 1342.01Q1174.73 1348.28 1166.02 1354.3Q1157.31 1360.32 1148.44 1366.09Q1139.57 1371.86 1130.53 1377.38Q1121.5 1382.9 1112.31 1388.15Q1103.12 1393.41 1093.78 1398.41Q1084.45 1403.4 1074.98 1408.13Q1065.5 1412.85 1055.9 1417.31Q1046.3 1421.76 1036.57 1425.94Q1025.12 1430.88 1013.52 1435.42Q1001.91 1439.96 990.156 1444.11Q978.402 1448.26 966.513 1452Q954.625 1455.75 942.616 1459.09Q930.607 1462.42 918.492 1465.35Q906.376 1468.28 894.169 1470.8Q881.961 1473.32 869.675 1475.42Q857.388 1477.52 845.038 1479.2Q822.011 1482.59 798.784 1484.09C789.988 1484.7 780.216 1484.23 771.627 1486L1486 1486L1486 770.526Z"/>
	<defs>
		<linearGradient id="gradient_5" gradientUnits="userSpaceOnUse" x1="722.33716" y1="1420.874" x2="129.48991" y2="641.59656">
			<stop offset="0" stop-color="#30783C"/>
			<stop offset="1" stop-color="#5BAB6B"/>
		</linearGradient>
	</defs>
	<path fill="url(#gradient_5)" d="M197.6 629.618C194.432 617.749 191.406 604.086 196.476 592.246C198.288 588.015 201.226 584.589 205.604 582.934C210.701 581.007 216.514 581.573 221.336 583.981C236.203 591.405 242.412 611.838 247.585 626.345C247.578 621.607 245.589 616.864 243.965 612.472L244.111 612.435L243.452 611.785C246.433 610.178 249.211 608.801 251.617 606.36C252.226 604.143 252.927 602.232 253.945 600.169L255.25 599.774L255.666 600.796C252.271 606.483 252.384 612.523 252.548 618.934L253.563 619.636C252.957 613.138 253.223 607.02 256.917 601.332C260.81 595.336 266.82 593.027 273.561 591.727C282.45 592.87 289.778 595.941 295.529 603.191C303.632 613.407 313.404 643.416 318.685 656.759Q326.641 677.062 335.756 696.872C363.28 756.836 407.686 829.981 456.028 875.422Q471.878 890.052 488.966 903.215C496.346 908.972 504.251 914.493 511.024 920.952C503.332 908.907 497.139 895.888 489.971 883.513C480.842 867.752 470.222 852.157 462.532 835.682C459.823 829.878 457.778 824.046 456.84 817.696C456.445 808.786 458.239 800.405 464.483 793.701C470.339 787.414 478.876 783.952 487.408 783.742C498.451 783.469 507.512 788.479 515.33 795.813C537.378 820.688 553.021 849.717 572.577 876.44C582.201 889.592 592.811 902.295 603.354 914.724C609.819 922.346 616.687 929.742 622.428 937.936C649.581 976.696 657.241 1038.51 654.234 1085.04C653.167 1101.54 648.726 1117.75 647.975 1134.19C647.112 1153.11 647.875 1172.35 647.902 1191.3Q647.837 1248.28 648.503 1305.26C649.12 1363.63 648.05 1422.02 649.244 1480.39Q668.547 1482.77 687.948 1484.12C696.573 1484.69 707.203 1484.04 715.483 1486L0 1486L0 768.103L0 762.421C0.461009 762.307 0.948861 762.472 1.42052 762.527C2.541 766.238 1.38851 770.458 1.91082 774.349L2.8538 774.794C15.0331 768.95 28.1033 765.988 40.6403 761.144C82.9708 744.79 121.2 723.072 151.68 688.884Q165.81 673.066 178.426 656.016C184.431 647.733 189.878 637.128 197.116 630.071C197.274 629.917 197.439 629.769 197.6 629.618ZM0 768.103L0 1486L715.483 1486C707.203 1484.04 696.573 1484.69 687.948 1484.12Q668.547 1482.77 649.244 1480.39C639.792 1479.06 629.906 1478.19 620.627 1476C609.775 1474.87 598.75 1472.27 588.086 1470.02Q571.577 1466.51 555.244 1462.26Q538.911 1458 522.787 1453.01Q506.664 1448.02 490.784 1442.3Q474.904 1436.58 459.3 1430.15C357.171 1386.31 267.386 1325.16 192.617 1242.46C177.433 1225.66 161.69 1208.12 148.927 1189.38C141.642 1183.33 114.918 1140.65 108.619 1130.36Q103.676 1122.29 98.9423 1114.09Q94.2082 1105.89 89.6859 1097.57Q85.1636 1089.25 80.856 1080.82Q76.5484 1072.39 72.4584 1063.86Q68.3683 1055.32 64.4985 1046.68Q60.6287 1038.04 56.9816 1029.3Q53.3346 1020.56 49.9127 1011.74Q46.4908 1002.91 43.2964 993.998Q40.1019 985.086 37.137 976.096Q34.1721 967.105 31.4386 958.041Q28.7052 948.977 26.205 939.846Q23.7048 930.715 21.4395 921.523Q19.1742 912.331 17.1453 903.083Q15.1164 893.836 13.3253 884.54Q11.5341 875.244 9.98189 865.905Q8.42965 856.566 7.11734 847.19C4.94609 831.981 2.97367 816.515 1.9978 801.176C1.3204 790.528 1.71478 779.306 0.112241 768.79C0.0772825 768.56 0.0374137 768.332 0 768.103Z"/>
	<path fill="#23673D" d="M459.423 1412.68L459.555 1413.58C460.253 1418.67 459.232 1424.53 460.789 1429.3C465.55 1430.88 469.805 1433.04 474.455 1434.79Q492.811 1441.58 511.468 1447.5C524.643 1451.53 538.74 1453.52 551.981 1457.5C557.72 1459.22 563.074 1462.17 568.862 1463.68C583.035 1467.37 597.935 1471.07 612.356 1473.29C614.882 1473.67 617.089 1472.26 619.442 1473.14L620.627 1476C609.775 1474.87 598.75 1472.27 588.086 1470.02Q571.577 1466.51 555.244 1462.26Q538.911 1458 522.787 1453.01Q506.664 1448.02 490.784 1442.3Q474.904 1436.58 459.3 1430.15Q459.276 1421.41 459.423 1412.68Z"/>
	<path fill="#23673D" d="M243.452 611.785C246.433 610.178 249.211 608.801 251.617 606.36C252.226 604.143 252.927 602.232 253.945 600.169L255.25 599.774L255.666 600.796C252.271 606.483 252.384 612.523 252.548 618.934L253.563 619.636C259.153 645.53 267.231 671.191 274.879 696.543C286.021 733.48 297.065 771.562 314.291 806.185C320.852 819.37 328.492 831.799 336.569 844.1C340.703 850.398 346.125 856.678 349.269 863.5C345.378 861.213 338.647 850.724 335.601 846.583C299.141 797.008 281.472 739.664 264.023 681.428C258.581 663.265 252.263 645.044 247.643 626.669C247.616 626.563 247.604 626.453 247.585 626.345C247.578 621.607 245.589 616.864 243.965 612.472L244.111 612.435L243.452 611.785Z"/>
	<path fill="#6EB46F" d="M456.84 817.696C456.445 808.786 458.239 800.405 464.483 793.701C470.339 787.414 478.876 783.952 487.408 783.742C498.451 783.469 507.512 788.479 515.33 795.813C512.236 810.114 507.606 821.206 495.014 829.432C489.392 833.106 482.871 835.526 476.113 834.026C468.298 832.291 461.626 825.325 457.424 818.754C457.207 818.415 457.035 818.049 456.84 817.696Z"/>
	<defs>
		<linearGradient id="gradient_6" gradientUnits="userSpaceOnUse" x1="4.5300245" y1="994.29016" x2="298.56625" y2="761.41364">
			<stop offset="0" stop-color="#074942"/>
			<stop offset="1" stop-color="#08796A"/>
		</linearGradient>
	</defs>
	<path fill="url(#gradient_6)" d="M197.6 629.618C204.721 662.655 213.353 695.101 222.24 727.693C232.029 763.593 242.025 799.533 256.363 833.939C264.947 854.536 275.48 874.604 285.654 894.459C290.282 903.492 296.147 912.932 299.572 922.451C260.133 868.046 242.985 825.547 225.421 761.185Q221.281 746.218 217.503 731.155C214.999 720.804 213.086 710.049 208.821 700.236C205.44 692.457 200.221 684.214 191.151 682.741C187.039 682.073 182.751 683.056 179.493 685.696C175.286 689.104 173.766 694.273 173.44 699.488C172.561 713.579 177.381 729.348 180.178 743.085C187.702 780.044 196.941 816.113 210.039 851.538C218.305 873.896 228.336 895.899 238.068 917.662C250.488 945.436 263.642 973.198 278.568 999.72C232.519 1015.72 195.658 1042.49 158.585 1073.41C150.681 1080 140.088 1087.2 134.115 1095.51C130.437 1098.36 125.773 1101.55 123.193 1105.47C123.435 1105.53 123.678 1105.58 123.92 1105.64C124.868 1105.89 124.515 1105.73 125.215 1106.21C120.569 1112.73 112.345 1118.38 106.67 1124.29Q119.552 1145.73 133.818 1166.28C138.394 1172.86 144.499 1179.57 148.31 1186.52C148.977 1187.73 149.162 1188.06 148.927 1189.38C141.642 1183.33 114.918 1140.65 108.619 1130.36Q103.676 1122.29 98.9423 1114.09Q94.2082 1105.89 89.6859 1097.57Q85.1636 1089.25 80.856 1080.82Q76.5484 1072.39 72.4584 1063.86Q68.3683 1055.32 64.4985 1046.68Q60.6287 1038.04 56.9816 1029.3Q53.3346 1020.56 49.9127 1011.74Q46.4908 1002.91 43.2964 993.998Q40.1019 985.086 37.137 976.096Q34.1721 967.105 31.4386 958.041Q28.7052 948.977 26.205 939.846Q23.7048 930.715 21.4395 921.523Q19.1742 912.331 17.1453 903.083Q15.1164 893.836 13.3253 884.54Q11.5341 875.244 9.98189 865.905Q8.42965 856.566 7.11734 847.19C4.94609 831.981 2.97367 816.515 1.9978 801.176C1.3204 790.528 1.71478 779.306 0.112241 768.79C0.0772825 768.56 0.0374137 768.332 0 768.103L0 762.421C0.461009 762.307 0.948861 762.472 1.42052 762.527C2.541 766.238 1.38851 770.458 1.91082 774.349L2.8538 774.794C15.0331 768.95 28.1033 765.988 40.6403 761.144C82.9708 744.79 121.2 723.072 151.68 688.884Q165.81 673.066 178.426 656.016C184.431 647.733 189.878 637.128 197.116 630.071C197.274 629.917 197.439 629.769 197.6 629.618Z"/>
	<path fill="#064F47" d="M279.578 1001.42C309.881 1051.73 345.008 1097.57 386.939 1138.83Q404.897 1156.48 423.321 1173.64C431.708 1181.39 440.965 1188.92 448.433 1197.55C454.131 1204.13 458.323 1211.71 459.916 1220.33C463.906 1241.92 462.286 1265.83 461.926 1287.77C461.244 1329.37 459.049 1371.08 459.423 1412.68Q459.276 1421.41 459.3 1430.15C357.171 1386.31 267.386 1325.16 192.617 1242.46C177.433 1225.66 161.69 1208.12 148.927 1189.38C149.162 1188.06 148.977 1187.73 148.31 1186.52C144.499 1179.57 138.394 1172.86 133.818 1166.28Q119.552 1145.73 106.67 1124.29C112.345 1118.38 120.569 1112.73 125.215 1106.21C124.515 1105.73 124.868 1105.89 123.92 1105.64C123.678 1105.58 123.435 1105.53 123.193 1105.47C125.773 1101.55 130.437 1098.36 134.115 1095.51C135.44 1095.39 135.93 1095.13 136.971 1094.28C159.204 1076.31 178.676 1058.02 202.363 1041.08Q206.793 1037.91 211.335 1034.91Q215.878 1031.91 220.527 1029.07Q225.176 1026.24 229.926 1023.58Q234.675 1020.91 239.519 1018.42Q244.363 1015.94 249.294 1013.63Q254.225 1011.32 259.238 1009.19Q264.25 1007.06 269.337 1005.12Q274.424 1003.18 279.578 1001.42Z"/>
	<defs>
		<linearGradient id="gradient_7" gradientUnits="userSpaceOnUse" x1="854.00116" y1="19.235142" x2="809.31683" y2="274.10458">
			<stop offset="0" stop-color="#188E7F"/>
			<stop offset="1" stop-color="#31AA93"/>
		</linearGradient>
	</defs>
	<path fill="url(#gradient_7)" d="M716.545 0L768.908 0C769.132 0.0396728 769.357 0.0820978 769.582 0.119018C781.166 2.01625 793.591 1.16794 805.336 2.28553Q828.842 4.34328 852.181 7.81863Q875.52 11.294 898.606 16.1742Q905.146 17.5654 911.66 19.0746Q918.174 20.5837 924.66 22.2104Q931.146 23.837 937.601 25.5805Q944.056 27.3241 950.479 29.184Q956.902 31.0439 963.29 33.0195Q969.678 34.9952 976.029 37.0859Q982.38 39.1767 988.693 41.3818Q995.005 43.587 1001.28 45.9058Q1007.55 48.2247 1013.78 50.6565Q1020.01 53.0883 1026.19 55.6323Q1032.37 58.1762 1038.51 60.8315Q1044.65 63.4868 1050.73 66.2525Q1056.82 69.0182 1062.86 71.8935Q1068.9 74.7688 1074.88 77.7526Q1080.86 80.7365 1086.79 83.828Q1092.72 86.9196 1098.59 90.1177Q1104.47 93.3158 1110.28 96.6196Q1116.09 99.9233 1121.85 103.332Q1127.6 106.74 1133.29 110.251Q1138.98 113.763 1144.6 117.377Q1150.23 120.991 1155.79 124.706Q1161.35 128.42 1166.84 132.235Q1172.33 136.05 1177.76 139.963Q1183.18 143.877 1188.53 147.887Q1193.88 151.898 1199.15 156.005Q1204.43 160.112 1209.63 164.313Q1214.83 168.514 1219.96 172.809Q1225.08 177.104 1230.13 181.49Q1235.18 185.877 1240.14 190.354Q1245.11 194.831 1250 199.397Q1254.88 203.963 1259.68 208.617Q1264.48 213.27 1269.2 218.01C1290.9 239.73 1312.35 262.718 1330.47 287.541C1330.96 288.215 1331.43 288.905 1331.88 289.607L1333.54 291.574C1308.41 289.709 1283.07 284.169 1258.15 280.472C1194.62 271.048 1128.17 266.565 1076.87 223.067C1054.46 204.061 1039.08 177.884 1018.79 156.777C982.347 118.874 932.212 102.85 881.74 94.1244C860.877 90.5177 839.058 87.9245 817.893 87.5022C803.657 87.2182 789.108 86.9753 774.886 87.7473C766.658 88.1939 758.239 89.7807 750.017 89.5231C749.792 89.5161 749.567 89.5035 749.342 89.4936L749.212 85.1335L748.586 85.0734L746.416 88.6583C744.547 88.6937 743.271 88.7782 741.594 89.643C736.944 92.04 728.609 92.2743 723.267 93.4872C701.886 98.3418 682.183 105.322 663.675 117.339C644.813 129.584 631.789 145.721 615.939 161.173C565.578 210.266 517.578 235.6 446.64 211.487C432.062 206.532 418.318 199.669 403.957 194.265C392.243 189.857 380.323 186.651 368.068 184.199C361.419 182.869 355.509 181.529 348.67 181.235C324.432 180.191 301.813 183.744 278.599 190.411C276.671 190.964 274.651 192.141 272.825 191.251C250.884 197.77 232.296 211.139 212.699 222.342C315.479 113.511 461.58 39.3647 608.059 12.0668Q644.248 5.5224 680.882 2.28821C692.398 1.30389 704.462 1.86293 715.843 0.115445C716.078 0.0794716 716.311 0.0384816 716.545 0Z"/>
	<path fill="#087369" d="M716.545 0L768.908 0C769.132 0.0396728 769.357 0.0820978 769.582 0.119018C781.166 2.01625 793.591 1.16794 805.336 2.28553Q828.842 4.34328 852.181 7.81863Q875.52 11.294 898.606 16.1742Q905.146 17.5654 911.66 19.0746Q918.174 20.5837 924.66 22.2104Q931.146 23.837 937.601 25.5805Q944.056 27.3241 950.479 29.184Q956.902 31.0439 963.29 33.0195Q969.678 34.9952 976.029 37.0859Q982.38 39.1767 988.693 41.3818Q995.005 43.587 1001.28 45.9058Q1007.55 48.2247 1013.78 50.6565Q1020.01 53.0883 1026.19 55.6323Q1032.37 58.1762 1038.51 60.8315Q1044.65 63.4868 1050.73 66.2525Q1056.82 69.0182 1062.86 71.8935Q1068.9 74.7688 1074.88 77.7526Q1080.86 80.7365 1086.79 83.828Q1092.72 86.9196 1098.59 90.1177Q1104.47 93.3158 1110.28 96.6196Q1116.09 99.9233 1121.85 103.332Q1127.6 106.74 1133.29 110.251Q1138.98 113.763 1144.6 117.377Q1150.23 120.991 1155.79 124.706Q1161.35 128.42 1166.84 132.235Q1172.33 136.05 1177.76 139.963Q1183.18 143.877 1188.53 147.887Q1193.88 151.898 1199.15 156.005Q1204.43 160.112 1209.63 164.313Q1214.83 168.514 1219.96 172.809Q1225.08 177.104 1230.13 181.49Q1235.18 185.877 1240.14 190.354Q1245.11 194.831 1250 199.397Q1254.88 203.963 1259.68 208.617Q1264.48 213.27 1269.2 218.01C1290.9 239.73 1312.35 262.718 1330.47 287.541C1330.96 288.215 1331.43 288.905 1331.88 289.607C1327.46 288.183 1305.11 258.536 1300.14 252.95C1294.16 246.22 1287.22 240.324 1280.7 234.114C1262.85 217.111 1242.64 202.084 1223.18 186.958C1217.4 182.472 1212.18 177.344 1206.41 172.867C1199.96 167.853 1192.79 163.743 1186.16 158.965C1167.85 145.777 1149.85 132.485 1130.37 121.011Q1106.33 106.805 1081.47 94.0881Q1056.62 81.3716 1031.03 70.1923C1026.16 68.0665 1021.55 65.1329 1016.67 63.2001C1006.96 59.3548 992.939 55.8431 982.419 52.2663C967.819 47.3025 953.051 41.5087 938.256 37.3233C913.23 30.2439 887.391 25.7393 861.725 21.8178C854.228 20.6723 846.74 19.0639 839.201 18.2483C833.235 17.6028 827.21 17.4991 821.232 16.9443C808.823 15.7924 796.549 14.2529 784.065 14.144C752.965 13.8726 721.089 17.0999 690.223 20.7636C652.846 25.2001 616.764 31.1252 580.279 40.5665C544.564 49.8086 510.025 62.1092 475.814 75.8226C463.301 80.8384 450.715 85.5819 438.593 91.5229C404.555 108.206 370.403 129.686 339.577 151.647C333.758 155.793 314.304 167.918 311.221 173.37C309.656 176.137 306.514 178.626 304.436 181.139L305.19 181.509C311.339 179.9 320.023 178.258 326.385 178.63C326.847 178.657 327.308 178.698 327.77 178.732L327.827 178.488L327.505 179.195C318.192 177.981 281.638 187.49 272.825 191.251C250.884 197.77 232.296 211.139 212.699 222.342C315.479 113.511 461.58 39.3647 608.059 12.0668Q644.248 5.5224 680.882 2.28821C692.398 1.30389 704.462 1.86293 715.843 0.115445C716.078 0.0794716 716.311 0.0384816 716.545 0Z"/>
	<path fill="#0C9080" d="M749.342 89.4936C749.567 89.5035 749.792 89.5161 750.017 89.5231C758.239 89.7807 766.658 88.1939 774.886 87.7473C789.108 86.9753 803.657 87.2182 817.893 87.5022C839.058 87.9245 860.877 90.5177 881.74 94.1244C932.212 102.85 982.347 118.874 1018.79 156.777C1039.08 177.884 1054.46 204.061 1076.87 223.067C1128.17 266.565 1194.62 271.048 1258.15 280.472C1283.07 284.169 1308.41 289.709 1333.54 291.574C1409.08 386.905 1464.56 520.07 1479.19 640.835L1478.26 642.004C1461.93 640.415 1415.11 619.741 1400.31 611.538C1389.33 605.453 1379.17 598.029 1368.27 591.836C1356.02 590.139 1338.58 578.658 1327.63 572.458Q1320.22 568.343 1312.95 563.981Q1305.69 559.619 1298.57 555.015Q1291.46 550.411 1284.5 545.57Q1277.54 540.73 1270.75 535.658Q1263.96 530.586 1257.35 525.288Q1250.73 519.991 1244.3 514.474Q1237.87 508.957 1231.62 503.226Q1225.38 497.496 1219.33 491.559C1198.41 471.106 1177.66 440.37 1152.33 426.277C1128.32 412.918 1108.77 426.562 1085.04 431.509C1068.9 434.873 1052.51 433.72 1036.78 428.869C1006.94 419.661 978.089 406.201 951.21 390.35C933.056 379.643 914.713 368.135 897.656 355.763C881.475 344.027 865.624 330.883 848.805 320.155C846.373 318.604 844.08 317.478 841.238 316.943C835.426 310.23 830.708 301.429 825.89 293.904C807.448 265.1 784.888 229.135 772.513 197.368C757.184 161.381 752.19 139.759 748.813 100.48C748.76 96.8109 748.474 93.0821 749.342 89.4936Z"/>
	<path fill="#087369" d="M772.513 197.368L773.825 197.557C777.766 205.977 781.337 216.783 787.386 223.907C793.858 224.676 800.85 223.033 807.399 222.837C824.419 222.329 847.574 226.404 862.79 234.172C861.409 234.232 860.035 234.287 858.653 234.286C875.25 240.356 889.388 250.432 904.617 259.108Q909.6 261.999 914.686 264.703Q919.773 267.407 924.957 269.919Q930.14 272.432 935.414 274.751Q940.687 277.069 946.043 279.19Q951.399 281.311 956.831 283.231Q962.262 285.151 967.76 286.868Q973.259 288.585 978.818 290.097Q984.377 291.608 989.988 292.912Q997.774 294.678 1005.65 295.959Q1013.53 297.24 1021.48 298.031Q1029.42 298.822 1037.4 299.121Q1045.38 299.419 1053.36 299.224C1113.57 297.629 1170.29 278.033 1223.96 319.164C1237.43 329.481 1249.23 342.341 1256.34 357.89C1265.76 378.468 1262.43 399.809 1263.1 421.647C1264.8 476.937 1296.67 527.475 1335.83 564.542C1341.24 569.664 1346.66 574.864 1352.52 579.477C1357.65 583.518 1363.61 587.296 1368.27 591.836C1356.02 590.139 1338.58 578.658 1327.63 572.458Q1320.22 568.343 1312.95 563.981Q1305.69 559.619 1298.57 555.015Q1291.46 550.411 1284.5 545.57Q1277.54 540.73 1270.75 535.658Q1263.96 530.586 1257.35 525.288Q1250.73 519.991 1244.3 514.474Q1237.87 508.957 1231.62 503.226Q1225.38 497.496 1219.33 491.559C1198.41 471.106 1177.66 440.37 1152.33 426.277C1128.32 412.918 1108.77 426.562 1085.04 431.509C1068.9 434.873 1052.51 433.72 1036.78 428.869C1006.94 419.661 978.089 406.201 951.21 390.35C933.056 379.643 914.713 368.135 897.656 355.763C881.475 344.027 865.624 330.883 848.805 320.155C846.373 318.604 844.08 317.478 841.238 316.943C835.426 310.23 830.708 301.429 825.89 293.904C807.448 265.1 784.888 229.135 772.513 197.368Z"/>
	<defs>
		<linearGradient id="gradient_8" gradientUnits="userSpaceOnUse" x1="156.5784" y1="271.39011" x2="552.42737" y2="494.7366">
			<stop offset="0" stop-color="#0D756D"/>
			<stop offset="1" stop-color="#11B094"/>
		</linearGradient>
	</defs>
	<path fill="url(#gradient_8)" d="M272.825 191.251C274.651 192.141 276.671 190.964 278.599 190.411C301.813 183.744 324.432 180.191 348.67 181.235C355.509 181.529 361.419 182.869 368.068 184.199C380.323 186.651 392.243 189.857 403.957 194.265C418.318 199.669 432.062 206.532 446.64 211.487C517.578 235.6 565.578 210.266 615.939 161.173C631.789 145.721 644.813 129.584 663.675 117.339C682.183 105.322 701.886 98.3418 723.267 93.4872C728.609 92.2743 736.944 92.04 741.594 89.643C743.271 88.7782 744.547 88.6937 746.416 88.6583C745.035 97.3867 743.062 106.472 742.46 115.268C736.28 152.43 724.123 187.827 707.649 221.66C704.298 228.541 701.019 236.044 696.903 242.483C677.185 284.062 649.87 322.648 623.559 360.281C619.502 366.083 612.239 378.275 607.132 382.522C594.4 389.604 583.018 399.534 570.611 407.262Q544.88 423.074 518.47 437.725C475.398 462.089 431.071 485.51 382.149 495.281C360.369 499.631 340.278 503.113 321.582 516.033C298.336 532.098 282.899 558.818 275.263 585.538Q274.383 588.624 273.561 591.727C266.82 593.027 260.81 595.336 256.917 601.332C253.223 607.02 252.957 613.138 253.563 619.636L252.548 618.934C252.384 612.523 252.271 606.483 255.666 600.796L255.25 599.774L253.945 600.169C252.927 602.232 252.226 604.143 251.617 606.36C249.211 608.801 246.433 610.178 243.452 611.785L244.111 612.435L243.965 612.472C245.589 616.864 247.578 621.607 247.585 626.345C242.412 611.838 236.203 591.405 221.336 583.981C216.514 581.573 210.701 581.007 205.604 582.934C201.226 584.589 198.288 588.015 196.476 592.246C191.406 604.086 194.432 617.749 197.6 629.618C197.439 629.769 197.274 629.917 197.116 630.071C189.878 637.128 184.431 647.733 178.426 656.016Q165.81 673.066 151.68 688.884C121.2 723.072 82.9708 744.79 40.6403 761.144C28.1033 765.988 15.0331 768.95 2.8538 774.794L1.91082 774.349C1.38851 770.458 2.541 766.238 1.42052 762.527C0.948861 762.472 0.461009 762.307 0 762.421L0 717.802C1.48785 711.499 1.08728 703.902 1.41622 697.395C1.38604 696.635 1.36706 695.874 1.38228 695.113C1.82255 673.129 5.34357 650.462 8.62261 628.765Q9.54659 622.781 10.5681 616.813Q11.5897 610.845 12.7085 604.895Q13.8273 598.944 15.0432 593.012Q16.259 587.081 17.5715 581.17Q18.884 575.259 20.2928 569.371Q21.7016 563.482 23.2064 557.617Q24.7112 551.752 26.3115 545.913Q27.9118 540.073 29.6072 534.26Q31.3026 528.448 33.0927 522.664Q34.8828 516.88 36.7671 511.125Q38.6513 505.371 40.6293 499.649Q42.6073 493.926 44.6784 488.236Q46.7495 482.547 48.9132 476.892Q51.077 471.237 53.3327 465.618Q55.5885 459.999 57.9356 454.417Q60.2828 448.836 62.7208 443.294Q65.1588 437.751 67.6869 432.25Q70.2151 426.748 72.8327 421.288Q75.4503 415.828 78.1567 410.412Q80.8631 404.996 83.6576 399.624Q86.452 394.253 89.3338 388.928Q92.2156 383.603 95.1839 378.326Q98.1523 373.048 101.206 367.82Q104.26 362.592 107.399 357.414Q110.538 352.237 113.762 347.111Q116.985 341.985 120.291 336.913Q123.597 331.841 126.986 326.823Q130.375 321.805 133.845 316.844Q137.315 311.882 140.866 306.977Q144.417 302.073 148.047 297.227Q151.678 292.381 155.386 287.596Q159.095 282.81 162.882 278.085Q174.46 263.39 186.926 249.441Q199.392 235.492 212.699 222.342C232.296 211.139 250.884 197.77 272.825 191.251Z"/>
	<path fill="#0C9080" d="M58.3854 661.034L58.3928 659.974C59.7911 657.064 63.7887 654.106 66.1321 651.808C67.0571 640.684 70.9051 633.749 73.1899 623.548C80.4735 591.029 84.0981 563.708 97.7944 532.4C100.744 525.657 103.667 518.415 108.665 512.89C111.121 510.175 112.792 509.026 116.48 508.915C116.695 508.908 116.909 508.906 117.124 508.902C119.421 504.43 116.214 505.095 115.731 502.018C115.372 499.74 119.205 496.787 119.939 494.592C122.074 488.2 122.216 481.074 124.305 474.619C127.017 466.236 130.719 457.425 134.703 449.575C136.962 445.123 139.909 440.704 141.791 436.101C142.11 435.323 142.17 434.555 142.183 433.728C142.205 432.23 142.151 430.731 142.302 429.236C142.678 425.506 147.723 415.491 149.422 411.176C152.778 402.653 155.666 393.237 160.028 385.221C172.559 362.192 191.001 339.381 208.783 320.121C215.055 313.327 221.828 306.998 228.187 300.282C246.838 280.581 266 260.668 286.681 243.067C298.529 232.985 310.601 222.285 323.076 213.021C326.439 210.523 330.157 208.608 333.573 206.195C339.013 202.352 344.622 197.828 350.685 195.032C355.608 192.763 366.448 190.77 371.863 191.199C373.443 192.659 375.141 194.148 376.434 195.876C385.559 208.063 370.49 224.997 368.624 237.525C368.411 238.962 355.566 251.62 353.327 254.081C348.105 259.821 345.245 266.583 339.528 271.976L338.759 272.69C338.641 273.807 338.476 274.789 338.238 275.878C334.919 277.431 331.45 278.138 327.903 278.974C327.686 280.163 327.438 281.358 327.036 282.5C324.985 288.319 313.72 302.361 307.984 304.839C305.462 305.929 301.805 306.78 299.584 308.328C297.924 309.484 295.709 315.421 293.631 315.355C291.767 315.295 292.713 314.109 290.335 315.04C290.252 315.998 290.165 316.961 290.002 317.91C289.576 320.381 288.547 322.459 286.485 323.931L285.546 323.24C284.509 323.407 283.69 323.503 282.632 323.393C282.356 323.365 282.082 323.318 281.807 323.281C280.776 333.815 272.271 330.639 265.823 339.721L265.956 340.396C267.139 340.786 268.313 341.147 269.432 341.702C270.812 342.387 270.972 342.211 271.497 343.742L270.444 344.47L269.242 344.067L268.043 344.518L267.321 343.577L265.738 344.85C266.565 346.033 267.113 346.99 267.502 348.37C268.292 351.18 268.762 352.001 271.11 353.762C271.987 351.777 270.912 347.604 270.594 345.41L271.617 344.84C274.481 347.129 276.226 347.163 279.717 347.206C291.219 347.348 289.291 345.746 296.8 338.794C299.121 336.645 302.003 336.502 305.024 336.671C309.264 336.909 312.056 337.349 314.896 340.61C315.853 341.708 320.969 340.832 322.897 341.762C323.614 343.349 324.141 344.842 325.529 345.973L328.979 344.232C347.5 345.109 365.068 342.288 383.367 340.667C390.676 344.888 391.345 340.242 398.16 340.761C406.716 341.412 419.204 343.227 427.382 340.109C427.706 339.985 428.009 339.78 428.352 339.731C428.762 339.672 429.181 339.845 429.591 339.791C432.625 339.397 429.552 339.361 431.741 339.383C431.966 339.385 432.191 339.404 432.416 339.415C438.517 335.122 445.794 334.943 452.646 332.598C460.081 330.054 467.679 326.597 474.988 323.614C481.071 321.132 485.763 315.999 491.191 313.694C493.121 312.874 495.37 315.571 497.427 316.153C499.248 314.496 500.546 313.147 503.041 312.599C503.66 313.579 503.467 313.158 503.866 314.253C503.959 314.51 504.045 314.77 504.135 315.028C504.101 313.995 504.17 313.238 504.659 312.284C507.113 307.496 514.845 306.09 519.587 304.833L519.898 302.834C524.265 297.886 528.955 302.224 533.93 298.79C539.602 294.876 546.066 294.095 552.097 291.049C556.679 288.735 561.08 284.902 565.209 281.846C565.925 282.076 565.977 282.137 566.853 282.159C569.846 282.231 578.246 279.602 580.149 277.383C581.109 277.391 583.556 278.943 585.847 279.279C547.297 304.576 529.703 336.004 481.831 351.301C451.016 361.148 418.867 361.719 386.855 361.706C309.728 361.674 215.971 352.416 160.092 417.308C140.794 439.718 129.079 463.594 123.102 492.601C119.599 509.6 118.791 526.984 116.166 544.114C109.419 588.147 91.5266 630.318 58.3854 661.034Z"/>
	<path fill="#087369" d="M696.903 242.483C677.185 284.062 649.87 322.648 623.559 360.281C619.502 366.083 612.239 378.275 607.132 382.522C594.4 389.604 583.018 399.534 570.611 407.262Q544.88 423.074 518.47 437.725C475.398 462.089 431.071 485.51 382.149 495.281C360.369 499.631 340.278 503.113 321.582 516.033C298.336 532.098 282.899 558.818 275.263 585.538Q274.383 588.624 273.561 591.727C266.82 593.027 260.81 595.336 256.917 601.332C253.223 607.02 252.957 613.138 253.563 619.636L252.548 618.934C252.384 612.523 252.271 606.483 255.666 600.796L255.25 599.774L253.945 600.169C252.927 602.232 252.226 604.143 251.617 606.36C249.211 608.801 246.433 610.178 243.452 611.785L244.111 612.435L243.965 612.472C245.589 616.864 247.578 621.607 247.585 626.345C242.412 611.838 236.203 591.405 221.336 583.981C216.514 581.573 210.701 581.007 205.604 582.934C201.226 584.589 198.288 588.015 196.476 592.246C191.406 604.086 194.432 617.749 197.6 629.618C197.439 629.769 197.274 629.917 197.116 630.071C189.878 637.128 184.431 647.733 178.426 656.016Q165.81 673.066 151.68 688.884C121.2 723.072 82.9708 744.79 40.6403 761.144C28.1033 765.988 15.0331 768.95 2.8538 774.794L1.91082 774.349C1.38851 770.458 2.541 766.238 1.42052 762.527C0.948861 762.472 0.461009 762.307 0 762.421L0 717.802C1.48785 711.499 1.08728 703.902 1.41622 697.395C7.54444 694.565 13.9705 692.462 20.0843 689.552C32.9939 683.407 49.3593 672.396 58.3854 661.034C91.5266 630.318 109.419 588.147 116.166 544.114C118.791 526.984 119.599 509.6 123.102 492.601C129.079 463.594 140.794 439.718 160.092 417.308C215.971 352.416 309.728 361.674 386.855 361.706C418.867 361.719 451.016 361.148 481.831 351.301C529.703 336.004 547.297 304.576 585.847 279.279C609.937 261.27 666.775 244.151 696.903 242.483Z"/>
</svg>
