<?xml version="1.0" encoding="utf-8" ?>
<svg xmlns="http://www.w3.org/2000/svg" xmlns:xlink="http://www.w3.org/1999/xlink" width="807" height="806">
	<clipPath id="cl_3">
		<rect x="0.00011444092" width="806.99994" height="806"/>
	</clipPath>
	<g clip-path="url(#cl_3)">
		<path fill="#094143" transform="matrix(0.999384 0 0 0.999756 -107.535 -108.888)" d="M113.367 570.015Q110.254 544.434 109.733 518.67C108.303 449.553 126.213 383.275 158.846 322.598C175.708 291.244 195.471 262.852 220.153 237.136C295.974 158.139 396.17 112.183 506.058 110.111Q510.911 110.053 515.764 110.113Q520.617 110.174 525.466 110.353Q530.316 110.533 535.16 110.831Q540.004 111.129 544.84 111.545Q549.675 111.962 554.499 112.497Q559.322 113.032 564.131 113.684Q568.941 114.337 573.732 115.107Q578.524 115.877 583.295 116.765Q588.067 117.652 592.815 118.656Q597.563 119.66 602.286 120.779Q607.008 121.899 611.701 123.134Q616.395 124.369 621.056 125.719Q625.718 127.068 630.346 128.532Q634.973 129.995 639.563 131.571Q644.153 133.147 648.704 134.835Q653.254 136.523 657.761 138.322Q662.269 140.121 666.731 142.029Q671.193 143.938 675.607 145.955Q680.021 147.972 684.385 150.097Q688.748 152.222 693.058 154.453Q697.368 156.684 701.622 159.02Q705.876 161.355 710.072 163.794Q714.268 166.234 718.403 168.775Q722.537 171.316 726.609 173.958Q730.68 176.599 734.685 179.34Q738.691 182.08 742.628 184.918Q746.565 187.756 750.432 190.689Q754.298 193.622 758.091 196.649Q761.885 199.676 765.603 202.795Q769.322 205.914 772.962 209.123Q776.603 212.332 780.164 215.629Q783.726 218.927 787.205 222.31C763.243 224.718 740.68 233.13 725.14 252.332C721.172 257.236 718.302 262.812 714.497 267.749C697.832 261.584 679.169 259.717 662.43 266.85C662.285 266.912 662.146 266.989 662.004 267.058C635.999 249.397 608.344 235.901 577.628 228.617C569.359 226.656 560.94 225.384 552.589 223.833C548.367 223.224 524.051 221.476 522.484 220.846C522.165 220.718 521.99 220.367 521.743 220.128L521.322 217.729C520.263 210.152 520.008 202.425 519.443 194.796C518.862 186.95 518.003 179.17 517.232 171.343C516.962 168.599 517.091 165.891 516.703 163.147C515.978 160.43 515.34 157.493 513.062 155.639C512.004 155.56 511.782 155.497 510.919 156.234C509.031 157.848 508.066 161.141 507.447 163.445C505.589 170.361 505.116 178.057 504.073 185.18Q501.411 203.541 498.292 221.83Q495.105 221.991 491.923 222.23Q488.741 222.468 485.566 222.784Q482.391 223.1 479.224 223.492Q476.057 223.885 472.901 224.354Q469.745 224.824 466.601 225.37Q463.457 225.916 460.327 226.538Q457.197 227.16 454.084 227.858Q450.97 228.555 447.874 229.329Q444.778 230.102 441.702 230.95Q438.626 231.798 435.571 232.721Q432.517 233.643 429.485 234.64Q426.454 235.636 423.448 236.706Q420.441 237.776 417.462 238.918Q414.482 240.06 411.532 241.275Q408.581 242.489 405.66 243.775Q402.74 245.06 399.851 246.417Q396.963 247.773 394.108 249.199Q391.254 250.624 388.435 252.119Q385.615 253.614 382.833 255.177Q380.051 256.739 377.308 258.369Q374.564 259.999 371.861 261.695Q369.159 263.391 366.497 265.152Q363.836 266.913 361.219 268.738Q358.602 270.563 356.029 272.451Q353.457 274.339 350.931 276.289Q348.405 278.239 345.927 280.25Q343.45 282.26 341.021 284.331Q338.593 286.401 336.216 288.529Q333.839 290.658 331.514 292.844Q329.189 295.029 326.918 297.271Q324.647 299.512 322.431 301.808Q320.215 304.104 318.055 306.453Q315.923 308.763 313.844 311.122Q311.766 313.481 309.743 315.887Q307.72 318.293 305.753 320.745Q303.786 323.198 301.876 325.695Q299.966 328.192 298.115 330.733Q296.264 333.274 294.471 335.857Q292.679 338.44 290.947 341.063Q289.216 343.687 287.545 346.35Q285.874 349.013 284.266 351.714Q282.657 354.415 281.111 357.153Q279.565 359.89 278.083 362.663Q276.602 365.435 275.184 368.241Q273.767 371.047 272.415 373.885Q271.062 376.724 269.776 379.592Q268.49 382.461 267.271 385.359Q266.052 388.256 264.9 391.181Q263.748 394.106 262.664 397.057Q261.579 400.008 260.564 402.983Q259.549 405.959 258.602 408.957Q257.656 411.955 256.779 414.974Q255.902 417.993 255.096 421.031Q254.289 424.07 253.553 427.126Q252.817 430.182 252.152 433.255Q251.487 436.327 250.893 439.415Q250.299 442.502 249.776 445.602Q249.254 448.702 248.804 451.813Q248.353 454.924 247.975 458.045Q247.596 461.166 247.29 464.295Q246.984 467.424 246.751 470.559Q246.517 473.694 246.356 476.834Q246.195 479.973 246.107 483.116Q246.019 486.258 246.003 489.402C244.612 491.779 243.183 494.114 242.093 496.649C233.491 497.697 226.301 500.504 220.709 507.435C219.046 509.497 217.822 511.879 218.243 514.596C218.594 516.864 220.095 518.672 221.881 520.024L244.994 520.006C247.21 530.302 249.374 540.574 252.421 550.665C258.015 569.192 265.936 586.861 274.068 604.384C266.842 603.245 256.986 598.339 249.587 595.883Q227.952 588.792 205.788 583.584Q175.21 576.404 144 572.873C134.135 571.754 123.976 571.76 114.202 570.156L113.367 570.015Z"/>
		<path fill="#032423" transform="matrix(0.999384 0 0 0.999756 -107.535 -108.888)" d="M521.322 217.729C521.268 212.935 525.06 206.108 526.466 201.373C528.897 193.191 530.903 184.884 533.324 176.697C536.453 166.121 539.965 155.68 542.646 144.974L549.912 197.7C550.953 205.176 553.055 214.249 553.137 221.668C553.149 222.711 553.173 223.012 552.589 223.833C548.367 223.224 524.051 221.476 522.484 220.846C522.165 220.718 521.99 220.367 521.743 220.128L521.322 217.729Z"/>
		<defs>
			<linearGradient id="gradient_0" gradientUnits="userSpaceOnUse" x1="382.26654" y1="479.70688" x2="361.95343" y2="232.96523">
				<stop offset="0" stop-color="#117B5D"/>
				<stop offset="1" stop-color="#42A26A"/>
			</linearGradient>
		</defs>
		<path fill="url(#gradient_0)" transform="matrix(0.999384 0 0 0.999756 -107.535 -108.888)" d="M498.292 221.83Q501.411 203.541 504.073 185.18C505.116 178.057 505.589 170.361 507.447 163.445C508.066 161.141 509.031 157.848 510.919 156.234C511.782 155.497 512.004 155.56 513.062 155.639C515.34 157.493 515.978 160.43 516.703 163.147C517.091 165.891 516.962 168.599 517.232 171.343C518.003 179.17 518.862 186.95 519.443 194.796C520.008 202.425 520.263 210.152 521.322 217.729L521.743 220.128C520.668 225.612 522.419 237.799 522.828 243.772Q525.16 276.888 528.213 309.944C529.196 321.353 530.869 333.151 530.849 344.583C530.824 358.956 526.288 373.582 522.915 387.487C522.085 390.905 520.94 394.5 520.389 397.964C528.604 400.8 534.99 407.214 538.722 414.971C538.932 415.408 539.118 415.855 539.306 416.302C540.466 421.66 540.967 427.145 541.121 432.62C539.946 436.824 538.809 441.601 536.581 445.397C534.793 447.266 533.133 449.252 531.45 451.216C528.345 453.457 525.289 455.218 521.758 456.718C514.691 458.504 508.94 457.907 501.897 456.426C500.016 462.373 499.904 467.918 500.019 474.106Q499.414 483.476 499.266 492.865L489.979 748.752C480.525 743.013 473.178 733.632 465.004 726.239Q445.126 708.549 424.097 692.243C392.336 667.634 358.38 644.587 322.482 626.45Q309.878 620.137 296.989 614.428C289.331 611.1 281.534 608.142 274.068 604.384C265.936 586.861 258.015 569.192 252.421 550.665C249.374 540.574 247.21 530.302 244.994 520.006L221.881 520.024C220.095 518.672 218.594 516.864 218.243 514.596C217.822 511.879 219.046 509.497 220.709 507.435C226.301 500.504 233.491 497.697 242.093 496.649C243.183 494.114 244.612 491.779 246.003 489.402Q246.019 486.258 246.107 483.116Q246.195 479.973 246.356 476.834Q246.517 473.694 246.751 470.559Q246.984 467.424 247.29 464.295Q247.596 461.166 247.975 458.045Q248.353 454.924 248.804 451.813Q249.254 448.702 249.776 445.602Q250.299 442.502 250.893 439.415Q251.487 436.327 252.152 433.255Q252.817 430.182 253.553 427.126Q254.289 424.07 255.096 421.031Q255.902 417.993 256.779 414.974Q257.656 411.955 258.602 408.957Q259.549 405.959 260.564 402.983Q261.579 400.008 262.663 397.057Q263.747 394.106 264.9 391.181Q266.051 388.256 267.271 385.359Q268.49 382.461 269.776 379.592Q271.062 376.724 272.415 373.885Q273.767 371.047 275.184 368.241Q276.602 365.435 278.083 362.663Q279.565 359.89 281.111 357.153Q282.657 354.415 284.266 351.714Q285.874 349.013 287.545 346.35Q289.216 343.687 290.947 341.063Q292.679 338.44 294.471 335.857Q296.264 333.274 298.115 330.733Q299.966 328.192 301.876 325.695Q303.786 323.198 305.753 320.745Q307.72 318.293 309.743 315.887Q311.766 313.481 313.844 311.122Q315.923 308.763 318.055 306.453Q320.215 304.104 322.431 301.808Q324.647 299.512 326.918 297.271Q329.189 295.029 331.514 292.844Q333.839 290.658 336.216 288.529Q338.593 286.401 341.021 284.331Q343.45 282.26 345.927 280.25Q348.405 278.239 350.931 276.289Q353.457 274.339 356.029 272.451Q358.602 270.563 361.219 268.738Q363.836 266.913 366.497 265.152Q369.159 263.391 371.861 261.695Q374.564 259.999 377.308 258.369Q380.051 256.739 382.833 255.177Q385.615 253.614 388.435 252.119Q391.254 250.624 394.108 249.199Q396.963 247.773 399.851 246.417Q402.74 245.06 405.66 243.775Q408.581 242.489 411.532 241.275Q414.482 240.06 417.462 238.918Q420.441 237.776 423.448 236.706Q426.454 235.636 429.485 234.64Q432.517 233.643 435.571 232.721Q438.626 231.798 441.702 230.95Q444.778 230.102 447.874 229.329Q450.97 228.555 454.084 227.858Q457.197 227.16 460.327 226.538Q463.457 225.916 466.601 225.37Q469.745 224.824 472.901 224.354Q476.057 223.885 479.224 223.492Q482.391 223.1 485.566 222.784Q488.741 222.468 491.923 222.23Q495.105 221.991 498.292 221.83Z"/>
		<path fill="#C43E25" transform="matrix(0.999384 0 0 0.999756 -107.535 -108.888)" d="M510.67 396.844C513.99 396.942 517.163 397.806 520.389 397.964C528.604 400.8 534.99 407.214 538.722 414.971C538.932 415.408 539.118 415.855 539.306 416.302C540.466 421.66 540.967 427.145 541.121 432.62C539.946 436.824 538.809 441.601 536.581 445.397C534.793 447.266 533.133 449.252 531.45 451.216C528.345 453.457 525.289 455.218 521.758 456.718C514.691 458.504 508.94 457.907 501.897 456.426C498.204 455.093 495.189 453.119 492.086 450.765C490.96 449.333 489.675 448.111 488.366 446.847C486.288 443.975 484.634 440.673 482.894 437.583C481.342 432.444 481.688 425.678 482.414 420.405C482.799 418.839 483.352 417.238 483.982 415.752C487.429 407.626 494.389 401.809 502.401 398.541L510.67 396.844Z"/>
		<path fill="#E5AC7E" transform="matrix(0.999384 0 0 0.999756 -107.535 -108.888)" d="M509.409 405.998C511.485 406.025 514.211 406.17 516.107 407.084C517.572 407.79 518.739 409.008 519.186 410.594C519.643 412.219 519.219 413.971 518.445 415.426C516.615 418.865 513.241 420.882 509.631 422.036C508.378 422.645 505.761 422.894 504.372 422.583C502.901 422.253 501.898 421.454 501.204 420.112C500.274 418.312 500.377 416.029 500.978 414.144C502.412 409.652 505.432 407.903 509.409 405.998Z"/>
		<path fill="#9C291E" transform="matrix(0.999384 0 0 0.999756 -107.535 -108.888)" d="M539.306 416.302C540.466 421.66 540.967 427.145 541.121 432.62C539.946 436.824 538.809 441.601 536.581 445.397C534.793 447.266 533.133 449.252 531.45 451.216C528.345 453.457 525.289 455.218 521.758 456.718C514.691 458.504 508.94 457.907 501.897 456.426C498.204 455.093 495.189 453.119 492.086 450.765C490.96 449.333 489.675 448.111 488.366 446.847C486.288 443.975 484.634 440.673 482.894 437.583C481.342 432.444 481.688 425.678 482.414 420.405C483.079 421.213 482.925 420.96 483.367 421.679C487.194 427.91 490.853 433.939 497.365 437.71Q497.935 438.039 498.52 438.34Q499.105 438.641 499.705 438.912Q500.304 439.184 500.916 439.425Q501.528 439.667 502.152 439.878Q502.775 440.089 503.408 440.268Q504.041 440.448 504.682 440.596Q505.323 440.744 505.971 440.861Q506.618 440.977 507.271 441.061Q507.924 441.145 508.58 441.197Q509.236 441.249 509.893 441.268Q510.551 441.287 511.209 441.274Q511.867 441.26 512.523 441.214Q513.18 441.168 513.833 441.09Q514.486 441.012 515.135 440.901Q515.784 440.79 516.426 440.648Q517.068 440.505 517.703 440.331C530.892 436.729 533.158 427.009 539.067 416.711L539.306 416.302Z"/>
		<path fill="#64BCA5" transform="matrix(0.999384 0 0 0.999756 -107.535 -108.888)" d="M282.958 484.47C286.295 477.434 290.535 471.317 296.927 466.731C306.342 459.978 317.896 457.873 329.237 459.76C343.667 462.161 353.355 471.024 361.544 482.539C364.916 479.742 368.36 477.479 372.52 476.015C383.619 472.107 393.322 474.895 403.51 479.793C397.727 487.579 390.952 494.936 384.542 502.218C379.401 508.058 374.271 514.372 368.548 519.638C356.252 519.111 343.565 519.93 331.221 519.945L244.994 520.006L221.881 520.024C220.095 518.672 218.594 516.864 218.243 514.596C217.822 511.879 219.046 509.497 220.709 507.435C226.301 500.504 233.491 497.697 242.093 496.649C243.183 494.114 244.612 491.779 246.003 489.402C248.544 487.111 251.268 485.206 254.363 483.747C264.192 479.111 273.156 480.936 282.958 484.47Z"/>
		<path fill="#F2ECD9" transform="matrix(0.999384 0 0 0.999756 -107.535 -108.888)" d="M498.292 221.83Q501.411 203.541 504.073 185.18C505.116 178.057 505.589 170.361 507.447 163.445C508.066 161.141 509.031 157.848 510.919 156.234C511.782 155.497 512.004 155.56 513.062 155.639C515.34 157.493 515.978 160.43 516.703 163.147C517.091 165.891 516.962 168.599 517.232 171.343C518.003 179.17 518.862 186.95 519.443 194.796C520.008 202.425 520.263 210.152 521.322 217.729L521.743 220.128C520.668 225.612 522.419 237.799 522.828 243.772Q525.16 276.888 528.213 309.944C529.196 321.353 530.869 333.151 530.849 344.583C530.824 358.956 526.288 373.582 522.915 387.487C522.085 390.905 520.94 394.5 520.389 397.964C517.163 397.806 513.99 396.942 510.67 396.844L502.401 398.541C501.131 394.989 498.988 391.401 497.285 388.014C491.332 376.175 481.186 359.024 477.991 346.608C476.396 340.41 481.09 320.322 482.344 313.071L492.053 256.979C494.129 245.593 496.964 233.912 498.231 222.432L498.292 221.83Z"/>
		<defs>
			<linearGradient id="gradient_1" gradientUnits="userSpaceOnUse" x1="511.05081" y1="286.52765" x2="531.88062" y2="287.30618">
				<stop offset="0" stop-color="#717A50"/>
				<stop offset="1" stop-color="#919662"/>
			</linearGradient>
		</defs>
		<path fill="url(#gradient_1)" transform="matrix(0.999384 0 0 0.999756 -107.535 -108.888)" d="M516.703 163.147C517.091 165.891 516.962 168.599 517.232 171.343C518.003 179.17 518.862 186.95 519.443 194.796C520.008 202.425 520.263 210.152 521.322 217.729L521.743 220.128C520.668 225.612 522.419 237.799 522.828 243.772Q525.16 276.888 528.213 309.944C529.196 321.353 530.869 333.151 530.849 344.583C530.824 358.956 526.288 373.582 522.915 387.487C522.085 390.905 520.94 394.5 520.389 397.964C517.163 397.806 513.99 396.942 510.67 396.844C511.658 378.316 511.393 359.66 511.311 341.115Q511.24 305.177 511.676 269.243Q512.093 236.743 513.837 204.286C514.645 190.648 516.619 176.768 516.703 163.147Z"/>
		<path fill="#187959" transform="matrix(0.999384 0 0 0.999756 -107.535 -108.888)" d="M482.894 437.583C484.634 440.673 486.288 443.975 488.366 446.847C489.675 448.111 490.96 449.333 492.086 450.765C495.189 453.119 498.204 455.093 501.897 456.426C500.016 462.373 499.904 467.918 500.019 474.106Q499.414 483.476 499.266 492.865L489.979 748.752C480.525 743.013 473.178 733.632 465.004 726.239Q445.126 708.549 424.097 692.243C392.336 667.634 358.38 644.587 322.482 626.45Q309.878 620.137 296.989 614.428C289.331 611.1 281.534 608.142 274.068 604.384C265.936 586.861 258.015 569.192 252.421 550.665C249.374 540.574 247.21 530.302 244.994 520.006L331.221 519.945C343.565 519.93 356.252 519.111 368.548 519.638C374.271 514.372 379.401 508.058 384.542 502.218C390.952 494.936 397.727 487.579 403.51 479.793C407.795 475.05 411.995 469.98 416.721 465.688C428.24 455.227 444.139 451.637 458.513 446.709C466.732 443.891 474.57 440.108 482.894 437.583Z"/>
		<path fill="#0F654B" transform="matrix(0.999384 0 0 0.999756 -107.535 -108.888)" d="M492.086 450.765C495.189 453.119 498.204 455.093 501.897 456.426C500.016 462.373 499.904 467.918 500.019 474.106Q499.414 483.476 499.266 492.865C489.577 498.93 481.672 507.008 472.656 513.928Q433.904 543.182 395.688 573.132L366.225 596.475C360.583 600.919 354.748 606.012 348.595 609.717C346.347 611.071 342.908 612.893 340.199 611.979C338.958 611.56 338.106 610.669 337.694 609.43C336.877 606.974 337.917 604.243 339.228 602.17C342.313 597.294 348.338 593.237 352.428 589.096C359.666 581.768 391.912 548.032 394.819 540.574C403.692 533.204 413.544 524.462 423.827 519.204C432.202 511.353 442.994 505.337 452.124 498.268C457.214 494.639 462.654 491.108 467.221 486.828C477.473 477.219 484.882 462.791 492.086 450.765Z"/>
		<path fill="#64BCA5" transform="matrix(0.999384 0 0 0.999756 -107.535 -108.888)" d="M423.827 519.204C432.202 511.353 442.994 505.337 452.124 498.268C454.306 502.754 458.292 509.56 456.331 514.644C455.541 516.693 453.836 518.023 451.818 518.765C445.731 521.005 430.445 520.101 423.827 519.204Z"/>
		<path fill="#F2ECD9" transform="matrix(0.999384 0 0 0.999756 -107.535 -108.888)" d="M482.894 437.583C484.634 440.673 486.288 443.975 488.366 446.847C489.675 448.111 490.96 449.333 492.086 450.765C484.882 462.791 477.473 477.219 467.221 486.828C462.654 491.108 457.214 494.639 452.124 498.268C442.994 505.337 432.202 511.353 423.827 519.204C413.544 524.462 403.692 533.204 394.819 540.574C384.632 546.497 375.555 554.332 366.304 561.581Q350.947 573.529 335.329 585.134C331.093 588.293 327.255 592.162 322.756 594.938C320.853 596.112 318.932 597.311 316.619 596.753C315.674 596.525 314.929 596.23 314.075 595.766C312.34 594.184 310.419 592.529 310.277 590.018C310.119 587.227 312.152 584.411 313.683 582.215C319.175 574.341 326.124 567.262 332.516 560.117C344.544 546.671 356.884 533.396 368.548 519.638C374.271 514.372 379.401 508.058 384.542 502.218C390.952 494.936 397.727 487.579 403.51 479.793C407.795 475.05 411.995 469.98 416.721 465.688C428.24 455.227 444.139 451.637 458.513 446.709C466.732 443.891 474.57 440.108 482.894 437.583Z"/>
		<path fill="#887D52" transform="matrix(0.999384 0 0 0.999756 -107.535 -108.888)" d="M488.366 446.847C489.675 448.111 490.96 449.333 492.086 450.765C484.882 462.791 477.473 477.219 467.221 486.828C462.654 491.108 457.214 494.639 452.124 498.268C442.994 505.337 432.202 511.353 423.827 519.204C413.544 524.462 403.692 533.204 394.819 540.574C384.632 546.497 375.555 554.332 366.304 561.581Q350.947 573.529 335.329 585.134C331.093 588.293 327.255 592.162 322.756 594.938C320.853 596.112 318.932 597.311 316.619 596.753C315.674 596.525 314.929 596.23 314.075 595.766C320.555 589.668 327.51 584.058 333.979 577.924C350.884 561.894 367.137 545.346 384.742 530.059C404.553 512.856 425.391 496.991 445.868 480.606C459.95 469.338 473.748 457.404 488.366 446.847Z"/>
		<path fill="#C43E25" transform="matrix(0.999384 0 0 0.999756 -107.535 -108.888)" d="M113.367 570.015L114.202 570.156C123.976 571.76 134.135 571.754 144 572.873Q175.21 576.404 205.788 583.584Q227.952 588.792 249.587 595.883C256.986 598.339 266.842 603.245 274.068 604.384C281.534 608.142 289.331 611.1 296.989 614.428Q309.878 620.137 322.482 626.45C358.38 644.587 392.336 667.634 424.097 692.243Q445.126 708.549 465.004 726.239C473.178 733.632 480.525 743.013 489.979 748.752C489.731 756.545 488.998 764.37 489.006 772.162C488.965 792.347 486.818 812.452 486.972 832.704C488.582 832.691 489.734 832.553 491.276 832.095C508.207 831.44 523.944 825.487 539.123 818.388C538.707 811.155 535.968 763.414 536.718 760.854L538.377 760.251C547.159 759.559 556.163 758.502 564.653 756.101L567.925 755.328C576.689 753.786 585.165 750.921 593.538 747.974Q598.881 746.128 604.15 744.077Q609.418 742.027 614.604 739.775Q619.79 737.523 624.885 735.073Q629.98 732.624 634.977 729.98Q639.974 727.336 644.865 724.501Q649.757 721.667 654.536 718.646Q659.315 715.626 663.974 712.423Q668.633 709.221 673.165 705.842C680.269 700.602 686.473 694.25 693.452 688.847C706.441 684.328 718.944 677.066 731.187 670.805Q756.808 657.785 782.687 645.284C822.596 626.345 864.717 611.23 906.334 596.555C902.455 612.737 898.377 628.704 893.018 644.481Q890.094 652.96 886.791 661.298Q883.488 669.636 879.813 677.818Q876.138 685.999 872.098 694.006Q868.059 702.014 863.663 709.831Q859.267 717.649 854.523 725.261Q849.78 732.873 844.699 740.263Q839.618 747.654 834.209 754.808Q828.8 761.962 823.075 768.866C815.578 777.965 807.759 788.858 798.399 796.055Q785.087 808.614 770.942 820.227Q756.796 831.84 741.885 842.452Q737.864 845.225 733.777 847.9Q729.69 850.575 725.539 853.15Q721.389 855.725 717.177 858.198Q712.965 860.672 708.695 863.043Q704.424 865.414 700.097 867.68Q695.771 869.947 691.39 872.108Q687.01 874.269 682.578 876.323Q678.147 878.378 673.667 880.324Q669.187 882.27 664.661 884.107Q660.135 885.945 655.566 887.672Q650.997 889.398 646.387 891.014Q641.778 892.63 637.131 894.133Q632.483 895.637 627.801 897.027Q623.118 898.418 618.404 899.694Q613.689 900.971 608.944 902.132Q604.2 903.294 599.429 904.341Q594.658 905.387 589.863 906.318Q585.068 907.248 580.252 908.063Q575.436 908.877 570.601 909.574Q565.767 910.271 560.917 910.851Q556.067 911.43 551.204 911.892Q546.341 912.354 541.469 912.699Q536.597 913.042 531.717 913.268Q526.838 913.494 521.955 913.602Q517.072 913.709 512.187 913.698Q507.303 913.688 502.42 913.558Q497.537 913.429 492.659 913.182Q487.781 912.934 482.91 912.568Q478.039 912.203 473.178 911.719Q468.318 911.235 463.471 910.634Q458.623 910.033 453.792 909.314Q448.961 908.595 444.148 907.76Q440.228 907.07 436.322 906.305Q432.416 905.539 428.526 904.697Q424.635 903.855 420.762 902.938Q416.889 902.02 413.035 901.027Q409.18 900.035 405.346 898.967Q401.511 897.9 397.698 896.758Q393.885 895.615 390.095 894.399Q386.305 893.183 382.54 891.894Q378.774 890.604 375.034 889.241Q371.295 887.878 367.582 886.443Q363.87 885.007 360.186 883.5Q356.502 881.993 352.848 880.414Q349.195 878.835 345.572 877.185Q341.95 875.535 338.36 873.815Q334.771 872.095 331.216 870.306Q327.66 868.516 324.141 866.657Q320.621 864.799 317.138 862.872Q313.655 860.945 310.21 858.951Q306.766 856.957 303.36 854.896Q299.955 852.835 296.591 850.708Q293.226 848.582 289.904 846.39Q286.582 844.198 283.303 841.941Q280.024 839.685 276.789 837.365Q273.555 835.046 270.366 832.663Q267.177 830.281 264.036 827.837Q260.894 825.393 257.801 822.888Q254.707 820.384 251.663 817.819Q248.619 815.255 245.625 812.632Q242.632 810.008 239.69 807.327Q236.748 804.646 233.859 801.908Q230.97 799.171 228.135 796.377Q225.299 793.583 222.519 790.735C203.839 771.428 187.828 750.723 172.479 728.742C166.404 720.618 161.601 711.134 156.82 702.217C134.625 660.818 119.497 616.687 113.367 570.015Z"/>
		<defs>
			<linearGradient id="gradient_2" gradientUnits="userSpaceOnUse" x1="407.56604" y1="824.64484" x2="414.0629" y2="763.69">
				<stop offset="0" stop-color="#9F261B"/>
				<stop offset="1" stop-color="#C23928"/>
			</linearGradient>
		</defs>
		<path fill="url(#gradient_2)" transform="matrix(0.999384 0 0 0.999756 -107.535 -108.888)" d="M331.54 781.531C341.103 777.702 351.626 775.777 361.703 773.785C390.59 768.075 420.796 765.347 450.234 767.191C463.154 768 476.233 770.05 489.006 772.162C488.965 792.347 486.818 812.452 486.972 832.704C483.531 832.295 479.918 832.478 476.44 832.343C469.306 832.067 462.144 831.584 455.089 830.459C414.964 824.065 366.572 801.982 331.54 781.531Z"/>
		<path fill="#9C291E" transform="matrix(0.999384 0 0 0.999756 -107.535 -108.888)" d="M693.452 688.847C706.441 684.328 718.944 677.066 731.187 670.805Q756.808 657.785 782.687 645.284C822.596 626.345 864.717 611.23 906.334 596.555C902.455 612.737 898.377 628.704 893.018 644.481Q890.094 652.96 886.791 661.298Q883.488 669.636 879.813 677.818Q876.138 685.999 872.098 694.006Q868.059 702.014 863.663 709.831Q859.267 717.649 854.523 725.261Q849.78 732.873 844.699 740.263Q839.618 747.654 834.209 754.808Q828.8 761.962 823.075 768.866C815.578 777.965 807.759 788.858 798.399 796.055C791.802 795.247 783.472 798.955 776.973 800.348C769.554 801.938 761.501 802.561 753.943 801.776C735.493 799.858 718.112 793.639 700.205 789.228C653.481 777.719 609.947 783.893 567.023 805.101C558.129 810.267 548.565 814.343 539.123 818.388C538.707 811.155 535.968 763.414 536.718 760.854L538.377 760.251C547.159 759.559 556.163 758.502 564.653 756.101L567.925 755.328C576.689 753.786 585.165 750.921 593.538 747.974Q598.881 746.128 604.15 744.077Q609.418 742.027 614.604 739.775Q619.79 737.523 624.885 735.073Q629.98 732.624 634.977 729.98Q639.974 727.336 644.865 724.501Q649.757 721.667 654.536 718.646Q659.315 715.626 663.974 712.423Q668.633 709.221 673.165 705.842C680.269 700.602 686.473 694.25 693.452 688.847Z"/>
		<path fill="#9C291E" transform="matrix(0.999384 0 0 0.999756 -107.535 -108.888)" d="M113.367 570.015L114.202 570.156C123.976 571.76 134.135 571.754 144 572.873Q175.21 576.404 205.788 583.584Q227.952 588.792 249.587 595.883C256.986 598.339 266.842 603.245 274.068 604.384C281.534 608.142 289.331 611.1 296.989 614.428Q309.878 620.137 322.482 626.45C358.38 644.587 392.336 667.634 424.097 692.243Q445.126 708.549 465.004 726.239C473.178 733.632 480.525 743.013 489.979 748.752C489.731 756.545 488.998 764.37 489.006 772.162C476.233 770.05 463.154 768 450.234 767.191C420.796 765.347 390.59 768.075 361.703 773.785C351.626 775.777 341.103 777.702 331.54 781.531C325.644 779.2 319.978 775.71 314.373 772.731Q301.537 765.874 288.221 760.003Q278.9 755.957 269.388 752.38Q259.877 748.803 250.2 745.704Q240.522 742.604 230.702 739.991Q220.883 737.377 210.945 735.256C202.334 733.501 193.656 731.789 184.977 730.408C181.012 729.777 177.001 729.586 173.059 728.854L172.479 728.742C166.404 720.618 161.601 711.134 156.82 702.217C134.625 660.818 119.497 616.687 113.367 570.015Z"/>
		<defs>
			<linearGradient id="gradient_3" gradientUnits="userSpaceOnUse" x1="536.76111" y1="745.77277" x2="683.8963" y2="261.25461">
				<stop offset="0" stop-color="#0E725A"/>
				<stop offset="1" stop-color="#2E9061"/>
			</linearGradient>
		</defs>
		<path fill="url(#gradient_3)" transform="matrix(0.999384 0 0 0.999756 -107.535 -108.888)" d="M521.743 220.128C521.99 220.367 522.165 220.718 522.484 220.846C524.051 221.476 548.367 223.224 552.589 223.833C560.94 225.384 569.359 226.656 577.628 228.617C608.344 235.901 635.999 249.397 662.004 267.058C662.146 266.989 662.285 266.912 662.43 266.85C679.169 259.717 697.832 261.584 714.497 267.749C718.302 262.812 721.172 257.236 725.14 252.332C740.68 233.13 763.243 224.718 787.205 222.31C791.606 225.926 795.593 230.205 799.611 234.236C821.341 256.037 839.463 279.747 855.74 305.861C861.605 315.27 867.482 324.804 872.044 334.928C878.206 348.279 884.596 361.633 889.578 375.481C914.111 443.684 921.715 525.488 906.334 596.555C864.717 611.23 822.596 626.345 782.687 645.284Q756.808 657.785 731.187 670.805C718.944 677.066 706.441 684.328 693.452 688.847C686.473 694.25 680.269 700.602 673.165 705.842Q668.633 709.221 663.974 712.423Q659.315 715.626 654.536 718.646Q649.757 721.667 644.865 724.501Q639.974 727.336 634.977 729.98Q629.98 732.624 624.885 735.073Q619.79 737.523 614.604 739.775Q609.418 742.027 604.15 744.077Q598.881 746.128 593.538 747.974C585.165 750.921 576.689 753.786 567.925 755.328L564.653 756.101C556.163 758.502 547.159 759.559 538.377 760.251L536.718 760.854C535.968 763.414 538.707 811.155 539.123 818.388C523.944 825.487 508.207 831.44 491.276 832.095C489.734 832.553 488.582 832.691 486.972 832.704C486.818 812.452 488.965 792.347 489.006 772.162C488.998 764.37 489.731 756.545 489.979 748.752L499.266 492.865Q499.414 483.476 500.019 474.106C499.904 467.918 500.016 462.373 501.897 456.426C508.94 457.907 514.691 458.504 521.758 456.718C525.289 455.218 528.345 453.457 531.45 451.216C533.133 449.252 534.793 447.266 536.581 445.397C538.809 441.601 539.946 436.824 541.121 432.62C540.967 427.145 540.466 421.66 539.306 416.302C539.118 415.855 538.932 415.408 538.722 414.971C534.99 407.214 528.604 400.8 520.389 397.964C520.94 394.5 522.085 390.905 522.915 387.487C526.288 373.582 530.824 358.956 530.849 344.583C530.869 333.151 529.196 321.353 528.213 309.944Q525.16 276.888 522.828 243.772C522.419 237.799 520.668 225.612 521.743 220.128Z"/>
		<defs>
			<linearGradient id="gradient_4" gradientUnits="userSpaceOnUse" x1="610.45526" y1="528.76001" x2="638.15747" y2="482.34988">
				<stop offset="0" stop-color="#C6C486"/>
				<stop offset="1" stop-color="#E1DCBA"/>
			</linearGradient>
		</defs>
		<path fill="url(#gradient_4)" transform="matrix(0.999384 0 0 0.999756 -107.535 -108.888)" d="M541.121 432.62C551.112 436.313 560.928 440.492 570.779 444.54C578.772 447.825 587.73 450.556 594.798 455.635C603.516 461.901 610.464 471.838 617.597 479.809L659.296 526.734C669.379 538.243 680.307 548.88 690.038 560.757C694.743 566.498 700.001 572.656 702.999 579.499C703.914 581.59 704.44 583.671 704.498 585.952C704.329 586.24 704.07 586.713 703.851 586.95C703.296 587.55 703.022 587.675 702.225 587.594C699.927 587.36 697.289 585.669 695.344 584.45C687.036 579.241 679.075 573.26 671.003 567.681Q650.846 553.746 630.524 540.054L588.27 510.983C580.516 505.623 572.417 500.504 565.013 494.679C559.981 490.721 555.999 486.165 552.083 481.122C545.455 470.98 538.293 461.211 531.45 451.216C533.133 449.252 534.793 447.266 536.581 445.397C538.809 441.601 539.946 436.824 541.121 432.62Z"/>
		<path fill="#887D52" transform="matrix(0.999384 0 0 0.999756 -107.535 -108.888)" d="M531.45 451.216C533.133 449.252 534.793 447.266 536.581 445.397Q589.589 487.862 640.909 532.353L681.459 567.211C688.331 573.114 696.587 581.787 704.498 585.952C704.329 586.24 704.07 586.713 703.851 586.95C703.296 587.55 703.022 587.675 702.225 587.594C699.927 587.36 697.289 585.669 695.344 584.45C687.036 579.241 679.075 573.26 671.003 567.681Q650.846 553.746 630.524 540.054L588.27 510.983C580.516 505.623 572.417 500.504 565.013 494.679C559.981 490.721 555.999 486.165 552.083 481.122C545.455 470.98 538.293 461.211 531.45 451.216Z"/>
		<path fill="#0F654B" transform="matrix(0.999384 0 0 0.999756 -107.535 -108.888)" d="M521.758 456.718C525.289 455.218 528.345 453.457 531.45 451.216C538.293 461.211 545.455 470.98 552.083 481.122C549.964 492.034 551.897 504.711 552.603 515.811Q553.277 526.994 553.682 538.19Q556.443 612.003 560.533 685.754L563.218 735.22C563.607 742.049 564.792 749.304 564.653 756.101C556.163 758.502 547.159 759.559 538.377 760.251C537.805 760.245 537.283 760.047 536.734 759.895C535.927 758.502 535.908 756.83 535.791 755.255C535.104 745.942 534.983 736.502 534.551 727.165L531.855 670.171L521.758 456.718Z"/>
		<defs>
			<linearGradient id="gradient_5" gradientUnits="userSpaceOnUse" x1="530.02472" y1="642.3515" x2="490.58719" y2="644.30212">
				<stop offset="0" stop-color="#556E3A"/>
				<stop offset="1" stop-color="#6BBE6D"/>
			</linearGradient>
		</defs>
		<path fill="url(#gradient_5)" transform="matrix(0.999384 0 0 0.999756 -107.535 -108.888)" d="M501.897 456.426C508.94 457.907 514.691 458.504 521.758 456.718L531.855 670.171L534.551 727.165C534.983 736.502 535.104 745.942 535.791 755.255C535.908 756.83 535.927 758.502 536.734 759.895C537.283 760.047 537.805 760.245 538.377 760.251L536.718 760.854C535.968 763.414 538.707 811.155 539.123 818.388C523.944 825.487 508.207 831.44 491.276 832.095C489.734 832.553 488.582 832.691 486.972 832.704C486.818 812.452 488.965 792.347 489.006 772.162C488.998 764.37 489.731 756.545 489.979 748.752L499.266 492.865Q499.414 483.476 500.019 474.106C499.904 467.918 500.016 462.373 501.897 456.426Z"/>
		<path fill="#7AB86E" transform="matrix(0.999384 0 0 0.999756 -107.535 -108.888)" d="M500.019 474.106Q505.986 474.443 511.944 474.905C509.404 491.651 511.147 502.837 512.204 519.353C512.804 528.724 512.923 538.177 512.885 547.567C512.833 560.102 512.786 572.979 511.932 585.493C511.603 590.299 510.249 595.032 510.031 599.824C509.719 606.661 509.961 613.577 509.836 620.426L509.017 670.173C508.734 694.535 508.624 718.867 507.801 743.223C507.393 755.302 506.444 767.357 505.978 779.432C505.577 789.828 507.057 803.171 505.397 813.082C504.609 817.786 502.18 821.855 498.24 824.612C498.017 824.768 497.788 824.916 497.562 825.068L497.506 825.506Q498.466 825.194 499.429 824.893C500.246 826.256 500.903 828.398 500.495 829.974C500.46 830.111 500.391 830.236 500.339 830.367C498.162 830.601 493.06 830.559 491.477 831.836C491.392 831.905 491.343 832.009 491.276 832.095C489.734 832.553 488.582 832.691 486.972 832.704C486.818 812.452 488.965 792.347 489.006 772.162C488.998 764.37 489.731 756.545 489.979 748.752L499.266 492.865Q499.414 483.476 500.019 474.106Z"/>
		<defs>
			<linearGradient id="gradient_6" gradientUnits="userSpaceOnUse" x1="739.79187" y1="364.74023" x2="710.26971" y2="239.69167">
				<stop offset="0" stop-color="#4CA696"/>
				<stop offset="1" stop-color="#73C3B1"/>
			</linearGradient>
		</defs>
		<path fill="url(#gradient_6)" transform="matrix(0.999384 0 0 0.999756 -107.535 -108.888)" d="M787.205 222.31C791.606 225.926 795.593 230.205 799.611 234.236C821.341 256.037 839.463 279.747 855.74 305.861C861.605 315.27 867.482 324.804 872.044 334.928C859.573 336.18 846.648 335.524 834.112 335.521C807.479 335.515 780.734 334.97 754.113 335.581C743.322 334.899 732.122 335.482 721.295 335.5L647.177 335.933C634.978 335.957 620.119 336.841 608.191 334.999C603.7 334.305 598.626 332.473 595.288 329.336C593.06 327.242 591.664 324.474 591.652 321.385C591.636 317.145 594.144 313.357 596.985 310.417C606.504 300.566 620.077 297.046 633.293 296.845C640.731 283.782 649.113 274.779 662.004 267.058C662.146 266.989 662.285 266.912 662.43 266.85C679.169 259.717 697.832 261.584 714.497 267.749C718.302 262.812 721.172 257.236 725.14 252.332C740.68 233.13 763.243 224.718 787.205 222.31Z"/>
		<path fill="#094143" transform="matrix(0.999384 0 0 0.999756 -107.535 -108.888)" d="M754.113 335.581C780.734 334.97 807.479 335.515 834.112 335.521C846.648 335.524 859.573 336.18 872.044 334.928C878.206 348.279 884.596 361.633 889.578 375.481C914.111 443.684 921.715 525.488 906.334 596.555C864.717 611.23 822.596 626.345 782.687 645.284Q756.808 657.785 731.187 670.805C718.944 677.066 706.441 684.328 693.452 688.847C696.458 684.403 700.964 680.571 704.586 676.601C711.548 668.967 718.35 661.088 724.544 652.815C755.71 611.191 773.34 555.574 776.333 503.941C778.93 459.152 769.911 416.262 751.25 375.539C744.918 361.723 737.18 347.338 727.055 335.947C735.894 335.988 745.337 336.654 754.113 335.581Z"/>
	</g>
</svg>
