<?xml version="1.0" encoding="utf-8" ?>
<svg xmlns="http://www.w3.org/2000/svg" xmlns:xlink="http://www.w3.org/1999/xlink" width="700" height="700">
	<path fill="#186B56" d="M0 0L334.456 0L365.295 0L700 0L700 333.321L700 367.035L700 700L367.394 700L364.983 700L333.389 700L0 700L0 366.557L0 334.366L0 0ZM11.895 340.246L11.3607 339.584C9.52218 339.588 7.54396 340.267 6.22761 341.586C4.2543 336.1 2.62001 330.503 0.951964 324.918C0.682093 327.908 0.764159 331.479 0 334.366L0 366.557L0 700L333.389 700C326.932 698.474 318.597 698.964 311.821 698.164Q298.252 696.656 284.835 694.128Q271.419 691.601 258.231 688.067C254.315 686.983 250.327 686.062 246.521 684.623C242.466 683.375 238.314 682.117 234.393 680.496C235.06 680.543 234.788 680.5 235.389 680.625C237.334 681.027 239.271 681.202 241.162 680.397C242.165 679.97 242.825 679.192 243.131 678.158C243.586 676.621 237.436 670.579 236.388 669.27Q234.806 667.27 233.651 664.996C225.953 649.735 235.902 642.312 240.124 628.815C240.169 628.67 240.211 628.524 240.255 628.379Q239.678 626.849 239.174 625.293C238.572 623.383 237.888 621.06 238.941 619.185C239.289 618.565 239.287 618.418 240 618.239C241.408 619.2 242.151 620.823 243.551 621.754C244.491 622.379 245.548 622.523 246.627 622.236C249.294 621.526 252.292 618.565 253.558 616.204L252.815 616.166C252.068 617.624 250.218 619.296 248.973 620.376C247.96 621.255 245.894 621.7 244.572 621.56C244.089 621.07 243.947 621.028 244.062 620.285C244.3 618.739 245.427 617.023 245.983 615.53C247.605 611.17 247.707 606.313 247.369 601.716C247.269 600.365 245.699 592.502 244.977 591.55C244.597 591.05 243.778 590.526 243.283 590.103C243.928 588.482 245.234 587.075 246.292 585.698C242.878 583.018 246.293 581.144 243.351 577.975C240.795 575.221 234.32 572.304 233.104 569.147C232.914 568.654 232.763 568.149 232.442 567.717C231.702 566.723 230.451 566.379 229.287 566.273C228.193 566.669 228.088 566.877 227.392 567.757C226.056 567.626 224.904 564.018 222.84 563.588C222.437 563.793 222.033 564.001 221.62 564.185C221.218 564.364 220.588 564.59 220.141 564.495C218.042 564.052 212.262 557.172 208.359 555.754C208.246 555.989 208.084 556.335 207.953 556.549C206.694 558.608 202.502 555.808 200.403 555.616C198.682 555.458 197.028 557.528 195.388 557.604C193.069 557.711 191.165 555.637 188.5 556.431C185.981 557.183 186.752 559.37 185.366 560.787C184.788 561.378 184.386 561.23 183.633 561.282C179.291 552.576 174.771 554.625 167.433 550.527C163.53 548.347 160.238 545.033 157.275 541.733Q148.289 531.898 140.8 520.88C131.042 506.657 123.293 490.809 130.187 473.585C134.308 463.287 138.272 459.521 138.928 447.639C138.653 447.308 138.346 447.138 137.971 446.921C134.699 445.019 132.028 441.402 128.628 439.944L128.101 440.557C128.366 441.078 128.394 441.22 128.426 441.776L127.858 442.12C125.97 441.93 124.145 441.059 122.381 440.389C109.866 434.675 107.35 425.228 99.079 416.24C95.9559 412.847 91.7437 410.636 88.0833 407.889C84.4839 405.188 81.193 401.938 77.272 399.698C69.7021 395.373 60.4098 395.036 52.3724 391.766Q50.333 390.96 48.3998 389.924Q46.4667 388.888 44.6655 387.637Q42.8642 386.386 41.2189 384.936Q39.5735 383.487 38.1058 381.857C37.285 379.913 35.9257 378.069 35.039 376.092C32.6366 370.738 30.552 365.185 28.457 359.704C23.7931 347.502 20.0014 334.963 14.1894 323.207C13.1091 328.862 11.8049 334.46 11.895 340.246ZM0 0L0 334.366C0.764159 331.479 0.682093 327.908 0.951964 324.918C0.940614 324.62 0.934992 324.322 0.940762 324.024C1.10934 315.323 2.47459 306.529 3.72932 297.931Q4.41844 293.273 5.23352 288.635Q6.04859 283.997 6.98902 279.384Q7.92945 274.77 8.99454 270.183Q10.0596 265.596 11.2486 261.04Q12.4376 256.484 13.7496 251.961Q15.0616 247.439 16.4956 242.954Q17.9296 238.469 19.4846 234.024Q21.0397 229.579 22.7145 225.178Q24.3894 220.778 26.1829 216.424Q27.9764 212.07 29.8872 207.766Q31.798 203.462 33.8247 199.212Q35.8514 194.962 37.9925 190.768Q40.1337 186.574 42.3876 182.44Q44.6416 178.305 47.0067 174.234Q49.3719 170.162 51.8465 166.156Q54.3211 162.15 56.9033 158.212C60.7715 152.393 65.8053 143.449 70.8332 138.725L72.1535 136.905Q72.5022 136.359 72.8667 135.823C80.8496 124.022 91.2139 113.678 101.242 103.642Q103.358 101.481 105.513 99.3581Q107.667 97.235 109.858 95.1499Q112.049 93.0648 114.276 91.0185Q116.503 88.9723 118.766 86.9654Q121.029 84.9585 123.327 82.9916Q125.624 81.0247 127.956 79.0985Q130.288 77.1722 132.653 75.2872Q135.019 73.4022 137.417 71.559Q139.815 69.7158 142.245 67.9149Q144.675 66.114 147.136 64.3561Q149.597 62.5982 152.089 60.8837Q154.581 59.1692 157.102 57.4987Q159.623 55.8282 162.174 54.2023Q164.724 52.5763 167.303 50.9953Q169.881 49.4143 172.487 47.8789Q175.093 46.3434 177.725 44.8539Q180.357 43.3644 183.015 41.9213Q185.674 40.4782 188.357 39.082Q191.04 37.6857 193.747 36.3368Q196.454 34.9879 199.184 33.6867Q201.915 32.3855 204.667 31.1324Q207.42 29.8793 210.194 28.6747Q212.969 27.4701 215.764 26.3144Q218.559 25.1587 221.374 24.0522Q224.189 22.9457 227.023 21.8888Q229.856 20.8319 232.708 19.8248Q235.56 18.8178 238.43 17.861Q241.299 16.9042 244.185 15.9979Q247.07 15.0915 249.971 14.236Q252.872 13.3804 255.788 12.5759Q258.703 11.7714 261.633 11.0182Q264.562 10.265 267.504 9.56334Q290.369 4.1735 313.722 1.62389C320.407 0.891729 327.525 1.38201 334.101 0.0752526C334.22 0.0517321 334.338 0.0250842 334.456 0L0 0ZM700 367.035C698.813 372.959 698.953 379.504 698.444 385.542C698.064 390.06 697.204 394.549 696.854 399.06C696.518 401.268 696.139 403.443 695.657 405.624C695.472 410.236 694.272 414.977 693.354 419.49C691.949 426.39 690.579 433.4 688.495 440.132C686.293 447.4 684.623 454.797 681.852 461.895C677.196 477.109 670.779 492.01 663.649 506.221C661.766 509.975 659.997 513.932 657.789 517.5C656.218 520.645 646.417 537.94 644.554 539.425C640.441 546.341 635.286 554.395 629.993 560.477C628.045 562.971 626.061 565.446 624.186 567.996C620.391 572.949 616.337 578.227 611.792 582.511C609.11 586.912 598.469 596.615 594.305 600.799C551.258 644.045 493.426 675.621 434.218 690.053Q411.51 695.535 388.305 698.223C381.817 698.986 373.451 698.485 367.394 700L700 700L700 367.035ZM365.295 0C365.417 0.0263436 365.539 0.0543272 365.661 0.0790307C372.253 1.41173 379.303 0.788981 385.986 1.54657Q409.302 4.10406 432.139 9.45438Q436.898 10.6038 441.623 11.8851Q446.348 13.1665 451.035 14.5789Q455.723 15.9913 460.369 17.5337Q465.016 19.076 469.617 20.747Q474.219 22.4181 478.772 24.2166Q483.326 26.0151 487.827 27.9396Q492.329 29.8642 496.775 31.9132Q501.221 33.9623 505.609 36.1344Q509.996 38.3064 514.321 40.5998Q518.647 42.8931 522.906 45.3059Q527.166 47.7188 531.357 50.2492Q535.548 52.7797 539.667 55.4258Q543.786 58.072 547.83 60.8317Q551.873 63.5915 555.839 66.4627Q559.804 69.334 563.688 72.3145Q567.572 75.295 571.371 78.3824C581.323 86.5191 590.429 95.2767 599.5 104.365C611.39 116.277 623.528 129.287 632.889 143.321C632.935 143.39 632.978 143.46 633.023 143.53C636.433 147.934 639.452 152.669 642.544 157.298Q646.295 162.959 649.821 168.763Q653.347 174.566 656.642 180.504Q659.938 186.442 662.997 192.504Q666.057 198.567 668.876 204.745Q671.695 210.923 674.27 217.207Q676.844 223.491 679.169 229.871Q681.495 236.252 683.568 242.718Q685.641 249.185 687.459 255.728C688.752 260.381 691.611 268.659 691.743 273.202C694.447 283.722 699.019 308.637 698.707 319.111C699.17 323.749 699.014 328.788 700 333.321L700 0L365.295 0Z"/>
	<path fill="#84C7A2" d="M133.389 98.5166L133.871 99.1333C134.145 99.0089 134.502 98.8766 134.757 98.7217C135.598 100.416 136.361 101.847 136.558 103.76C136.564 103.819 136.576 103.877 136.584 103.935C136.284 103.95 135.86 103.978 135.57 103.963C134.66 103.917 134.259 103.8 133.671 103.06C132.734 101.882 133.09 99.8676 133.389 98.5166Z"/>
	<path fill="#CEDDCF" d="M379.733 151.076C380.898 151.458 382.496 152.237 383.71 151.928L384.091 151.458C384.458 152.18 384.655 152.731 384.353 153.545C383.999 154.502 383.008 155.274 382.089 155.675C381.393 155.979 380.519 156.038 379.77 156.13C379.927 154.437 379.819 152.769 379.733 151.076Z"/>
	<path fill="#CEDDCF" d="M376.125 143.195C378.969 145.493 382.266 148.251 384.091 151.458L383.71 151.928C382.496 152.237 380.898 151.458 379.733 151.076C378.82 148.37 377.224 145.853 376.125 143.195Z"/>
	<path fill="#CEDDCF" d="M273.688 115.306L274.23 115.432C274.387 117.365 273.996 119.412 274.034 121.381C274.093 124.404 275.294 127.468 276.097 130.373C276.431 131.581 277.394 133.861 276.793 134.937C273.921 130.464 272.477 122.944 271.272 117.677C272.033 116.846 272.872 116.084 273.688 115.306Z"/>
	<path fill="#F9F6F6" d="M133.389 98.5166C133.56 98.1482 133.526 98.1983 133.783 97.7813C135.336 95.2645 138.357 93.6969 141.167 93.0794C143.673 92.5286 147.771 92.3897 150.112 93.6045C151.051 94.0915 151.753 94.9683 152.652 95.5327C152.756 95.5982 152.866 95.6547 152.973 95.7158C153.35 96.917 153.657 97.6134 153.131 98.8296C150.623 96.8349 149.388 95.1424 145.961 94.5808C141.83 93.9034 137.915 96.3476 134.757 98.7217C134.502 98.8766 134.145 99.0089 133.871 99.1333L133.389 98.5166Z"/>
	<path fill="#186B56" d="M256.154 249.336C255.602 246.912 252.602 243.676 253.027 241.33L253.468 241.362C254.894 246.73 265.898 255.182 264.477 260.811C263.942 261.404 263.584 261.764 262.739 261.815C261.473 261.891 259.961 261.751 258.726 261.521L261.848 261.395C261.997 260.659 261.913 260.39 261.703 259.683C260.753 256.472 259.244 250.962 256.154 249.336Z"/>
	<path fill="#0E382F" d="M152.973 95.7158C155.305 96.0064 156.765 98.8217 158.898 99.775C160.49 100.486 162.437 100.11 164.014 100.853L162.746 103.05C160.297 102.366 156.363 105.044 153.927 106.006C154.915 104.46 155.016 102.972 154.633 101.189C154.382 100.021 154.133 99.6181 153.115 98.9891L153.131 98.8296C153.657 97.6134 153.35 96.917 152.973 95.7158Z"/>
	<path fill="#F9F6F6" d="M101.149 118.495C100.369 117.91 99.8408 117.497 99.3726 116.608C99.3589 116.1 99.3573 115.643 99.5511 115.163C100.887 111.85 106.509 109.308 109.694 108.108C114.211 106.405 114.756 106.72 118.876 108.551L119.335 108.753L118.608 112.145L118.121 112.633C115.494 110.966 117.408 108.724 112.165 109.996C108.232 110.95 104.807 113.63 102.035 116.47C101.823 117.18 101.709 117.995 101.149 118.495Z"/>
	<path fill="#0C2E28" d="M119.335 108.753C120.104 108.918 120.245 108.903 120.696 109.606C121.34 110.61 121.743 111.9 122.186 113.008C124.329 114.138 127.323 114.924 128.919 116.753C126.535 118.402 121.374 123.882 119.753 124.55C119.301 123.673 119.132 122.849 118.943 121.893C119.126 118.677 118.557 115.395 118.608 112.145L119.335 108.753Z"/>
	<defs>
		<linearGradient id="gradient_0" gradientUnits="userSpaceOnUse" x1="122.42339" y1="134.10297" x2="113.93365" y2="140.83363">
			<stop offset="0" stop-color="#062320"/>
			<stop offset="1" stop-color="#0C4232"/>
		</linearGradient>
	</defs>
	<path fill="url(#gradient_0)" d="M108.524 133.849C110.229 134.438 111.951 135.032 113.721 135.392C116.473 135.953 126.105 136.428 127.302 139.249C127.497 139.708 127.508 140.33 127.574 140.823C127.602 141.03 127.636 141.237 127.665 141.444L127.722 141.868C124.327 144.254 120.524 146.728 116.525 147.946L115.713 147.719C115.768 147.571 115.76 147.382 115.876 147.277C116.352 146.847 123.266 144.299 125.523 142.52L125.581 141.841C123.699 138.646 115.494 140.829 111.988 139.276C110.383 138.564 108.883 136.58 108.312 134.94C108.118 134.38 108.283 134.338 108.524 133.849Z"/>
	<path fill="#0C2E28" d="M196.159 84.2254L196.813 84.8318C196.763 86.1021 196.385 87.285 196.319 88.5402C196.244 89.9886 196.831 95.2984 195.571 96.2092C195.489 96.2688 195.391 96.3042 195.301 96.3517C194.757 95.745 194.967 94.9403 194.965 94.1413C193.445 94.3153 191.986 94.4559 190.745 95.4173C191.824 95.3488 193.157 95.0553 194.114 95.541C192.803 96.3331 191.116 96.495 189.689 97.2461C189.523 97.3337 189.337 97.3788 189.162 97.4464C186.956 98.2961 185.934 100.543 183.179 99.248C182.421 98.8914 182.376 98.7205 182.036 97.9981C182.243 97.3054 182.225 96.9303 182.779 96.4425L183.539 96.6753C185.681 95.3136 193.986 86.6243 196.159 84.2254Z"/>
	<path fill="#CEDDCF" d="M180.699 93.8132C182.945 90.1338 185.819 86.0114 189.304 83.4035C190.602 82.4321 192.363 81.5573 194.025 81.9709C195.064 82.2296 195.624 83.3856 196.159 84.2254C193.986 86.6243 185.681 95.3136 183.539 96.6753L182.779 96.4425C182.223 95.5051 181.4 94.6528 180.699 93.8132Z"/>
	<path fill="#114C40" d="M557.805 481.133C559.183 484.018 560.019 486.924 561.636 489.749C564.061 493.989 567.387 498.117 569.42 502.502C570.106 503.983 569.704 505.615 570.147 507.12C570.72 509.067 572.869 511.088 573.736 513.114C574.544 515.004 574.409 517.652 575.262 519.231C575.629 519.91 575.896 520.458 575.795 521.262C575.529 523.378 575.233 525.588 574.612 527.627L574.267 527.755C573.942 526.262 574.381 525.039 574.2 523.624C574.188 523.528 574.162 523.434 574.143 523.339L574.456 522.892C574.351 522.217 574.271 521.48 573.88 520.904C571.632 517.586 571.132 512.427 569.365 508.655C567.511 504.696 563.395 500.079 562.3 496.008C564.191 497.035 564.26 499.702 565.498 501.268C565.471 496.101 557.773 489.246 557.805 481.133Z"/>
	<path fill="#0A231E" d="M176.715 105.487L178.34 104.329C180.938 105.576 185.465 110.159 186.569 112.812L186.359 113.676C183.307 113.055 179.87 112.02 177.06 113.935C176.334 114.429 175.643 115.095 175.236 115.879L174.94 115.853C173.913 115.555 174.017 115.035 173.237 114.562C172.62 114.187 170.509 114.389 169.698 114.293C168.921 114.201 168.419 114.086 167.923 113.465C168.603 112.917 168.889 112.915 169.724 112.728L170.111 112.39C172.452 110.372 174.801 107.919 176.715 105.487Z"/>
	<path fill="#84C7A2" d="M134.757 98.7217C137.915 96.3476 141.83 93.9034 145.961 94.5808C149.388 95.1424 150.623 96.8349 153.131 98.8296L153.115 98.9891C148.664 102.176 143.169 103.26 137.824 103.977L136.584 103.935C136.576 103.877 136.564 103.819 136.558 103.76C136.361 101.847 135.598 100.416 134.757 98.7217Z"/>
	<path fill="#0E382F" d="M239.355 244.425C242.919 248.055 249.581 253.898 254.901 254.124C255.739 253.755 255.717 253.751 256.124 252.927C256.148 251.318 255.52 250.357 254.764 248.986C255.25 249.068 255.687 249.18 256.154 249.336C259.244 250.962 260.753 256.472 261.703 259.683C261.913 260.39 261.997 260.659 261.848 261.395L258.726 261.521C258.646 261.512 258.566 261.503 258.486 261.495C253.441 261.019 249.836 258.047 246.431 254.518C244.556 252.574 239.293 247.25 239.355 244.425Z"/>
	<path fill="#0A231E" d="M153.115 98.9891C154.133 99.6181 154.382 100.021 154.633 101.189C155.016 102.972 154.915 104.46 153.927 106.006C148.504 109.007 144.087 110.051 137.937 109.017C137.025 108.52 136.157 108.026 135.47 107.226C134.86 106.515 134.565 106.16 134.619 105.215C135.57 104.119 136.446 104.18 137.824 103.977C143.169 103.26 148.664 102.176 153.115 98.9891Z"/>
	<path fill="#0A231E" d="M243.744 101.352C248.952 103.384 251.082 102.972 256.351 103.279C262.503 103.637 268.734 110.588 272.73 114.757C269.937 115.127 268.656 112.306 266.365 111.3C262.087 109.42 257.418 110.34 252.985 109.432C248.762 108.567 246.064 105.791 243.786 102.328C243.508 101.906 243.646 101.825 243.744 101.352Z"/>
	<path fill="#0E382F" d="M316.625 150.705C316.389 153.033 316.081 155.385 316.039 157.724L315.589 160.101C315.432 157.625 315.299 155.081 315.783 152.634L315.35 152.341C315.134 152.444 314.861 152.472 314.702 152.65C313.902 153.546 313.621 155.035 312.96 156.051C312.396 156.918 311.495 157.652 310.833 158.455C309.56 160.001 308.455 161.717 307.279 163.338C304.559 167.088 299.119 172.376 295.485 175.293C293.457 176.92 291.149 178.194 289.246 179.97C288.063 181.074 286.116 184.086 284.843 184.688C284.611 184.798 283.517 184.67 283.198 184.666C283.533 185.095 283.293 184.915 284.03 185.007L283.966 185.592C282.711 185.444 280.368 183.709 279.67 182.652C279.407 182.255 279.413 182.155 279.318 181.752C280.79 182.843 282.184 183.713 283.825 184.527C286.17 182.546 288.137 179.954 290.112 177.613C298.306 167.9 305.209 157.036 316.625 150.705Z"/>
	<path fill="#0E382F" d="M262.51 605.929C263.345 605.878 263.363 605.943 263.929 605.324C266.661 602.337 268.143 597.671 270.525 594.27C270.636 594.111 270.738 593.946 270.85 593.787C272.028 592.124 276.044 589.382 278.113 589.055C278.254 589.032 278.397 589.04 278.539 589.032C276.409 591.319 273.668 591.824 271.365 595.174C268.844 598.843 267.201 605.593 264.046 608.229C264.024 608.323 264.003 608.418 263.979 608.511C262.743 613.418 259.796 621.318 255.321 623.947C249.345 627.458 247.91 621.782 245.362 630.701C243.797 636.18 241.501 641.074 239.628 646.427C238.817 648.742 237.003 655.556 235.948 657.181L235.377 657.414L235.823 657.328L235.132 656.983C235.782 647.773 243.332 636.732 245.204 626.692C246.474 624.43 250.939 624.052 253.206 622.595C257.962 619.536 261.453 611.347 262.51 605.929Z"/>
	<path fill="#0C2E28" d="M480.475 219.638C486.2 217.098 486.548 210.43 490.552 206.46C491.173 205.843 491.881 205.413 492.795 205.529C494.871 205.793 496.181 208.608 497.183 210.203L496.807 210.809Q496.061 209.763 495.295 208.731C494.519 208.974 494.689 208.983 494.339 209.651C494.352 210.245 494.509 211.194 494.386 211.749C493.946 213.741 489.631 220.78 488.203 222.254C487.414 223.068 486.377 223.792 485.206 223.864C483.291 223.98 480.511 222.185 479.114 220.999L478.774 220.164C479.412 219.757 479.741 219.738 480.475 219.638Z"/>
	<path fill="#84C7A2" d="M164.014 100.853C166.901 99.3193 170.618 97.5022 173.942 98.8153C175.924 99.5983 177.592 101.8 178.615 103.592C178.44 104.272 178.61 104.073 178.34 104.329L176.715 105.487C174.801 107.919 172.452 110.372 170.111 112.39L169.724 112.728C167.911 112.16 165.961 111.766 164.91 110.03C163.177 108.053 162.751 105.587 162.746 103.05L164.014 100.853Z"/>
	<path fill="#F9F6F6" d="M164.014 100.853C166.901 99.3193 170.618 97.5022 173.942 98.8153C175.924 99.5983 177.592 101.8 178.615 103.592C178.44 104.272 178.61 104.073 178.34 104.329L176.715 105.487C175.134 103.389 177.298 100.717 173.244 100.189C170.646 99.8496 167.773 101.199 165.786 102.774C164.686 103.646 164.115 104.208 163.925 105.665C164.358 107.147 165.548 108.648 164.91 110.03C163.177 108.053 162.751 105.587 162.746 103.05L164.014 100.853Z"/>
	<path fill="#0E382F" d="M235.866 217.418L236.179 216.957C236.914 217.241 237.012 217.393 237.513 218.016L236.428 218.059C234.691 220.037 233.098 222.949 230.863 224.289C228.241 225.86 209.674 230.754 209.038 232.042C208.703 232.721 209.318 233.47 208.655 234.129C207.882 234.898 207.501 235.525 206.895 236.402C206.74 236.627 206.448 236.898 206.246 237.096L206.389 237.598C206.603 237.672 206.806 237.799 207.032 237.82C207.379 237.852 230.435 230.006 232.012 229.281C233.826 228.446 235.981 226.718 237.87 226.318L238.029 226.905C236.669 228.832 213.788 236.242 209.878 237.451C206.377 238.532 202.444 239.118 199.152 240.723L199.255 240.705L199.081 241.163C199.271 241.191 199.461 241.214 199.65 241.246C201.841 241.615 212.403 246.701 213.53 248.146C213.315 248.663 213.489 248.475 213.036 248.733L209.658 247.327C206.444 244.379 195.074 241.739 190.287 238.343C200.975 232.089 229.975 227.459 235.866 217.418Z"/>
	<path fill="#F9F6F6" d="M201.799 79.6827C202.88 77.2546 204.048 76.0073 206.32 74.616C209.954 72.3898 214.494 71.2685 218.565 70.0825C234.337 65.4876 250.43 62.7677 266.886 64.0412C269.736 64.2618 272.795 64.3268 275.572 65.0092L275.785 65.4334L275.144 66.4636C274.252 67.0573 273.367 67.6872 272.454 68.2471C268.709 64.9804 256.562 65.9779 251.561 66.3246C237.483 67.3005 222.477 69.9269 209.257 74.9823C206.485 76.0422 204.237 78.7512 201.799 79.6827Z"/>
	<defs>
		<linearGradient id="gradient_1" gradientUnits="userSpaceOnUse" x1="223.44994" y1="202.774" x2="236.33591" y2="202.2525">
			<stop offset="0" stop-color="#063330"/>
			<stop offset="1" stop-color="#114E43"/>
		</linearGradient>
	</defs>
	<path fill="url(#gradient_1)" d="M222.309 187.566C222.69 187.278 222.758 187.056 223.276 187.182C225.707 187.775 228.851 191.803 230.799 193.514C231.838 200.172 233.212 205.788 236.066 211.956C237.392 214.822 242.759 222.408 243.004 224.224C242.202 223.439 241.549 222.338 241.194 221.277L240.928 221.472L240.766 223.557L240.439 223.831C239.282 222.413 238.774 220.572 237.901 218.974C237.589 218.402 237.713 218.686 237.513 218.016C237.012 217.393 236.914 217.241 236.179 216.957L235.866 217.418C234.248 214.971 232.089 212.854 230.409 210.422C225.78 203.722 223.998 195.406 222.309 187.566Z"/>
	<path fill="#114C40" d="M464.921 435.823C465.015 435.898 465.109 435.971 465.202 436.046C472.618 442.076 478.157 455.063 489.302 454.834C495.199 455.815 502.361 455.296 508.156 453.986C513.962 452.673 529.26 446.805 534.088 447.548C537.042 448.002 540.258 450.987 543.028 452.265C548.041 454.579 553.595 456.163 558.766 458.124L557.806 460.452C552.199 458.414 540.045 452.244 535.422 451.509C529.397 450.552 521.804 452.983 515.834 454.165C513.225 454.681 510.521 454.471 507.892 454.831C500.746 455.809 494.224 458.313 486.833 457.045C477.639 455.468 469.929 443.07 464.921 435.823Z"/>
	<path fill="#CEDDCF" d="M239.355 244.425C237.436 241.214 235.183 236.044 236.016 232.185C236.212 231.282 236.745 230.499 237.63 230.152C238.857 229.671 240.641 230.106 241.701 230.801C245.142 233.056 249.788 242.006 252.434 245.811C253.106 246.776 253.89 248.231 254.764 248.986C255.52 250.357 256.148 251.318 256.124 252.927C255.717 253.751 255.739 253.755 254.901 254.124C249.581 253.898 242.919 248.055 239.355 244.425Z"/>
	<path fill="#0E382F" d="M500.101 189.754C500.974 189.483 501.767 189.348 502.623 189.761C506.847 191.798 515.631 211.586 517.035 216.669C517.521 218.427 517.839 220.973 516.798 222.611C516.072 223.754 515.286 224.197 514.044 224.647L513.756 224.361C514.34 223.137 515.15 222.102 515.958 221.021C514.403 221.938 511.8 222.915 511.221 224.673C510.953 225.488 510.438 226.058 510.162 226.819C509.425 228.854 510.001 230.734 507.757 231.924C505.099 233.333 501.141 233.976 498.211 233.292C497.86 232.997 497.607 232.803 497.363 232.41C501.987 226.655 508.46 222.491 512.686 216.377C511.036 211.469 508.387 206.853 506.183 202.175C504.23 198.028 502.59 193.605 500.101 189.754Z"/>
	<path fill="#0E382F" d="M576.678 608.006C581.864 605.172 586.994 602.253 591.76 598.742C598.684 593.641 604.981 587.728 611.792 582.511C609.11 586.912 598.469 596.615 594.305 600.799C551.258 644.045 493.426 675.621 434.218 690.053Q411.51 695.535 388.305 698.223C381.817 698.986 373.451 698.485 367.394 700L364.983 700C364.295 699.718 364.568 699.763 363.862 699.72C362.705 699.648 361.715 699.614 360.595 699.297Q373.957 698.616 387.284 697.43C389.649 697.215 392.705 697.327 394.956 696.668C399.992 695.196 405.916 695.079 411.139 694.207C420.478 692.647 430.001 690.424 439.151 687.968Q450.854 684.869 462.318 680.981Q473.783 677.094 484.957 672.436Q496.131 667.778 506.962 662.371Q517.793 656.964 528.232 650.833C529.891 649.844 530.458 647.568 532.1 646.584C534.563 645.108 537.398 644.869 539.791 643.388C553.706 634.778 566.891 624.569 579.177 613.787C580.664 612.483 583.165 610.819 584.303 609.269C584.8 608.592 584.633 607.603 585.349 606.913C587.767 604.585 590.887 602.82 593.408 600.517C594.958 599.1 600.517 594.478 600.61 592.42C598.937 594.185 596.744 595.342 594.994 597.033C591.548 600.362 586.033 603.79 581.732 605.902C580.055 606.726 578.469 607.726 576.883 608.712L576.55 608.563L576.678 608.006Z"/>
	<path fill="#0E382F" d="M116.64 378.683C118.919 377.942 121.952 377.778 124.344 377.86C127.198 377.959 133.224 378.561 135.153 380.613L135.903 380.284C136.435 380.442 136.702 380.567 137.259 380.464L135.088 379.239L135.053 378.561C135.264 378.648 135.476 378.732 135.687 378.821C139.263 380.332 142.609 382.835 146.022 384.697C157.482 390.946 167.606 391.527 180.254 388.782C183.049 389.816 185.636 391.784 188.06 393.49C187.971 393.554 187.883 393.617 187.795 393.682C184.24 396.319 180.587 397.104 176.261 397.419C153.668 399.065 138.283 379.366 116.64 378.683Z"/>
	<path fill="#0E382F" d="M403.013 79.5946L403.655 79.2962C405.25 80.0355 405.674 81.7094 406.289 83.2677C401.06 89.4558 395.523 90.0155 391.259 94.8146C384.906 101.967 383.571 112.303 378.966 120.479C376.122 125.528 370.509 129.145 368.223 134.305C366.582 132.747 364.959 131.344 363.114 130.034C366.675 126.352 370.758 122.567 373.298 118.089C375.483 114.236 376.536 109.924 377.959 105.764C379.809 100.359 383.05 94.0685 387.049 89.948C390.95 85.9275 396.989 85.9051 401.011 82.4258C401.162 82.2946 401.306 82.1546 401.454 82.0191C402.166 81.2666 402.558 80.5081 403.013 79.5946Z"/>
	<path fill="#0C2E28" d="M317.067 506.748L317.399 506.224C318.664 508.696 317.921 512.104 317.094 514.63C315.94 518.154 314.325 521.367 312.416 524.538C311.284 526.419 308.908 529.179 308.372 531.195C308.005 532.578 308.017 534.179 307.828 535.602C307.108 541.031 306.654 547.088 305.15 552.309C304.418 554.851 305.42 557.444 304.56 560.113L304.368 560.725C303.73 562.706 302.12 567.179 300.355 568.141C300.195 568.228 300.02 568.287 299.854 568.363C296.363 569.961 294.412 573.371 291.293 575.5C289.413 576.784 287.269 577.446 285.262 578.461C284.136 579.03 283.251 579.992 282.142 580.589C281.07 581.166 279.827 581.452 278.712 581.946C272.936 584.503 266.812 588.466 264.661 594.71C264.038 596.519 262.143 604.386 262.51 605.929C261.453 611.347 257.962 619.536 253.206 622.595C250.939 624.052 246.474 624.43 245.204 626.692C244.085 627.146 239.759 636.498 239.055 638.181C237.543 641.793 233.043 652.705 234.115 656.157C234.239 656.556 234.485 656.909 234.668 657.28C234.972 657.895 234.979 658.577 235.008 659.251L235.389 657.903L236.098 658.533L236 658.391L236.036 658.937C236.101 660.014 235.774 661.426 236.08 662.435C237.175 666.05 246.624 673.478 247.116 677.529C247.213 678.328 246.192 679.535 245.682 680.08C245.308 680.479 244.868 680.825 244.438 681.162L244.098 682.572L243.79 682.564C243.767 682.434 243.746 682.304 243.722 682.174C243.605 681.543 243.651 681.775 243.444 681.062C244.505 678.673 246.257 678.664 246.054 675.718C245.967 675.818 245.882 675.919 245.795 676.017C245.697 676.126 245.582 676.221 245.498 676.34C243.774 678.78 242.812 680.025 240.134 681.534L240.114 681.88C240.239 681.892 240.366 681.897 240.491 681.917C241.962 682.143 245.516 683.146 246.361 684.352C246.421 684.438 246.468 684.532 246.521 684.623C242.466 683.375 238.314 682.117 234.393 680.496C235.06 680.543 234.788 680.5 235.389 680.625C237.334 681.027 239.271 681.202 241.162 680.397C242.165 679.97 242.825 679.192 243.131 678.158C243.586 676.621 237.436 670.579 236.388 669.27Q234.806 667.27 233.651 664.996C225.953 649.735 235.902 642.312 240.124 628.815C240.169 628.67 240.211 628.524 240.255 628.379Q239.678 626.849 239.174 625.293C238.572 623.383 237.888 621.06 238.941 619.185C239.289 618.565 239.287 618.418 240 618.239C241.408 619.2 242.151 620.823 243.551 621.754C244.491 622.379 245.548 622.523 246.627 622.236C249.294 621.526 252.292 618.565 253.558 616.204C256.766 610.693 255.748 605.632 262.324 602.411C263.303 599.05 263.359 595.561 264.931 592.353C270.509 580.964 289.688 579.523 297.68 568.272C306.298 556.139 300.914 548.018 304.981 536.608C308.434 526.918 318.979 517.819 317.067 506.748Z"/>
	<path fill="#CEDDCF" d="M480.475 219.638C479.378 219.564 478.219 219.553 477.164 219.22C476.478 219.003 476.713 219.191 476.396 218.564C477.05 213.439 485.233 198.386 488.557 193.953C490.422 191.466 493.152 189.057 496.359 188.684C497.983 188.495 498.841 188.731 500.101 189.754C502.59 193.605 504.23 198.028 506.183 202.175C508.387 206.853 511.036 211.469 512.686 216.377C508.46 222.491 501.987 226.655 497.363 232.41C495.336 231.134 493.951 228.958 492.541 227.069C494.878 223.087 497.801 219.489 500.069 215.467C499.349 213.62 498.518 211.693 497.183 210.203C496.181 208.608 494.871 205.793 492.795 205.529C491.881 205.413 491.173 205.843 490.552 206.46C486.548 210.43 486.2 217.098 480.475 219.638Z"/>
	<defs>
		<linearGradient id="gradient_2" gradientUnits="userSpaceOnUse" x1="223.66344" y1="76.331429" x2="254.33662" y2="101.88418">
			<stop offset="0" stop-color="#0A2019"/>
			<stop offset="1" stop-color="#063B2E"/>
		</linearGradient>
	</defs>
	<path fill="url(#gradient_2)" d="M275.144 66.4636L275.753 66.8441C274.495 68.1078 272.548 68.6572 271.518 70.0044C272.351 72.4269 273.838 74.6219 275.428 76.6114C277.961 77.6397 282.261 73.8307 284.252 75.0947L284.312 75.4374C275.587 77.6161 247.253 87.959 242.894 95.5691C242.625 96.04 242.404 96.5313 242.196 97.0312L241.736 97.3854C241.723 97.2286 241.695 97.0724 241.695 96.915C241.701 95.428 242.837 93.8719 243.885 92.8928C246.022 90.8976 248.972 90.1412 251.049 88.0172C251.555 87.5002 252.173 87.2167 252.806 86.8851L252.934 86.3466L252.496 85.9386C249.258 86.6787 246.251 89.6135 242.83 90.1595C238.095 95.4344 228.081 106.139 222.098 109.406C219.924 110.593 217.671 111.227 215.196 111.339C210.381 111.555 206.285 109.731 202.791 106.478C201.708 105.469 200.012 103.863 199.947 102.338C200.032 102.378 200.116 102.42 200.202 102.459C203.92 104.149 208.752 105.656 212.752 104.215C217.955 102.341 231.601 89.5634 237.844 85.2567C248.648 77.8038 260.232 72.8194 272.454 68.2471C273.367 67.6872 274.252 67.0573 275.144 66.4636Z"/>
	<path fill="#84C7A2" d="M201.799 79.6827C204.237 78.7512 206.485 76.0422 209.257 74.9823C222.477 69.9269 237.483 67.3005 251.561 66.3246C256.562 65.9779 268.709 64.9804 272.454 68.2471C260.232 72.8194 248.648 77.8038 237.844 85.2567C231.601 89.5634 217.955 102.341 212.752 104.215C208.752 105.656 203.92 104.149 200.202 102.459C200.116 102.42 200.032 102.378 199.947 102.338C199.463 101.926 198.886 101.484 198.493 100.985C197.769 100.066 198.074 98.7003 198.179 97.6143L197.838 97.4154C198.409 92.4762 205.458 92.7838 207.191 88.7689C206.29 87.0536 206.447 85.3102 204.87 84.0182C203.726 83.7508 203.128 83.7526 201.992 84.0705C201.884 84.1006 201.777 84.134 201.67 84.1658C201.24 83.9936 200.884 83.8653 200.418 83.8135C199.966 83.7632 199.508 83.732 199.054 83.6902L199.46 83.3595C199.999 83.47 199.74 83.4445 200.389 83.4334C200.556 83.4305 200.723 83.4241 200.89 83.4195C200.849 82.0775 201.053 80.8169 201.799 79.6827Z"/>
	<path fill="#F9F6F6" d="M223.443 81.6883C223.757 82.5953 223.887 83.0231 223.474 83.932C221.77 87.6732 211.818 90.8421 208.046 92.7362C205.185 94.1725 202.524 95.7055 199.93 97.5725C199.467 97.9055 199.608 97.7916 198.923 97.9822L198.427 97.4993C200.7 90.4259 217.966 89.6418 223.443 81.6883Z"/>
	<path fill="#0C2E28" d="M200.89 83.4195C204.447 83.3649 221.158 80.5946 222.681 81.1548C222.972 81.2618 223.189 81.5105 223.443 81.6883C217.966 89.6418 200.7 90.4259 198.427 97.4993L198.179 97.6143L197.838 97.4154C198.409 92.4762 205.458 92.7838 207.191 88.7689C206.29 87.0536 206.447 85.3102 204.87 84.0182C203.726 83.7508 203.128 83.7526 201.992 84.0705C201.884 84.1006 201.777 84.134 201.67 84.1658C201.24 83.9936 200.884 83.8653 200.418 83.8135C199.966 83.7632 199.508 83.732 199.054 83.6902L199.46 83.3595C199.999 83.47 199.74 83.4445 200.389 83.4334C200.556 83.4305 200.723 83.4241 200.89 83.4195Z"/>
	<path fill="#0E382F" d="M209.133 261.663C215.34 259.978 222.111 257.33 228.49 256.629C230.268 257.775 232.399 258.629 233.887 260.139L233.986 260.738C231.572 262.395 228.119 262.788 225.375 263.757C220.739 265.393 216.412 267.603 211.539 268.555C207.657 269.313 203.619 269.843 199.687 270.265C196.446 270.612 192.086 270.314 189.083 271.559C184.439 273.483 181.449 279.923 177.871 283.342C173.294 287.715 167.673 289.268 162.641 292.76C159.987 298.124 158.876 306.152 155.292 310.405C151.316 315.124 131.197 330.93 130.803 334.833C130.424 338.591 133.135 344.858 133.975 348.733Q134.728 352.069 135.121 355.467Q135.514 358.864 135.542 362.284C132.534 362.443 131.453 361.444 129.341 359.515C126.996 357.374 123.693 353.764 122.482 350.846C119.94 347.514 115.745 340.795 112.394 338.708C111.072 337.884 109.467 337.482 107.939 337.27C100.642 336.258 85.013 337.646 78.0488 339.921Q76.1588 340.531 74.4021 341.458Q72.6453 342.385 71.0743 343.6C66.7815 346.951 64.0711 352.635 63.4832 357.974C62.9812 362.532 63.2698 367.507 64.0758 372.015C64.7771 375.937 67.7828 381.049 66.8918 384.84C64.5465 382.917 62.8018 380.476 60.9937 378.068C60.6385 376.692 59.6519 375.183 59.1103 373.825C57.8666 370.707 57.5937 367.194 57.3194 363.871C56.6492 355.752 57.0658 346.77 62.7175 340.318C64.597 338.173 66.8269 336.637 69.4997 335.654C74.5182 333.809 80.2924 333.873 85.5604 333.083C91.8158 332.144 97.9339 330.75 104.27 330.401C104.468 330.346 104.661 330.262 104.865 330.235C110.81 329.449 119.966 347.194 124.856 350.349L125.485 349.737L125.341 349.915Q127.225 348.954 129.085 347.945C128.931 344.084 126.875 335.383 125.848 331.406C125.454 329.88 125.254 327.989 126.058 326.566L126.269 327.043Q130.816 322.072 135.786 317.525C138.995 314.596 148.577 307.542 150.292 304.48C150.363 304.354 150.425 304.223 150.493 304.096C152.78 299.795 152.926 294.757 155.749 290.64C159.475 285.206 166.496 283.298 171.497 279.296C176.297 275.455 179.043 269.944 183.528 265.916C187.207 265.031 191.226 264.968 194.987 264.461C199.762 263.818 204.442 262.746 209.133 261.663Z"/>
	<defs>
		<linearGradient id="gradient_3" gradientUnits="userSpaceOnUse" x1="126.64747" y1="349.02927" x2="131.82123" y2="357.28946">
			<stop offset="0" stop-color="#D5E1D3"/>
			<stop offset="1" stop-color="#EBE7E6"/>
		</linearGradient>
	</defs>
	<path fill="url(#gradient_3)" d="M104.27 330.401C104.468 330.346 104.661 330.262 104.865 330.235C110.81 329.449 119.966 347.194 124.856 350.349L125.485 349.737L125.341 349.915Q127.225 348.954 129.085 347.945C128.931 344.084 126.875 335.383 125.848 331.406C125.454 329.88 125.254 327.989 126.058 326.566L126.269 327.043C125.899 334.992 131.088 351.186 132.231 360.324C129.081 357.369 126.616 353.81 123.743 350.602C117.915 343.49 112.799 334.413 104.27 330.401Z"/>
	<path fill="#CEDDCF" d="M66.8918 384.84C69.2025 386.736 71.8905 388.045 74.9405 387.713C89.1805 386.161 92.5036 362.977 120.947 364.808C126.02 365.135 131.363 365.903 136.12 367.767C143.923 370.824 150.113 377.112 157.495 381.044C160.13 382.448 162.828 383.762 165.685 384.649C169.374 385.794 177.325 386.714 180.254 388.782C167.606 391.527 157.482 390.946 146.022 384.697C142.609 382.835 139.263 380.332 135.687 378.821C135.476 378.732 135.264 378.648 135.053 378.561L135.088 379.239L137.259 380.464C136.702 380.567 136.435 380.442 135.903 380.284L135.153 380.613C133.224 378.561 127.198 377.959 124.344 377.86C121.952 377.778 118.919 377.942 116.64 378.683C110.81 380.179 103.006 383.081 99.7233 388.444C97.9472 391.346 98.39 394.186 97.2433 397.21C96.6533 398.766 97.0795 400.697 97.3491 402.289L97.0346 403.103C98.5926 402.703 99.7219 402.518 100.671 401.094C101.582 399.728 101.788 397.5 102.34 395.927C104.467 397.03 106.167 398.287 107.841 400.021C107.879 400.139 107.919 400.256 107.955 400.374C109.272 404.652 109.341 409.294 110.398 413.655C113.839 427.857 119.769 430.41 128.101 440.557C128.366 441.078 128.394 441.22 128.426 441.776L127.858 442.12C125.97 441.93 124.145 441.059 122.381 440.389C109.866 434.675 107.35 425.228 99.079 416.24C95.9559 412.847 91.7437 410.636 88.0833 407.889C84.4839 405.188 81.193 401.938 77.272 399.698C69.7021 395.373 60.4098 395.036 52.3724 391.766C52.3415 391.722 52.3094 391.679 52.2795 391.634C51.1005 389.88 48.6064 389.924 47.7774 388.142C48.4358 385.989 51.3566 384.847 52.4206 382.876C53.1433 381.537 55.8449 374.8 56.2368 373.461C56.4692 372.667 56.4903 371.89 56.7936 371.103L57.0296 370.507L56.5898 370.175L57.1917 369.936C57.7542 372.748 58.8085 375.677 60.3732 378.083L60.9937 378.068C62.8018 380.476 64.5465 382.917 66.8918 384.84Z"/>
	<path fill="#0A231E" d="M97.0346 403.103C96.1945 403.055 95.2384 403 94.4853 402.587C93.1004 401.827 92.198 400.299 91.7968 398.813C90.6866 394.702 92.1501 389.284 94.1499 385.627C97.4935 379.512 103.418 375.377 110.064 373.512C118.368 371.181 127.793 374.503 135.053 378.561L135.088 379.239L137.259 380.464C136.702 380.567 136.435 380.442 135.903 380.284L135.153 380.613C133.224 378.561 127.198 377.959 124.344 377.86C121.952 377.778 118.919 377.942 116.64 378.683C110.81 380.179 103.006 383.081 99.7233 388.444C97.9472 391.346 98.39 394.186 97.2433 397.21C96.6533 398.766 97.0795 400.697 97.3491 402.289L97.0346 403.103Z"/>
	<path fill="#84C7A2" d="M299.154 74.9075C304.762 75.4017 308.749 72.1612 313.932 70.5119C329.422 65.5829 353.671 61.7278 368.257 70.4207C371.148 72.1439 373.263 74.3676 375.512 76.8465C386.928 76.6793 391.617 75.4824 403.013 79.5946C402.558 80.5081 402.166 81.2666 401.454 82.0191C401.306 82.1546 401.162 82.2946 401.011 82.4258C396.989 85.9051 390.95 85.9275 387.049 89.948C383.05 94.0685 379.809 100.359 377.959 105.764C376.536 109.924 375.483 114.236 373.298 118.089C370.758 122.567 366.675 126.352 363.114 130.034C357.138 126.393 351.892 123.091 344.559 124.884C334.411 127.364 325.192 135.701 319.926 144.472C318.712 146.493 317.658 148.587 316.625 150.705C305.209 157.036 298.306 167.9 290.112 177.613C288.137 179.954 286.17 182.546 283.825 184.527C282.184 183.713 280.79 182.843 279.318 181.752C279.115 181.397 278.917 181.035 278.704 180.686C275.512 175.461 274.054 169.595 271.683 164C270.724 161.738 269.478 159.775 268.244 157.668L268.475 156.902C270.784 150.034 274.117 143.672 276.662 136.923L276.793 134.937C277.394 133.861 276.431 131.581 276.097 130.373C275.294 127.468 274.093 124.404 274.034 121.381C273.996 119.412 274.387 117.365 274.23 115.432L273.688 115.306L272.73 114.757C268.734 110.588 262.503 103.637 256.351 103.279C251.082 102.972 248.952 103.384 243.744 101.352C242.152 100.078 241.981 99.3983 241.736 97.3854L242.196 97.0312C242.404 96.5313 242.625 96.04 242.894 95.5691C247.253 87.959 275.587 77.6161 284.312 75.4374C289.532 74.5581 293.899 73.8317 299.154 74.9075Z"/>
	<path fill="#CEDDCF" d="M276.662 136.923L277.125 136.182C277.556 136.622 277.487 136.899 277.476 137.492C277.43 139.885 271.037 154.85 269.301 156.935C268.673 157.023 268.945 157.066 268.475 156.902C270.784 150.034 274.117 143.672 276.662 136.923Z"/>
	<path fill="#F9F6F6" d="M284.312 75.4374C289.532 74.5581 293.899 73.8317 299.154 74.9075L299.335 75.4558C300.719 75.8458 301.667 76.057 303.086 75.7847C303.274 75.7486 303.463 75.7174 303.651 75.6792C303.773 75.6544 303.893 75.6234 304.015 75.5955L304.009 75.9013C302.561 76.5122 300.748 76.4099 299.193 76.4697L299.129 76.9033C295.779 76.3987 292.683 76.0163 289.31 76.473C279.488 77.8029 255.236 87.7952 247.414 93.5055C245.797 94.6861 244.263 96.0262 242.734 97.3187L242.196 97.0312C242.404 96.5313 242.625 96.04 242.894 95.5691C247.253 87.959 275.587 77.6161 284.312 75.4374Z"/>
	<defs>
		<linearGradient id="gradient_4" gradientUnits="userSpaceOnUse" x1="355.67355" y1="65.449883" x2="348.50201" y2="88.801331">
			<stop offset="0" stop-color="#E6E4DE"/>
			<stop offset="1" stop-color="#F7E6E7"/>
		</linearGradient>
	</defs>
	<path fill="url(#gradient_4)" d="M299.154 74.9075C304.762 75.4017 308.749 72.1612 313.932 70.5119C329.422 65.5829 353.671 61.7278 368.257 70.4207C371.148 72.1439 373.263 74.3676 375.512 76.8465C386.928 76.6793 391.617 75.4824 403.013 79.5946C402.558 80.5081 402.166 81.2666 401.454 82.0191C401.349 81.9474 401.23 81.8932 401.14 81.8042C399.527 80.216 398.389 79.9623 396.199 79.3407C393.111 78.4643 389.653 78.0207 386.444 78.2427C382.944 78.4849 378.716 79.6614 375.288 78.8734C373.289 78.4138 371.73 75.0543 370.157 73.7519C362.28 67.2322 344.255 66.5447 334.609 67.9956C327.331 69.0902 319.881 70.6663 312.909 73.0304C309.334 74.2425 305.759 76.2133 302.113 77.0735C301.101 77.3123 300.127 77.1158 299.129 76.9033L299.193 76.4697C300.748 76.4099 302.561 76.5122 304.009 75.9013L304.015 75.5955C303.893 75.6234 303.773 75.6544 303.651 75.6792C303.463 75.7174 303.274 75.7486 303.086 75.7847C301.667 76.057 300.719 75.8458 299.335 75.4558L299.154 74.9075Z"/>
	<defs>
		<linearGradient id="gradient_5" gradientUnits="userSpaceOnUse" x1="172.05258" y1="572.2572" x2="251.30037" y2="456.38873">
			<stop offset="0" stop-color="#58A177"/>
			<stop offset="1" stop-color="#9CCFAF"/>
		</linearGradient>
	</defs>
	<path fill="url(#gradient_5)" d="M138.928 447.639C139.321 445.7 139.606 443.539 140.284 441.684C142.504 435.603 147.429 428.723 152.936 425.212C158.57 421.62 164.764 422.093 170.962 423.561C175.45 424.624 179.865 426.002 184.359 427.044C191.842 428.778 199.943 429.121 206.355 433.813C212.361 438.208 216.587 445.81 223.563 448.672C232.75 452.44 246.69 448.031 252.774 458.085C256.209 463.759 257.133 470.532 261.871 475.522C266.288 480.172 292.134 492.558 299.032 495.504C303.573 497.444 308.62 498.78 312.71 501.614C314.668 502.971 315.969 504.66 317.067 506.748C318.979 517.819 308.434 526.918 304.981 536.608C300.914 548.018 306.298 556.139 297.68 568.272C289.688 579.523 270.509 580.964 264.931 592.353C263.359 595.561 263.303 599.05 262.324 602.411C255.748 605.632 256.766 610.693 253.558 616.204L252.815 616.166C252.068 617.624 250.218 619.296 248.973 620.376C247.96 621.255 245.894 621.7 244.572 621.56C244.089 621.07 243.947 621.028 244.062 620.285C244.3 618.739 245.427 617.023 245.983 615.53C247.605 611.17 247.707 606.313 247.369 601.716C247.269 600.365 245.699 592.502 244.977 591.55C244.597 591.05 243.778 590.526 243.283 590.103C243.928 588.482 245.234 587.075 246.292 585.698C242.878 583.018 246.293 581.144 243.351 577.975C240.795 575.221 234.32 572.304 233.104 569.147C232.914 568.654 232.763 568.149 232.442 567.717C231.702 566.723 230.451 566.379 229.287 566.273C228.193 566.669 228.088 566.877 227.392 567.757C226.056 567.626 224.904 564.018 222.84 563.588C222.437 563.793 222.033 564.001 221.62 564.185C221.218 564.364 220.588 564.59 220.141 564.495C218.042 564.052 212.262 557.172 208.359 555.754C208.246 555.989 208.084 556.335 207.953 556.549C206.694 558.608 202.502 555.808 200.403 555.616C198.682 555.458 197.028 557.528 195.388 557.604C193.069 557.711 191.165 555.637 188.5 556.431C185.981 557.183 186.752 559.37 185.366 560.787C184.788 561.378 184.386 561.23 183.633 561.282C179.291 552.576 174.771 554.625 167.433 550.527C163.53 548.347 160.238 545.033 157.275 541.733Q148.289 531.898 140.8 520.88C131.042 506.657 123.293 490.809 130.187 473.585C134.308 463.287 138.272 459.521 138.928 447.639Z"/>
	<path fill="#E24C37" d="M316.625 150.705C317.658 148.587 318.712 146.493 319.926 144.472C325.192 135.701 334.411 127.364 344.559 124.884C351.892 123.091 357.138 126.393 363.114 130.034C364.959 131.344 366.582 132.747 368.223 134.305C371.041 137.121 373.572 140.141 376.125 143.195C377.224 145.853 378.82 148.37 379.733 151.076C379.819 152.769 379.927 154.437 379.77 156.13C378.786 163.91 379.534 173.375 379.525 181.316C379.499 202.667 380.142 224.177 379.476 245.507C380.352 258.258 379.645 271.445 379.589 284.249L379.464 342.375C379.469 352.86 379.299 363.382 379.583 373.863C393.146 384.827 403.156 395.323 405.173 413.488C406.885 428.91 401.962 444.037 392.208 455.969C382.776 467.508 368.745 474.414 353.999 475.872C351.617 476.108 349.238 476.198 346.845 476.239Q344.198 476.211 341.599 475.711C326.672 472.821 311.111 462.697 302.69 450.018C294.367 437.485 291.987 421.508 295.038 406.851Q295.292 405.641 295.604 404.445Q295.916 403.248 296.286 402.068Q296.655 400.888 297.08 399.728Q297.506 398.567 297.987 397.428Q298.468 396.289 299.003 395.174Q299.538 394.06 300.126 392.972Q300.714 391.885 301.354 390.827Q301.994 389.769 302.684 388.743Q303.374 387.717 304.112 386.725Q304.851 385.734 305.636 384.779Q306.421 383.824 307.252 382.908Q308.082 381.992 308.955 381.117Q309.829 380.242 310.743 379.41Q311.658 378.578 312.611 377.791Q313.565 377.003 314.555 376.263Q315.545 375.523 316.57 374.831C317.146 302.47 315.557 230.086 316.039 157.724C316.081 155.385 316.389 153.033 316.625 150.705Z"/>
	<path fill="#F9F6F6" d="M345.966 259.632C343.119 259.857 325.853 260.432 324.487 259.245C323.898 258.733 323.311 257.563 323.294 256.753C323.276 255.916 323.504 255.073 324.178 254.521C326.374 252.726 341.483 253.1 344.745 253.715C345.646 253.885 345.724 253.985 346.233 254.688C346.157 256.326 346.154 258.004 345.966 259.632Z"/>
	<path fill="#F9F6F6" d="M345.704 289.302Q344.914 289.376 344.121 289.42C341.071 289.567 325.521 290.407 323.942 288.759C323.188 287.973 322.985 287.139 323.034 286.088C323.075 285.21 323.42 284.496 324.152 283.955C326.132 282.493 342.562 282.843 345.694 283.21L345.86 284.178C345.543 285.797 345.71 287.645 345.704 289.302Z"/>
	<path fill="#F9F6F6" d="M346.212 319.264C345.58 319.484 345.012 319.629 344.342 319.696C341.764 319.955 325.695 320.3 324.35 319.519C324.037 319.338 323.791 319.061 323.511 318.832C323.2 318.146 323 317.627 322.987 316.864C322.975 316.139 323.122 314.74 323.693 314.273C326.12 312.285 342.038 313.061 345.833 313.318C345.995 315.3 346.172 317.276 346.212 319.264Z"/>
	<path fill="#C92C27" d="M346.233 254.688C346.601 246.671 346.104 238.462 346.788 230.497C346.982 228.236 347.413 225.909 349.3 224.431C351.542 222.674 355.859 221.543 358.659 221.988C365.458 223.068 371.695 231.74 374.89 237.307C376.377 239.899 377.483 242.902 379.291 245.273C379.352 245.352 379.415 245.429 379.476 245.507C380.352 258.258 379.645 271.445 379.589 284.249L379.464 342.375C379.469 352.86 379.299 363.382 379.583 373.863C393.146 384.827 403.156 395.323 405.173 413.488C406.885 428.91 401.962 444.037 392.208 455.969C382.776 467.508 368.745 474.414 353.999 475.872C351.617 476.108 349.238 476.198 346.845 476.239C347.301 467.049 346.853 457.583 346.852 448.364L346.737 385.501L346.754 339.685C346.739 334.563 347.319 323.69 346.212 319.264C346.172 317.276 345.995 315.3 345.833 313.318C345.595 307.08 345.743 300.791 345.851 294.549C345.911 291.118 346.181 287.597 345.86 284.178L345.694 283.21C346.67 279.125 345.956 264.551 345.966 259.632C346.154 258.004 346.157 256.326 346.233 254.688Z"/>
	<path fill="#84C7A2" d="M153.927 106.006C156.363 105.044 160.297 102.366 162.746 103.05C162.751 105.587 163.177 108.053 164.91 110.03C165.961 111.766 167.911 112.16 169.724 112.728C168.889 112.915 168.603 112.917 167.923 113.465C168.419 114.086 168.921 114.201 169.698 114.293C170.509 114.389 172.62 114.187 173.237 114.562C174.017 115.035 173.913 115.555 174.94 115.853L175.236 115.879C175.643 115.095 176.334 114.429 177.06 113.935C179.87 112.02 183.307 113.055 186.359 113.676C196.171 115.971 208.236 116.752 216.137 123.677L217.38 127.642L217.633 127.54L218.248 127.129C221.71 130.96 225.757 134.573 228.736 138.788C231.614 142.86 232.662 147.774 234.308 152.404C234.983 154.304 235.832 156.141 236.477 158.05C234.62 161.146 232.484 164.02 228.81 164.952C228.116 165.128 227.403 165.252 226.714 165.438C226.248 165.564 226.376 165.557 225.91 165.947C225.412 171.58 224.392 180.491 220.315 184.795L218.918 185.026C220.104 185.143 220.808 185.062 221.789 185.767C221.979 186.367 222.16 186.953 222.309 187.566C223.998 195.406 225.78 203.722 230.409 210.422C232.089 212.854 234.248 214.971 235.866 217.418C229.975 227.459 200.975 232.089 190.287 238.343C195.074 241.739 206.444 244.379 209.658 247.327L213.036 248.733C215.835 250.243 227.122 254.665 228.474 256.5L228.49 256.629C222.111 257.33 215.34 259.978 209.133 261.663C204.442 262.746 199.762 263.818 194.987 264.461C191.226 264.968 187.207 265.031 183.528 265.916C179.043 269.944 176.297 275.455 171.497 279.296C166.496 283.298 159.475 285.206 155.749 290.64C152.926 294.757 152.78 299.795 150.493 304.096C150.425 304.223 150.363 304.354 150.292 304.48C148.577 307.542 138.995 314.596 135.786 317.525Q130.816 322.072 126.269 327.043L126.058 326.566C125.254 327.989 125.454 329.88 125.848 331.406C126.875 335.383 128.931 344.084 129.085 347.945Q127.225 348.954 125.341 349.915L125.485 349.737L124.856 350.349C119.966 347.194 110.81 329.449 104.865 330.235C104.661 330.262 104.468 330.346 104.27 330.401C97.9339 330.75 91.8158 332.144 85.5604 333.083C80.2924 333.873 74.5182 333.809 69.4997 335.654C66.8269 336.637 64.597 338.173 62.7175 340.318C57.0658 346.77 56.6492 355.752 57.3194 363.871C57.5937 367.194 57.8666 370.707 59.1103 373.825C59.6519 375.183 60.6385 376.692 60.9937 378.068L60.3732 378.083C58.8085 375.677 57.7542 372.748 57.1917 369.936L56.5898 370.175L57.0296 370.507L56.7936 371.103C56.4903 371.89 56.4692 372.667 56.2368 373.461C55.8449 374.8 53.1433 381.537 52.4206 382.876C51.3566 384.847 48.4358 385.989 47.7774 388.142C48.6064 389.924 51.1005 389.88 52.2795 391.634C52.3094 391.679 52.3415 391.722 52.3724 391.766Q50.333 390.96 48.3998 389.924Q46.4667 388.888 44.6655 387.637Q42.8642 386.386 41.2189 384.936Q39.5735 383.487 38.1058 381.857C37.285 379.913 35.9257 378.069 35.039 376.092C32.6366 370.738 30.552 365.185 28.457 359.704C23.7931 347.502 20.0014 334.963 14.1894 323.207C13.1091 328.862 11.8049 334.46 11.895 340.246L11.3607 339.584C9.52218 339.588 7.54396 340.267 6.22761 341.586C4.2543 336.1 2.62001 330.503 0.951964 324.918C0.940614 324.62 0.934992 324.322 0.940762 324.024C1.10934 315.323 2.47459 306.529 3.72932 297.931Q4.41844 293.273 5.23352 288.635Q6.04859 283.997 6.98902 279.384Q7.92945 274.77 8.99454 270.183Q10.0596 265.596 11.2486 261.04Q12.4376 256.484 13.7496 251.961Q15.0616 247.439 16.4956 242.954Q17.9296 238.469 19.4846 234.024Q21.0397 229.579 22.7145 225.178Q24.3894 220.778 26.1829 216.424Q27.9764 212.07 29.8872 207.766Q31.798 203.462 33.8247 199.212Q35.8514 194.962 37.9925 190.768Q40.1337 186.574 42.3876 182.44Q44.6416 178.305 47.0067 174.234Q49.3719 170.162 51.8465 166.156Q54.3211 162.15 56.9033 158.212C60.7715 152.393 65.8053 143.449 70.8332 138.725L72.1535 136.905L72.6185 137.006C82.1972 139.036 91.6692 138.144 100.889 142.18C104.75 143.87 107.768 146.92 111.53 148.652C113.258 148.557 114.861 148.484 116.525 147.946C120.524 146.728 124.327 144.254 127.722 141.868L127.665 141.444C127.636 141.237 127.602 141.03 127.574 140.823C127.508 140.33 127.497 139.708 127.302 139.249C126.105 136.428 116.473 135.953 113.721 135.392C111.951 135.032 110.229 134.438 108.524 133.849L108.28 133.66C107.293 133.077 106.714 132.427 106.456 131.302C105.977 129.216 107.123 127.166 108.227 125.486C105.666 124.92 103.086 123.054 101.491 120.954C100.995 120.301 100.78 119.952 100.896 119.117L101.926 118.554L101.149 118.495C101.709 117.995 101.823 117.18 102.035 116.47C104.807 113.63 108.232 110.95 112.165 109.996C117.408 108.724 115.494 110.966 118.121 112.633L118.608 112.145C118.557 115.395 119.126 118.677 118.943 121.893C119.132 122.849 119.301 123.673 119.753 124.55C121.374 123.882 126.535 118.402 128.919 116.753C131.155 115.896 134.754 114.262 137.126 115.189C137.817 115.46 138.399 116.135 138.575 116.85C138.601 116.957 138.604 117.069 138.619 117.178C140.112 117.576 140.657 118.177 141.767 119.198C141.953 119.37 142.15 119.53 142.344 119.693C143.848 119.92 145.723 120.011 147.113 120.636L147.535 122.037C148.282 122.394 148.873 122.332 149.683 122.32L150.676 122.893C151.003 122.693 150.81 122.845 151.146 122.324C150.245 121.194 148.899 121.516 147.947 120.447C147.315 119.737 147.271 118.729 147.495 117.847C147.848 116.46 148.829 115.434 150.054 114.745C151.917 113.696 155.728 112.819 157.787 113.536C159.191 114.024 160.827 114.291 162.307 114.479C164.521 114.76 165.349 116.607 167.303 117.117L167.312 115.1C165.565 113.357 161.87 108.856 161.445 106.395C161.255 105.296 161.963 104.57 161.146 103.62L156.69 106.09L157.607 105.786C154.365 108.028 147.613 110.032 143.671 110.296C141.584 110.436 139.584 110.415 137.937 109.017C144.087 110.051 148.504 109.007 153.927 106.006Z"/>
	<path fill="#CEDDCF" d="M110.219 123.148C111.032 123.694 111.363 123.896 111.712 124.857C109.782 126.337 109.043 127.605 108.719 130.006C108.599 130.897 108.498 131.779 108.512 132.679C108.523 133.337 108.581 133.025 108.28 133.66C107.293 133.077 106.714 132.427 106.456 131.302C105.977 129.216 107.123 127.166 108.227 125.486L110.219 123.148Z"/>
	<path fill="#CEDDCF" d="M209.658 247.327L213.036 248.733C215.835 250.243 227.122 254.665 228.474 256.5L228.49 256.629C222.111 257.33 215.34 259.978 209.133 261.663C208.554 261.517 207.962 261.438 207.373 261.341C207.799 260.867 208.829 260.868 209.46 260.767C212.963 260.207 218.095 259.166 221.207 257.515C222.033 257.076 222.514 254.942 222.814 254.073C218.46 251.838 213.895 250.043 209.557 247.756L209.658 247.327Z"/>
	<path fill="#CEDDCF" d="M189.625 174.007C193.895 175.448 198.131 178.684 200.204 182.751Q200.747 183.835 201.173 184.97C200.632 184.926 200.254 184.924 199.81 184.569C198.983 183.906 198.268 182.872 197.512 182.108C194.51 179.074 191.538 176.998 187.459 175.658L188.059 175.343C187.693 175.359 187.012 175.449 186.63 175.373C185.945 175.238 185.794 175.13 185.023 175.281L182.247 175.819C182.798 175.352 183.302 175.143 183.943 174.851C184.906 174.414 185.513 174.293 186.59 174.296C187.544 174.298 188.378 174.243 189.315 174.068C189.418 174.049 189.521 174.027 189.625 174.007Z"/>
	<path fill="#0A231E" d="M101.926 118.554C104.256 118.597 106.455 118.543 108.199 120.365C108.989 121.19 109.609 122.188 110.219 123.148L108.227 125.486C105.666 124.92 103.086 123.054 101.491 120.954C100.995 120.301 100.78 119.952 100.896 119.117L101.926 118.554Z"/>
	<defs>
		<linearGradient id="gradient_6" gradientUnits="userSpaceOnUse" x1="135.89615" y1="220.06386" x2="137.95197" y2="214.64482">
			<stop offset="0" stop-color="#BBD0BF"/>
			<stop offset="1" stop-color="#EEE1E1"/>
		</linearGradient>
	</defs>
	<path fill="url(#gradient_6)" d="M148.22 230.466C147.227 230.438 146.493 230.257 145.788 229.538C145.309 228.329 145.653 227.904 145.687 226.738C145.729 225.291 144.94 223.446 144.247 222.199C140.891 216.159 135.622 216.393 130.09 214.068Q128.983 213.61 127.933 213.033Q126.884 212.456 125.904 211.767Q124.925 211.077 124.027 210.284Q123.13 209.49 122.326 208.602L122.373 208.039L123.127 207.924C124.073 209.029 124.965 209.729 126.212 210.474C131.305 212.894 136.589 213.113 141.561 216.19C145.998 220.724 147.229 224.271 148.22 230.466Z"/>
	<path fill="#F9F6F6" d="M72.1535 136.905L72.6185 137.006C82.1972 139.036 91.6692 138.144 100.889 142.18C104.75 143.87 107.768 146.92 111.53 148.652C113.258 148.557 114.861 148.484 116.525 147.946C120.524 146.728 124.327 144.254 127.722 141.868C127.76 142.372 127.79 142.723 127.521 143.183C125.907 145.951 120.594 148.42 117.65 149.421C115.892 150.019 113.473 150.721 111.637 150.453C108.759 150.032 104.99 146.787 102.35 145.368C98.8564 143.492 94.798 141.811 90.892 141.072C85.3052 140.016 75.4463 140.975 70.8332 138.725L72.1535 136.905Z"/>
	<path fill="#0C2E28" d="M141.561 216.19C143.475 216.147 147.337 219.137 148.766 220.466C154.481 225.78 153.541 234.224 158.44 239.765L157.693 241.599C157.246 242.016 156.865 242.258 156.344 242.565C155.162 242.644 154.432 242.481 153.503 241.765C150.114 239.155 148.799 234.473 148.22 230.466C147.229 224.271 145.998 220.724 141.561 216.19Z"/>
	<path fill="#F9F6F6" d="M171.766 219.089C173.086 215.714 172.93 212.055 173.526 208.518C174.246 204.243 175.703 200.104 176.497 195.835C177.397 190.999 177.481 185.883 178.693 181.128C179.375 178.45 180.238 175.954 182.797 174.543C184.995 173.33 187.27 173.349 189.625 174.007C189.521 174.027 189.418 174.049 189.315 174.068C188.378 174.243 187.544 174.298 186.59 174.296C185.513 174.293 184.906 174.414 183.943 174.851C183.302 175.143 182.798 175.352 182.247 175.819L185.023 175.281C185.794 175.13 185.945 175.238 186.63 175.373C187.012 175.449 187.693 175.359 188.059 175.343L187.459 175.658C185.311 175.785 183.515 175.753 181.951 177.491C181.057 178.484 180.789 179.849 180.524 181.127C179.613 185.515 179.708 190.089 178.905 194.511C178.007 199.45 176.225 204.152 175.273 209.06C174.6 212.527 174.587 216.809 173.182 220.025C170.72 225.319 163.845 238.885 158.68 241.385C158.259 241.589 158.105 241.57 157.693 241.599L158.44 239.765C163.36 233.858 167.774 225.746 171.766 219.089Z"/>
	<path fill="#F9F6F6" d="M128.919 116.753C131.155 115.896 134.754 114.262 137.126 115.189C137.817 115.46 138.399 116.135 138.575 116.85C138.601 116.957 138.604 117.069 138.619 117.178C140.112 117.576 140.657 118.177 141.767 119.198C141.953 119.37 142.15 119.53 142.344 119.693C143.848 119.92 145.723 120.011 147.113 120.636L147.535 122.037C148.282 122.394 148.873 122.332 149.683 122.32L150.676 122.893C151.857 123.977 153.223 124.94 154.52 125.882C155.261 126.391 156.005 126.894 156.739 127.413C159.439 129.324 163.679 130.391 165.475 131.765C167.97 131.192 169.532 131.43 171.974 132.109C174.078 133.891 176.243 135.836 176.631 138.738C176.609 138.747 176.589 138.767 176.565 138.767C175.585 138.77 173.968 136.491 173.164 135.762C170.891 133.7 168.016 133.924 165.177 134.062C159.884 137.237 159.551 140.848 155.911 145.007C154.717 146.372 153.075 147.365 151.22 147.386C149.024 147.411 147.162 146.027 145.686 144.534C138.98 137.75 136.38 126.294 136.334 117.087C134.474 117.38 132.178 117.649 130.487 118.466C126.854 120.221 123.417 126.197 119.3 126.046C118.6 125.579 118.399 125.483 118.242 124.587C118.07 123.61 118.393 122.676 118.943 121.893C119.132 122.849 119.301 123.673 119.753 124.55C121.374 123.882 126.535 118.402 128.919 116.753Z"/>
	<path fill="#0E382F" d="M138.619 117.178C140.112 117.576 140.657 118.177 141.767 119.198C141.953 119.37 142.15 119.53 142.344 119.693C143.848 119.92 145.723 120.011 147.113 120.636C146.997 122.409 146.949 124.101 147.208 125.865C147.652 128.9 151.694 143.475 150.758 145.224C148.573 144.504 147.178 143.515 145.736 141.69C141.562 136.409 137.904 123.784 138.619 117.178Z"/>
	<path fill="#186B56" d="M147.113 120.636L147.535 122.037C148.282 122.394 148.873 122.332 149.683 122.32L150.676 122.893C151.857 123.977 153.223 124.94 154.52 125.882C155.261 126.391 156.005 126.894 156.739 127.413C159.439 129.324 163.679 130.391 165.475 131.765C157.756 134.933 157.198 143.924 153.701 145.352C152.767 145.734 151.698 145.434 150.758 145.224C151.694 143.475 147.652 128.9 147.208 125.865C146.949 124.101 146.997 122.409 147.113 120.636Z"/>
	<defs>
		<linearGradient id="gradient_7" gradientUnits="userSpaceOnUse" x1="223.92014" y1="133.11267" x2="123.55595" y2="204.33488">
			<stop offset="0" stop-color="#0A463B"/>
			<stop offset="1" stop-color="#19745D"/>
		</linearGradient>
	</defs>
	<path fill="url(#gradient_7)" d="M153.927 106.006C156.363 105.044 160.297 102.366 162.746 103.05C162.751 105.587 163.177 108.053 164.91 110.03C165.961 111.766 167.911 112.16 169.724 112.728C168.889 112.915 168.603 112.917 167.923 113.465C168.419 114.086 168.921 114.201 169.698 114.293C170.509 114.389 172.62 114.187 173.237 114.562C174.017 115.035 173.913 115.555 174.94 115.853L175.236 115.879C175.643 115.095 176.334 114.429 177.06 113.935C179.87 112.02 183.307 113.055 186.359 113.676C196.171 115.971 208.236 116.752 216.137 123.677L217.38 127.642L217.633 127.54L218.248 127.129C221.71 130.96 225.757 134.573 228.736 138.788C231.614 142.86 232.662 147.774 234.308 152.404C234.983 154.304 235.832 156.141 236.477 158.05C234.62 161.146 232.484 164.02 228.81 164.952C228.116 165.128 227.403 165.252 226.714 165.438C226.248 165.564 226.376 165.557 225.91 165.947C225.412 171.58 224.392 180.491 220.315 184.795L218.918 185.026C212.952 186.473 211.741 192.142 206.894 194.615C206.271 194.655 205.787 194.692 205.205 194.402C202.452 193.034 202.451 188.052 201.405 185.516C201.33 185.333 201.25 185.152 201.173 184.97Q200.747 183.835 200.204 182.751C198.131 178.684 193.895 175.448 189.625 174.007C187.27 173.349 184.995 173.33 182.797 174.543C180.238 175.954 179.375 178.45 178.693 181.128C177.481 185.883 177.397 190.999 176.497 195.835C175.703 200.104 174.246 204.243 173.526 208.518C172.93 212.055 173.086 215.714 171.766 219.089C167.774 225.746 163.36 233.858 158.44 239.765C153.541 234.224 154.481 225.78 148.766 220.466C147.337 219.137 143.475 216.147 141.561 216.19C136.589 213.113 131.305 212.894 126.212 210.474C124.965 209.729 124.073 209.029 123.127 207.924C122.099 206.435 121.119 204.867 120.41 203.196C118.222 198.036 118.469 192.418 120.539 187.274C125.027 176.123 137.707 170.446 148.482 167.362C153.495 165.927 158.952 164.957 163.736 162.884L164.171 162.692C166.4 158.846 167.422 154.326 169.989 150.671C171.824 148.059 174.951 146.545 176.682 143.823C177.831 142.016 177.471 140.623 177.061 138.639L176.631 138.738C176.243 135.836 174.078 133.891 171.974 132.109C169.532 131.43 167.97 131.192 165.475 131.765C163.679 130.391 159.439 129.324 156.739 127.413C156.005 126.894 155.261 126.391 154.52 125.882C153.223 124.94 151.857 123.977 150.676 122.893C151.003 122.693 150.81 122.845 151.146 122.324C150.245 121.194 148.899 121.516 147.947 120.447C147.315 119.737 147.271 118.729 147.495 117.847C147.848 116.46 148.829 115.434 150.054 114.745C151.917 113.696 155.728 112.819 157.787 113.536C159.191 114.024 160.827 114.291 162.307 114.479C164.521 114.76 165.349 116.607 167.303 117.117L167.312 115.1C165.565 113.357 161.87 108.856 161.445 106.395C161.255 105.296 161.963 104.57 161.146 103.62L156.69 106.09L157.607 105.786C154.365 108.028 147.613 110.032 143.671 110.296C141.584 110.436 139.584 110.415 137.937 109.017C144.087 110.051 148.504 109.007 153.927 106.006Z"/>
	<path fill="#CEDDCF" d="M150.028 115.433C150.531 116.336 150.574 116.437 151.488 116.903L151.499 117.197C151.573 118.84 152.165 120.144 151.651 121.722C150.329 120.486 148.75 119.322 148.473 117.433C148.727 116.425 149.264 116.058 150.028 115.433Z"/>
	<path fill="#CEDDCF" d="M150.028 115.433C153.747 113.922 158.999 113.938 162.728 115.413C164.769 116.219 166.288 117.323 167.431 119.203C167.152 119.727 167.355 119.461 166.726 119.919C165.256 119.248 164.057 118.191 162.575 117.537C159.152 116.03 155.034 115.502 151.488 116.903C150.574 116.437 150.531 116.336 150.028 115.433Z"/>
	<path fill="#0A231E" d="M168.12 121.987L168.396 121.534C168.586 122.933 168.394 124.285 168.253 125.681C167.231 126.624 166.62 127.465 165.941 128.676C165.63 129.231 165.297 129.675 164.894 130.163L165.222 130.607C167.622 130.892 170.639 130.24 172.694 131.866L171.974 132.109C169.532 131.43 167.97 131.192 165.475 131.765C163.679 130.391 159.439 129.324 156.739 127.413C156.005 126.894 155.261 126.391 154.52 125.882L154.897 124.788C155.936 125.396 156.944 125.833 158.119 126.119C160.723 126.754 163.901 126.968 166.224 125.402C167.55 124.51 167.797 123.456 168.12 121.987Z"/>
	<path fill="#84C7A2" d="M151.488 116.903C155.034 115.502 159.152 116.03 162.575 117.537C164.057 118.191 165.256 119.248 166.726 119.919C167.355 119.461 167.152 119.727 167.431 119.203C167.846 120.151 167.988 120.976 168.12 121.987C167.797 123.456 167.55 124.51 166.224 125.402C163.901 126.968 160.723 126.754 158.119 126.119C156.944 125.833 155.936 125.396 154.897 124.788C154.186 123.73 152.59 122.712 151.651 121.722C152.165 120.144 151.573 118.84 151.499 117.197L151.488 116.903Z"/>
	<path fill="#0C2E28" d="M177.061 138.639L177.904 138.429C179.842 139.946 184.563 144.387 184.833 146.823C184.934 147.734 184.643 148.401 184.014 149.032C182.287 150.765 179.9 151.891 178.049 153.503C174.35 156.726 172.651 163.33 170.989 167.808L170.572 167.963C155.743 173.39 134.502 176.216 127.222 192.502C125.861 195.546 124.236 202.582 125.014 205.796C125.06 205.985 125.1 206.176 125.146 206.365C125.497 207.785 126.063 208.865 126.86 210.079C126.649 210.218 126.449 210.384 126.212 210.474C124.965 209.729 124.073 209.029 123.127 207.924C122.099 206.435 121.119 204.867 120.41 203.196C118.222 198.036 118.469 192.418 120.539 187.274C125.027 176.123 137.707 170.446 148.482 167.362C153.495 165.927 158.952 164.957 163.736 162.884L164.171 162.692C166.4 158.846 167.422 154.326 169.989 150.671C171.824 148.059 174.951 146.545 176.682 143.823C177.831 142.016 177.471 140.623 177.061 138.639Z"/>
	<path fill="#84C7A2" d="M175.236 115.879C175.643 115.095 176.334 114.429 177.06 113.935C179.87 112.02 183.307 113.055 186.359 113.676C196.171 115.971 208.236 116.752 216.137 123.677L217.38 127.642L217.633 127.54C219.462 133.048 222.171 138.59 225.107 143.597C226.414 145.827 228.245 148.087 229.291 150.425C229.644 151.212 229.637 151.802 229.205 152.582C226.822 156.892 220.793 158.606 217.576 162.396C218.546 163.92 219.596 165.437 220.491 167.003C219.387 171.214 217.043 176.294 213.082 178.468C211.508 179.332 209.624 179.691 207.878 179.164C205.843 178.55 204.587 176.866 203.693 175.032C202.728 173.052 202.55 171.58 202.519 169.388C200.277 168.286 196.84 167.047 195.92 164.51C195.414 163.113 195.555 161.644 195.765 160.208C197.471 154.675 202.926 152.149 206.343 147.79C205.456 146.075 204.525 144.604 203.822 142.773L203.378 142.708C200.03 138.076 193.338 140.434 188.714 137.786C187.281 136.966 186.386 135.212 185.971 133.667C185.22 133.447 184.472 133.174 183.786 132.791C178.467 129.821 176.502 121.247 174.94 115.853L175.236 115.879Z"/>
	<path fill="#CEDDCF" d="M206.343 147.79L207.405 148.135C207.6 148.703 207.72 148.667 207.439 149.26C205.408 153.554 199.189 155.607 197.385 160.056C196.967 161.087 196.902 162.291 196.669 163.378L196.199 163.167C195.97 162.17 195.845 161.227 195.765 160.208C197.471 154.675 202.926 152.149 206.343 147.79Z"/>
	<path fill="#CEDDCF" d="M175.236 115.879C175.643 115.095 176.334 114.429 177.06 113.935C179.87 112.02 183.307 113.055 186.359 113.676C196.171 115.971 208.236 116.752 216.137 123.677L217.38 127.642C217.317 127.912 217.134 128.196 217.009 128.445C216.032 128.15 214.994 125.985 214.223 125.143C209.001 119.442 189.617 115.458 181.877 115.195C179.788 115.124 177.556 116.132 175.603 115.948C175.479 115.936 175.359 115.902 175.236 115.879Z"/>
	<path fill="#0A231E" d="M185.971 133.667C188.944 133.399 198.975 131.661 201.158 133.182C203.563 134.858 203.522 140.17 203.822 142.773L203.378 142.708C200.03 138.076 193.338 140.434 188.714 137.786C187.281 136.966 186.386 135.212 185.971 133.667Z"/>
	<path fill="#186B56" d="M11.895 340.246C11.8049 334.46 13.1091 328.862 14.1894 323.207C20.0014 334.963 23.7931 347.502 28.457 359.704C30.552 365.185 32.6366 370.738 35.039 376.092C35.9257 378.069 37.285 379.913 38.1058 381.857Q39.5735 383.487 41.2189 384.937Q42.8642 386.386 44.6655 387.637Q46.4667 388.889 48.3998 389.924Q50.333 390.96 52.3724 391.766C60.4098 395.036 69.7021 395.373 77.272 399.698C81.193 401.938 84.4839 405.188 88.0833 407.889C91.7437 410.636 95.9559 412.847 99.079 416.24C107.35 425.228 109.866 434.675 122.381 440.389C124.145 441.059 125.97 441.93 127.858 442.12L128.426 441.776C128.394 441.22 128.366 441.078 128.101 440.557L128.628 439.944C132.028 441.402 134.699 445.019 137.971 446.921C138.346 447.138 138.653 447.308 138.928 447.639C138.272 459.521 134.308 463.287 130.187 473.585C123.293 490.809 131.042 506.657 140.8 520.88Q148.289 531.898 157.275 541.733C160.238 545.033 163.53 548.347 167.433 550.527C174.771 554.625 179.291 552.576 183.633 561.282C184.386 561.23 184.788 561.378 185.366 560.787C186.752 559.37 185.981 557.183 188.5 556.431C191.165 555.637 193.069 557.711 195.388 557.604C197.028 557.528 198.682 555.458 200.403 555.616C202.502 555.808 206.694 558.608 207.953 556.549C208.084 556.335 208.246 555.989 208.359 555.754C212.262 557.172 218.042 564.052 220.141 564.495C220.588 564.59 221.218 564.364 221.62 564.185C222.033 564.001 222.437 563.793 222.84 563.588C224.904 564.018 226.056 567.626 227.392 567.757C228.088 566.877 228.193 566.669 229.287 566.273C230.451 566.379 231.702 566.723 232.442 567.717C232.763 568.149 232.914 568.654 233.104 569.147C234.32 572.304 240.795 575.221 243.351 577.975C246.293 581.144 242.878 583.018 246.292 585.698C245.234 587.075 243.928 588.482 243.283 590.103C243.778 590.526 244.597 591.05 244.977 591.55C245.699 592.502 247.269 600.365 247.369 601.716C247.707 606.313 247.605 611.17 245.983 615.53C245.427 617.023 244.3 618.739 244.062 620.285C243.947 621.028 244.089 621.07 244.572 621.56C245.894 621.7 247.96 621.255 248.973 620.376C250.218 619.296 252.068 617.624 252.815 616.166L253.558 616.204C252.292 618.565 249.294 621.526 246.627 622.236C245.548 622.523 244.491 622.379 243.551 621.754C242.151 620.823 241.408 619.2 240 618.239C239.287 618.418 239.289 618.565 238.941 619.185C237.888 621.06 238.572 623.383 239.174 625.293Q239.678 626.849 240.255 628.379C240.211 628.524 240.169 628.67 240.124 628.815C235.902 642.312 225.953 649.735 233.651 664.996Q234.806 667.27 236.388 669.27C237.436 670.579 243.586 676.621 243.131 678.158C242.825 679.192 242.165 679.97 241.162 680.397C239.271 681.202 237.334 681.027 235.389 680.625C234.788 680.5 235.06 680.543 234.393 680.496C238.314 682.117 242.466 683.375 246.521 684.623C250.327 686.062 254.315 686.983 258.231 688.067Q271.419 691.601 284.835 694.128Q298.252 696.656 311.821 698.164C318.597 698.964 326.932 698.474 333.389 700L0 700L0 366.557L0 334.366C0.764159 331.479 0.682093 327.908 0.951964 324.918C2.62001 330.503 4.2543 336.1 6.22761 341.586C7.54396 340.267 9.52218 339.588 11.3607 339.584L11.895 340.246ZM0 366.557L0 700L333.389 700C326.932 698.474 318.597 698.964 311.821 698.164Q298.252 696.656 284.835 694.128Q271.419 691.601 258.231 688.067C254.315 686.983 250.327 686.062 246.521 684.623C242.466 683.375 238.314 682.117 234.393 680.496L234.238 680.47C229.422 679.309 212.658 672.903 208.598 670.465C203.499 668.586 198.655 666.065 193.805 663.631Q183.122 658.311 172.841 652.252Q162.56 646.193 152.731 639.425Q149.414 637.163 146.15 634.826Q142.886 632.488 139.676 630.077Q136.466 627.665 133.312 625.181Q130.159 622.697 127.063 620.141Q123.966 617.585 120.929 614.96Q117.893 612.334 114.917 609.639Q111.94 606.944 109.027 604.182Q106.113 601.42 103.264 598.592Q100.414 595.765 97.6296 592.872Q94.8454 589.98 92.128 587.024Q89.4107 584.069 86.7617 581.052Q84.1126 578.036 81.5333 574.959Q78.9539 571.883 76.4456 568.748Q73.9374 565.613 71.5014 562.422Q69.0655 559.231 66.7032 555.985Q64.3409 552.738 62.0535 549.439Q59.7661 546.14 57.5547 542.789Q55.3434 539.438 53.2093 536.038Q51.0751 532.637 49.0194 529.189Q46.9636 525.74 44.9872 522.246Q43.0109 518.751 41.115 515.212Q39.219 511.674 37.4046 508.092Q35.5901 504.511 33.8581 500.889Q32.126 497.267 30.4772 493.607Q28.8285 489.946 27.2639 486.249Q25.6993 482.552 24.2197 478.819Q22.7401 475.087 21.3462 471.322Q19.9524 467.557 18.645 463.762Q17.3376 459.966 16.1174 456.141Q14.8972 452.316 13.7649 448.464Q12.6325 444.613 11.5885 440.736Q10.5445 436.859 9.58947 432.96Q4.43483 411.38 1.94707 389.333C1.14081 381.977 1.53306 374.094 0.0716758 366.888C0.0492256 366.778 0.0238919 366.667 0 366.557Z"/>
	<path fill="#114C40" d="M213.138 666.664C219.649 671.928 226.095 676.215 233.609 679.955C233.999 680.149 233.869 680.088 234.238 680.47C229.422 679.309 212.658 672.903 208.598 670.465L208.904 670.05C210.313 670.285 211.37 671.219 212.745 671.585C215.355 672.28 217.481 673.659 219.944 674.684C221.092 675.162 221.443 675.177 222.588 674.716C221.354 673.006 215.409 669.504 213.088 667.184L213.138 666.664Z"/>
	<path fill="#CEDDCF" d="M6.22761 341.586C7.54396 340.267 9.52218 339.588 11.3607 339.584L11.895 340.246C12.9496 348.685 14.7997 356.778 16.7199 365.047C11.4712 358.64 9.80332 349.003 6.22761 341.586Z"/>
	<path fill="#0E382F" d="M38.1058 381.857Q39.5735 383.487 41.2189 384.937Q42.8642 386.386 44.6655 387.637Q46.4667 388.889 48.3998 389.924Q50.333 390.96 52.3724 391.766C60.4098 395.036 69.7021 395.373 77.272 399.698C81.193 401.938 84.4839 405.188 88.0833 407.889C91.7437 410.636 95.9559 412.847 99.079 416.24C107.35 425.228 109.866 434.675 122.381 440.389C121.622 440.819 121.044 440.531 120.207 440.393L119.898 440.52C114.604 438.787 98.3393 418.19 91.0471 413.011C86.3114 409.647 80.1438 407.224 74.7415 405.057C72.5369 404.173 67.5208 403.264 66.0339 401.966C66.4936 401.278 66.7741 401.022 67.5203 400.662C67.936 400.763 68.2283 400.871 68.5718 401.132C69.0387 401.486 69.4103 401.817 70.0004 401.943C74.1064 402.821 79.2445 406.752 82.2019 407.123C83.2652 407.257 82.2052 407.043 83.0337 407.215C83.6608 407.346 83.9668 407.425 84.6124 407.307L82.7889 406.258Q83.6383 406.452 84.4931 406.622L84.5153 406.21C82.9735 404.217 80.9021 402.785 78.7687 401.481C69.2882 395.686 64.6466 397.079 55.7376 393.766C53.4893 392.93 50.8182 391.988 48.7138 390.858C46.3284 389.577 44.2445 387.808 41.7797 386.663C44.8177 390.863 50.0705 395.714 54.5515 398.281L55.133 398.61C58.0786 400.304 62.3871 400.518 65.7257 401.079L65.6135 401.402C62.857 401.659 58.1572 401.145 55.7966 399.585C51.6021 396.812 47.8026 394.084 44.2413 390.496C42.4848 388.727 38.0934 384.481 38.1058 381.857Z"/>
	<path fill="#569D76" d="M183.633 561.282C184.386 561.23 184.788 561.378 185.366 560.787C186.752 559.37 185.981 557.183 188.5 556.431C191.165 555.637 193.069 557.711 195.388 557.604C197.028 557.528 198.682 555.458 200.403 555.616C202.502 555.808 206.694 558.608 207.953 556.549C208.084 556.335 208.246 555.989 208.359 555.754C212.262 557.172 218.042 564.052 220.141 564.495C220.588 564.59 221.218 564.364 221.62 564.185C222.033 564.001 222.437 563.793 222.84 563.588C224.904 564.018 226.056 567.626 227.392 567.757C228.088 566.877 228.193 566.669 229.287 566.273C230.451 566.379 231.702 566.723 232.442 567.717C232.763 568.149 232.914 568.654 233.104 569.147C234.32 572.304 240.795 575.221 243.351 577.975C246.293 581.144 242.878 583.018 246.292 585.698C245.234 587.075 243.928 588.482 243.283 590.103C243.778 590.526 244.597 591.05 244.977 591.55C245.699 592.502 247.269 600.365 247.369 601.716C247.707 606.313 247.605 611.17 245.983 615.53C245.427 617.023 244.3 618.739 244.062 620.285C243.947 621.028 244.089 621.07 244.572 621.56C245.894 621.7 247.96 621.255 248.973 620.376C250.218 619.296 252.068 617.624 252.815 616.166L253.558 616.204C252.292 618.565 249.294 621.526 246.627 622.236C245.548 622.523 244.491 622.379 243.551 621.754C242.151 620.823 241.408 619.2 240 618.239C239.287 618.418 239.289 618.565 238.941 619.185C237.888 621.06 238.572 623.383 239.174 625.293Q239.678 626.849 240.255 628.379C240.211 628.524 240.169 628.67 240.124 628.815C235.902 642.312 225.953 649.735 233.651 664.996Q234.806 667.27 236.388 669.27C237.436 670.579 243.586 676.621 243.131 678.158C242.825 679.192 242.165 679.97 241.162 680.397C239.271 681.202 237.334 681.027 235.389 680.625C234.788 680.5 235.06 680.543 234.393 680.496L234.238 680.47C233.869 680.088 233.999 680.149 233.609 679.955C226.095 676.215 219.649 671.928 213.138 666.664C207.157 659.339 205.582 651.063 202.481 642.403C199.981 635.422 196.589 628.811 194.049 621.863C192.033 616.35 190.772 610.432 189.732 604.659C188.148 595.865 187.339 586.797 186.332 577.917C185.693 572.288 185.339 566.717 183.633 561.282Z"/>
	<defs>
		<linearGradient id="gradient_8" gradientUnits="userSpaceOnUse" x1="689.58698" y1="366.67337" x2="457.60275" y2="320.44116">
			<stop offset="0" stop-color="#509B6E"/>
			<stop offset="1" stop-color="#9CD5B9"/>
		</linearGradient>
	</defs>
	<path fill="url(#gradient_8)" d="M531.431 188.617C531.383 188.551 531.348 188.475 531.288 188.42C529.045 186.394 526.944 185.137 526.439 181.888C525.543 176.129 530.814 163.24 535.314 159.7C539.199 156.643 543.875 156.007 547.053 151.771C550.933 146.597 552.388 138.667 555.421 134.521C555.994 133.738 556.59 133.375 557.484 133.045C561.265 131.649 565.743 131.131 569.714 130.309C577.138 128.772 584.663 126.955 592.175 125.953C600.816 129.902 615.791 143.336 622.987 144.814C626.149 145.464 630.303 145.394 633.023 143.53C636.433 147.934 639.452 152.669 642.544 157.298Q646.295 162.959 649.821 168.763Q653.347 174.566 656.642 180.504Q659.938 186.442 662.997 192.504Q666.057 198.567 668.876 204.745Q671.695 210.923 674.27 217.207Q676.844 223.491 679.169 229.871Q681.495 236.252 683.568 242.718Q685.641 249.185 687.459 255.728C688.752 260.381 691.611 268.659 691.743 273.202C694.447 283.722 699.019 308.637 698.707 319.111C699.17 323.749 699.014 328.788 700 333.321L700 367.035C698.813 372.959 698.953 379.504 698.444 385.542C698.064 390.06 697.204 394.549 696.854 399.06C696.518 401.268 696.139 403.443 695.657 405.624C695.472 410.236 694.272 414.977 693.354 419.49C691.949 426.39 690.579 433.4 688.495 440.132C686.293 447.4 684.623 454.797 681.852 461.895C677.196 477.109 670.779 492.01 663.649 506.221C661.766 509.975 659.997 513.932 657.789 517.5C656.218 520.645 646.417 537.94 644.554 539.425C640.441 546.341 635.286 554.395 629.993 560.477C628.045 562.971 626.061 565.446 624.186 567.996C620.391 572.949 616.337 578.227 611.792 582.511C604.981 587.728 598.684 593.641 591.76 598.742C586.994 602.253 581.864 605.172 576.678 608.006C576.734 604.449 576.078 600.57 575.613 597.038C573.814 583.374 570.467 570.497 567.233 557.151Q565.641 552.498 564.554 547.702C569.286 541.314 573.577 535.021 575.985 527.345C581.244 510.577 567.502 497.631 560.434 483.921C556.506 476.303 555.133 468.711 557.806 460.452L558.766 458.124C553.595 456.163 548.041 454.579 543.028 452.265C540.258 450.987 537.042 448.002 534.088 447.548C529.26 446.805 513.962 452.673 508.156 453.986C502.361 455.296 495.199 455.815 489.302 454.834C478.157 455.063 472.618 442.076 465.202 436.046C465.109 435.971 465.015 435.898 464.921 435.823Q461.278 430.972 457.739 426.045C456.077 423.691 452.875 419.629 453.391 416.637C451.624 413.09 449.96 409.94 449.472 405.958C448.967 401.825 449.592 397.59 449.935 393.466Q450.595 386.339 450.61 379.181C450.568 373.517 448.645 364.836 449.408 359.974C450.648 352.086 465.336 337.286 471.456 331.68C474.513 328.879 478.241 326.395 480.806 323.127C485.493 317.155 484.895 310.203 491.77 305.444L491.214 305.096L492.923 304.113C490.139 303.541 487.868 302.264 486.118 299.983C485.038 298.575 484.743 297.343 485.017 295.613C482.318 289.802 481.856 278.136 482.297 271.73C482.452 271.018 482.651 270.296 482.924 269.619C483.796 267.455 486.175 266.176 488.261 265.442C490.688 264.587 493.428 264.335 495.96 263.917C501.621 262.982 507.103 261.887 512.373 259.535C522.798 251.745 509.335 247.172 510.868 240.395C511.913 235.779 524.425 224.793 528.325 221.799C532.194 218.83 536.403 216.315 540.401 213.525C540.156 213.303 540.012 213.189 539.799 212.91C538.428 211.115 539.358 209.096 539.741 207.128C539.611 207.096 539.477 207.081 539.353 207.033C538.587 206.736 538.405 206.446 538.195 205.653C537.385 202.592 539.697 198.062 541.112 195.426C539.427 194.64 532.078 190.078 531.08 188.919L531.431 188.617Z"/>
	<path fill="#0A231E" d="M524.06 445.216C527.613 444.491 531.015 443.901 534.649 443.939C543.681 450.492 550.066 451.909 560.794 454.206L559.196 457.327C553.337 455.885 544.937 452.125 539.656 449.078C537.847 448.034 536.367 446.582 534.493 445.642C534.402 445.596 534.31 445.554 534.219 445.51L534.976 445.286C534.136 442.673 526.282 446.561 524.06 445.216Z"/>
	<path fill="#CEDDCF" d="M512.373 259.535L512.888 260.16C512.604 261.129 512.207 261.361 511.339 261.862C504.455 265.836 496.105 264.705 488.93 267.452C486.032 268.562 484.177 272.061 482.687 272.484L482.297 271.73C482.452 271.018 482.651 270.296 482.924 269.619C483.796 267.455 486.175 266.176 488.261 265.442C490.688 264.587 493.428 264.335 495.96 263.917C501.621 262.982 507.103 261.887 512.373 259.535Z"/>
	<path fill="#0E382F" d="M453.391 416.637C459.237 426.13 474.668 448.798 485.1 451.549C484.998 451.573 484.896 451.598 484.793 451.621C484.02 451.796 483.536 451.948 482.777 451.607C483.419 452.794 485.972 453.908 487.244 454.325C487.913 454.545 488.613 454.69 489.302 454.834C478.157 455.063 472.618 442.076 465.202 436.046C465.109 435.971 465.015 435.898 464.921 435.823Q461.278 430.972 457.739 426.045C456.077 423.691 452.875 419.629 453.391 416.637Z"/>
	<path fill="#0C2E28" d="M583.833 179.47C588.044 178.911 598.71 176.391 602.026 178.531C602.502 179.373 602.676 179.581 602.5 180.58C602.235 182.094 600.419 184.056 599.342 185.096C595.474 182.982 589.668 185.091 585.349 183.5C585.394 183.361 585.437 183.22 585.486 183.081C585.554 182.888 585.627 182.698 585.697 182.506C584.709 181.911 583.486 181.33 583.174 180.183L583.833 179.47Z"/>
	<path fill="#0C2E28" d="M531.431 188.617C531.544 188.619 531.658 188.623 531.771 188.623C538.587 188.627 543.197 185.011 551.501 185.753C552.95 185.883 554.464 185.959 555.617 186.937C555.621 187.708 555.766 187.473 555.287 187.972C552.121 191.264 545.073 190.918 541.112 195.426C539.427 194.64 532.078 190.078 531.08 188.919L531.431 188.617Z"/>
	<path fill="#114C40" d="M564.487 302.477L564.968 301.755C565.635 301.712 565.427 301.599 565.888 301.989C566.93 302.87 567.833 305.157 567.869 306.541C567.912 308.229 567.789 309.935 567.991 311.613C572.241 315.526 593.902 318.523 596.737 322.402C595.515 324.535 594.311 327.043 592.521 328.743C590.59 328.742 587.693 323.667 586.016 322.373C583.858 320.708 577.626 319.771 574.795 318.86C571.258 317.723 563.481 315.296 561.805 311.624C560.566 308.908 563.472 305.012 564.487 302.477Z"/>
	<path fill="#0C2E28" d="M524.06 445.216C526.282 446.561 534.136 442.673 534.976 445.286L534.219 445.51C534.31 445.554 534.402 445.596 534.493 445.642C536.367 446.582 537.847 448.034 539.656 449.078C544.937 452.125 553.337 455.885 559.196 457.327L558.766 458.124C553.595 456.163 548.041 454.579 543.028 452.265C540.258 450.987 537.042 448.002 534.088 447.548C529.26 446.805 513.962 452.673 508.156 453.986C502.361 455.296 495.199 455.815 489.302 454.834C488.613 454.69 487.913 454.545 487.244 454.325C485.972 453.908 483.419 452.794 482.777 451.607C483.536 451.948 484.02 451.796 484.793 451.621C484.896 451.598 484.998 451.573 485.1 451.549C498.488 452.245 511.137 448.033 524.06 445.216Z"/>
	<defs>
		<linearGradient id="gradient_9" gradientUnits="userSpaceOnUse" x1="659.76331" y1="375.08817" x2="679.60187" y2="369.37366">
			<stop offset="0" stop-color="#10342C"/>
			<stop offset="1" stop-color="#1F755D"/>
		</linearGradient>
	</defs>
	<path fill="url(#gradient_9)" d="M651.166 345.902C659.136 352.112 668.742 368.422 675.937 376.673C676.02 376.832 676.1 376.993 676.185 377.151C678.58 381.615 688.679 390.077 686.967 395.36C686.533 396.698 685.393 397.553 684.158 398.116C681.328 399.405 677.503 398.855 674.695 397.761C673.357 397.239 672.141 396.401 670.87 395.741C668.534 393.798 666.336 391.648 664.867 388.955C661.051 381.958 659.36 373.329 656.994 365.729C654.977 359.254 652.187 352.599 651.166 345.902Z"/>
	<defs>
		<linearGradient id="gradient_10" gradientUnits="userSpaceOnUse" x1="556.99481" y1="178.85826" x2="584.67639" y2="201.3844">
			<stop offset="0" stop-color="#082723"/>
			<stop offset="1" stop-color="#176A58"/>
		</linearGradient>
	</defs>
	<path fill="url(#gradient_10)" d="M570.049 171.642C568.1 172.675 564.722 174.76 562.495 174.19C562.022 174.069 562.049 173.809 561.864 173.411C561.957 172.972 562.044 172.565 562.225 172.152C564.31 167.384 577.424 154.779 582.316 153.027C583.51 152.6 584.523 152.426 585.684 152.965C586.143 156.518 577.306 162.154 576.274 166.923C575.574 170.154 577.075 174.3 578.912 176.975C580.158 178.789 581.761 179.151 583.833 179.47L583.174 180.183C583.486 181.33 584.709 181.911 585.697 182.506C585.627 182.698 585.554 182.888 585.486 183.081C585.437 183.22 585.394 183.361 585.349 183.5C589.668 185.091 595.474 182.982 599.342 185.096C594.962 189.235 590.978 193.594 586.999 198.111C584.793 200.616 582.434 204.023 579.843 206.034C579.251 206.493 578.418 206.66 577.68 206.638C574.683 206.55 572.216 203.782 569.351 203.069C561.417 201.095 547.082 209.73 540.401 213.525C540.156 213.303 540.012 213.189 539.799 212.91C538.428 211.115 539.358 209.096 539.741 207.128C543.096 205.122 546.276 202.856 549.837 201.215C554.334 199.142 560.306 198.76 564.137 195.547C569.828 190.772 569.595 178.477 570.049 171.642Z"/>
	<path fill="#186B56" d="M580.564 276.82C579.965 274.882 579.383 273.31 578.094 271.691C575.605 268.565 563.963 261.239 564.92 257.469C565.573 256.908 565.715 256.826 566.634 256.865C570.945 257.046 586.92 271.874 589.739 275.799C592.905 280.206 599.472 297.298 605.165 297.893C605.661 297.945 606.299 297.777 606.788 297.678C609.412 294.71 608.862 290.223 609.036 286.504C610.94 285.471 612.828 284.897 614.943 284.496C619.194 284.508 622.253 286.42 625.18 289.358C627.796 291.985 630.095 295.042 633.313 296.971C640.92 297.005 647.361 295.97 653.269 302.086C655.372 304.263 656.81 306.941 656.677 310.028C656.528 313.522 653.867 319.302 651.296 321.639C649.912 322.896 647.794 322.896 646.034 322.74C641.685 322.354 637.285 320.67 633.047 319.636C626.224 317.972 611.606 314.926 605.007 316.005Q604.434 316.096 603.878 316.262Q603.322 316.429 602.793 316.668Q602.265 316.907 601.772 317.214Q601.28 317.521 600.833 317.891C599.3 319.159 597.974 320.854 596.737 322.402C593.902 318.523 572.241 315.526 567.991 311.613C567.789 309.935 567.912 308.229 567.869 306.541C567.833 305.157 566.93 302.87 565.888 301.989C565.427 301.599 565.635 301.712 564.968 301.755L564.487 302.477C552.274 300.113 538.915 294.334 526.567 298.603C521.575 300.329 516.96 303.372 511.636 304.029C504.901 304.858 498.297 302.841 491.77 305.444L491.214 305.096L492.923 304.113C490.139 303.541 487.868 302.264 486.118 299.983C485.038 298.575 484.743 297.343 485.017 295.613C488.951 298.348 499.214 297.915 503.96 297.08C517.449 294.707 525.024 268.704 539.722 263.896C543.006 262.822 546.519 262.957 549.885 263.532C553.358 264.125 557.675 265.164 560.601 267.209C566.692 271.466 563.88 280.917 570.908 284.995C571.877 285.557 572.924 286 574.066 285.854C575.863 285.625 577.211 284.152 578.199 282.755C579.486 280.935 580.113 278.983 580.564 276.82Z"/>
	<path fill="#0E382F" d="M609.036 286.504C610.94 285.471 612.828 284.897 614.943 284.496C615.348 287.876 614.449 294.286 612.464 297.013C611.898 297.792 611.256 298.281 610.302 298.5C609.417 298.704 607.84 298.389 607.084 297.917C606.976 297.85 606.886 297.758 606.788 297.678C609.412 294.71 608.862 290.223 609.036 286.504Z"/>
	<path fill="#569D76" d="M691.743 273.202C694.447 283.722 699.019 308.637 698.707 319.111C699.17 323.749 699.014 328.788 700 333.321L700 367.035C698.813 372.959 698.953 379.504 698.444 385.542C698.064 390.06 697.204 394.549 696.854 399.06C696.518 401.268 696.139 403.443 695.657 405.624C695.472 410.236 694.272 414.977 693.354 419.49C691.949 426.39 690.579 433.4 688.495 440.132C686.293 447.4 684.623 454.797 681.852 461.895C677.196 477.109 670.779 492.01 663.649 506.221C661.766 509.975 659.997 513.932 657.789 517.5C656.218 520.645 646.417 537.94 644.554 539.425C640.441 546.341 635.286 554.395 629.993 560.477C628.045 562.971 626.061 565.446 624.186 567.996C620.391 572.949 616.337 578.227 611.792 582.511C604.981 587.728 598.684 593.641 591.76 598.742C586.994 602.253 581.864 605.172 576.678 608.006C576.734 604.449 576.078 600.57 575.613 597.038C573.814 583.374 570.467 570.497 567.233 557.151C568.508 558.559 569.199 561.256 569.593 563.096C569.62 563.222 569.644 563.348 569.669 563.473C571.401 562.227 571.862 559.937 573.26 558.391C573.344 558.299 573.439 558.217 573.529 558.13C574.353 554.656 576.622 549.769 578.648 546.798C579.721 545.224 581.011 543.866 581.987 542.203C583.452 539.708 584.478 536.984 585.729 534.381C587.868 529.93 589.937 526.572 591.481 521.743L592.527 521.388C592.443 520.587 592.571 520.931 592.129 520.248C591.799 519.739 591.454 519.336 591.348 518.722C590.987 516.635 591.213 510.244 591.703 508.187C591.922 507.271 592.477 506.335 592.957 505.533C593.014 505.438 593.074 505.344 593.132 505.25C593.073 505.174 593.013 505.1 592.957 505.022C591.705 503.274 591.016 501.423 590.693 499.298C589.821 493.563 593.097 490.717 594.932 485.67C596.057 482.575 596.405 479.131 597.87 476.194C599.737 472.448 603.111 468.279 603.799 464.174C604.408 460.543 608.715 455.777 611.352 453.293C612.549 452.166 614.241 451.059 615.225 449.766C616.778 447.725 615.727 444.14 616.729 441.803C617.601 439.766 620.082 438.593 621.05 436.721C621.565 435.726 621.419 432.825 621.826 431.484C623.057 427.433 624.987 423.37 626.431 419.349C627.556 416.214 628.307 412.734 629.65 409.725C630.491 407.84 631.551 405.721 632.858 404.123C634.679 401.896 635.51 399.497 637.004 397.111C639.072 393.808 639.536 388.681 640.913 384.922C641.509 383.297 642.544 380.656 644.34 380.065C644.992 379.851 645.709 379.962 646.329 380.22C647.799 380.831 648.747 382.156 650.092 382.943C651.339 383.673 653.142 383.771 654.226 384.684C654.965 385.306 655.394 386.619 655.921 387.437C657.205 389.427 660.509 393.923 662.582 394.827C663.218 394.666 663.772 394.527 664.43 394.484C665.081 394.442 664.798 394.394 665.368 394.923L665.041 396.081C665.604 398.369 670.955 399.081 672.745 400.022C673.419 400.376 673.881 401.011 674.347 401.592C674.429 401.694 674.508 401.798 674.589 401.9C674.845 401.398 675.06 401.097 675.458 400.68C675.586 400.546 675.72 400.418 675.851 400.287L675.77 399.893L673.326 398.317L673.603 398.406L673.59 398.305L670.909 396.392L670.87 395.741C672.141 396.401 673.357 397.239 674.695 397.761C677.503 398.855 681.328 399.405 684.158 398.116C685.393 397.553 686.533 396.698 686.967 395.36C688.679 390.077 678.58 381.615 676.185 377.151C676.1 376.993 676.02 376.832 675.937 376.673C677.367 376.533 678.852 380.813 680.934 381.432C681.735 380.881 681.982 379.771 682.366 378.883C682.497 378.81 682.631 378.744 682.758 378.665C683.06 378.475 683.589 378.055 683.626 377.643C683.746 376.319 683.042 374.423 682.939 372.999C682.685 369.509 682.747 365.822 683 362.331C683.44 356.257 685.687 350.361 688.2 344.87C689.25 342.578 690.646 340.175 691.108 337.687C691.35 336.385 691.435 334.182 692.341 333.275L693.741 333.352C694.676 329.928 696.173 326.386 697.765 323.222L698.244 323.058L698.337 321.806C697.993 315.432 697.282 309.099 696.274 302.823C695.898 300.479 695.92 298.237 695.343 295.877C694.848 296.086 694.385 296.344 693.911 296.595L693.225 296.375C692.781 293.925 694.694 292.033 694.47 289.652C693.581 290.017 692.855 290.426 691.875 290.189L691.562 289.61C691.559 288.42 692.787 287.558 693.364 286.584C693.974 285.557 693.649 285.234 693.286 284.223L692.944 284.201C692.692 284.835 692.59 285.071 692.098 285.573C691.712 284.4 691.885 282.832 692.383 281.705C693.138 280 691.859 279.377 691.492 277.758C691.361 277.18 691.543 276.401 691.53 275.796C691.51 274.877 691.58 274.108 691.743 273.202Z"/>
	<path fill="#0C2E28" d="M695.657 405.624C690.462 408.306 685.204 412.987 679.39 414.117C678.177 414.353 677.341 414.32 676.327 413.598C676.364 413.258 676.346 412.63 676.525 412.34C677.918 410.083 689.592 402.402 692.384 400.883C693.787 400.12 695.354 399.603 696.854 399.06C696.518 401.268 696.139 403.443 695.657 405.624Z"/>
	<path fill="#0E382F" d="M624.186 567.996C627.892 559.82 625.702 554.2 628.037 546.843C631.251 536.713 643.812 533.688 650.127 525.836C656.212 518.27 653.447 506.929 652.558 498.146C651.973 492.364 652.589 486.79 654.841 481.409C659.528 470.21 671.869 458.975 680.147 450.03C683.077 446.863 685.776 443.481 688.495 440.132C686.293 447.4 684.623 454.797 681.852 461.895C677.196 477.109 670.779 492.01 663.649 506.221C661.766 509.975 659.997 513.932 657.789 517.5C656.218 520.645 646.417 537.94 644.554 539.425C640.441 546.341 635.286 554.395 629.993 560.477C628.045 562.971 626.061 565.446 624.186 567.996Z"/>
	<path fill="#186B56" d="M629.993 560.477L629.453 559.982C629.324 559.145 629.256 558.432 629.395 557.589C630.111 553.248 637.224 543.042 640.833 540.446C642.101 539.533 643.035 539.181 644.554 539.425C640.441 546.341 635.286 554.395 629.993 560.477Z"/>
	<path fill="#186B56" d="M657.789 517.5C657.14 517.059 657.009 517.055 656.864 516.244C656.475 514.066 656.681 511.51 656.643 509.281C656.541 503.392 656.196 496.992 658.573 491.465C659.196 490.017 660.102 488.718 660.795 487.305C661.783 485.29 662.546 483.023 663.868 481.209C664.513 480.324 665.02 479.663 664.928 478.513C664.912 478.313 664.886 478.114 664.865 477.915L665.367 478.229C664.727 477.691 664.881 478.014 664.772 477.334C666.693 474.44 679.301 460.963 681.678 459.575C681.571 460.301 681.451 460.781 681.685 461.497C681.73 461.633 681.796 461.762 681.852 461.895C677.196 477.109 670.779 492.01 663.649 506.221C661.766 509.975 659.997 513.932 657.789 517.5Z"/>
</svg>
