<svg xmlns="http://www.w3.org/2000/svg" viewBox="0 0 240.65 46.99"><defs><style>.cls-1{fill:#231f20;}</style></defs><g id="Layer_2" data-name="Layer 2"><g id="Layer_1-2" data-name="Layer 1"><path d="M19.32.33c0,10.09.51,19.92-.14,29.66S10.79,46.13.24,46.82c0-10.44-.66-20.9.2-31.24C1.17,6.79,10.55-.13,19.32.33Z"/><path d="M33.37,0A10.82,10.82,0,0,1,44.16,11.13,11.08,11.08,0,0,1,33,22,11.19,11.19,0,0,1,22.41,11,10.73,10.73,0,0,1,33.37,0Z"/><path d="M22.41,35.6a10.88,10.88,0,1,1,21.75.82A11.22,11.22,0,0,1,33.16,47,11.31,11.31,0,0,1,22.41,35.6Z"/><path class="cls-1" d="M76.53,34.55A12,12,0,0,1,70.29,33a10.84,10.84,0,0,1-4.16-4.5,14.65,14.65,0,0,1-1.48-6.75,14.75,14.75,0,0,1,1.53-6.86,11.33,11.33,0,0,1,4.36-4.66,12.92,12.92,0,0,1,6.78-1.7,12.25,12.25,0,0,1,7.4,2.13,9.65,9.65,0,0,1,3.8,5.9H83.08a4.83,4.83,0,0,0-2-2.61,6.92,6.92,0,0,0-3.78-1A7.64,7.64,0,0,0,73.13,14a6.94,6.94,0,0,0-2.61,3,11,11,0,0,0-.9,4.65,11,11,0,0,0,.88,4.64,6.37,6.37,0,0,0,2.56,2.9,7.58,7.58,0,0,0,3.94,1,6.67,6.67,0,0,0,5-1.78,7.76,7.76,0,0,0,2-4.63h-6.2V20.18H89V34.12H84.49l-.4-3.21a8.25,8.25,0,0,1-1.85,2,7.42,7.42,0,0,1-2.47,1.22A11.27,11.27,0,0,1,76.53,34.55Z"/><path class="cls-1" d="M93.34,34.12V16h4.32l.44,3.31a7.83,7.83,0,0,1,1.67-2A7,7,0,0,1,102,16a8.43,8.43,0,0,1,2.82-.45v5.15h-1.65a8.38,8.38,0,0,0-2,.23,3.83,3.83,0,0,0-1.6.83,3.74,3.74,0,0,0-1,1.55,6.92,6.92,0,0,0-.36,2.43v8.39Z"/><path class="cls-1" d="M116.49,34.55a9.7,9.7,0,0,1-4.84-1.19,8.43,8.43,0,0,1-3.28-3.29,9.83,9.83,0,0,1-1.17-4.85,10.34,10.34,0,0,1,1.17-5,8.86,8.86,0,0,1,3.26-3.42,10,10,0,0,1,9.58-.07,8.38,8.38,0,0,1,3.13,3.18,9.34,9.34,0,0,1,1.12,4.59c0,.24,0,.51,0,.81s0,.61-.06.92H110.7v-3h9.86a3.91,3.91,0,0,0-1.24-2.73,4,4,0,0,0-2.79-1.05,4.47,4.47,0,0,0-2.29.6,4.29,4.29,0,0,0-1.64,1.73,6.06,6.06,0,0,0-.61,2.86v1a5.67,5.67,0,0,0,.56,2.58A4.12,4.12,0,0,0,114.12,30a4.48,4.48,0,0,0,2.34.61,4,4,0,0,0,2.21-.56A3.78,3.78,0,0,0,120,28.54h4.94a7.86,7.86,0,0,1-1.68,3.07,8.21,8.21,0,0,1-2.91,2.16A9.15,9.15,0,0,1,116.49,34.55Z"/><path class="cls-1" d="M138.16,34.55a9.73,9.73,0,0,1-4.84-1.19,8.41,8.41,0,0,1-3.27-3.29,9.83,9.83,0,0,1-1.17-4.85,10.34,10.34,0,0,1,1.17-5,8.83,8.83,0,0,1,3.25-3.42,10,10,0,0,1,9.58-.07A8.38,8.38,0,0,1,146,19.91a9.34,9.34,0,0,1,1.12,4.59c0,.24,0,.51,0,.81s0,.61-.05.92H132.37v-3h9.86A3.87,3.87,0,0,0,141,20.51a4,4,0,0,0-2.79-1.05,4.47,4.47,0,0,0-2.29.6,4.2,4.2,0,0,0-1.63,1.73,5.94,5.94,0,0,0-.62,2.86v1a5.67,5.67,0,0,0,.56,2.58A4.19,4.19,0,0,0,135.79,30a4.48,4.48,0,0,0,2.34.61,4,4,0,0,0,2.21-.56,3.81,3.81,0,0,0,1.32-1.49h4.93a7.73,7.73,0,0,1-1.68,3.07A8.21,8.21,0,0,1,142,33.77,9.15,9.15,0,0,1,138.16,34.55Z"/><path class="cls-1" d="M151.12,34.12V16h4.29l.32,3a6.46,6.46,0,0,1,2.39-2.5,7,7,0,0,1,3.66-.92,7.18,7.18,0,0,1,3.81.95A6.14,6.14,0,0,1,168,19.25a10.48,10.48,0,0,1,.83,4.39V34.12h-4.86v-10A5,5,0,0,0,163,20.8a3.44,3.44,0,0,0-2.84-1.16,4.09,4.09,0,0,0-2.14.58,3.91,3.91,0,0,0-1.5,1.64,5.73,5.73,0,0,0-.54,2.61v9.65Z"/><path class="cls-1" d="M184.5,34.55a12,12,0,0,1-6.25-1.6,10.91,10.91,0,0,1-4.16-4.5,14.78,14.78,0,0,1-1.47-6.75,14.75,14.75,0,0,1,1.52-6.86,11.4,11.4,0,0,1,4.36-4.66,13,13,0,0,1,6.79-1.7,12.24,12.24,0,0,1,7.39,2.13,9.61,9.61,0,0,1,3.8,5.9h-5.43a4.85,4.85,0,0,0-2-2.61,6.88,6.88,0,0,0-3.78-1A7.64,7.64,0,0,0,181.09,14a6.94,6.94,0,0,0-2.61,3,11,11,0,0,0-.9,4.65,11.13,11.13,0,0,0,.88,4.64,6.43,6.43,0,0,0,2.56,2.9,7.61,7.61,0,0,0,3.94,1,6.7,6.7,0,0,0,5-1.78,7.81,7.81,0,0,0,2-4.63h-6.19V20.18h11.08V34.12h-4.46l-.4-3.21a8.06,8.06,0,0,1-1.85,2,7.46,7.46,0,0,1-2.46,1.22A11.37,11.37,0,0,1,184.5,34.55Z"/><path class="cls-1" d="M210,34.55a9.67,9.67,0,0,1-4.84-1.19,8.37,8.37,0,0,1-3.28-3.29,9.83,9.83,0,0,1-1.17-4.85,10.34,10.34,0,0,1,1.17-5,8.86,8.86,0,0,1,3.26-3.42A9.21,9.21,0,0,1,210,15.54a9.11,9.11,0,0,1,4.71,1.19,8.41,8.41,0,0,1,3.14,3.18A9.34,9.34,0,0,1,219,24.5c0,.24,0,.51,0,.81s0,.61-.05.92H204.22v-3h9.87a3.93,3.93,0,0,0-4-3.78,4.41,4.41,0,0,0-2.28.6,4.22,4.22,0,0,0-1.64,1.73,5.94,5.94,0,0,0-.61,2.86v1a5.54,5.54,0,0,0,.56,2.58A4.17,4.17,0,0,0,207.64,30a4.48,4.48,0,0,0,2.34.61A4,4,0,0,0,212.2,30a3.78,3.78,0,0,0,1.31-1.49h4.93a7.84,7.84,0,0,1-1.67,3.07,8.34,8.34,0,0,1-2.92,2.16A9.14,9.14,0,0,1,210,34.55Z"/><path class="cls-1" d="M223,34.12V16h4.28l.33,3a6.39,6.39,0,0,1,2.39-2.5,7,7,0,0,1,3.65-.92,7.19,7.19,0,0,1,3.82.95,6.27,6.27,0,0,1,2.38,2.76,10.49,10.49,0,0,1,.82,4.39V34.12h-4.86v-10a5.07,5.07,0,0,0-.93-3.27A3.46,3.46,0,0,0,232,19.64a4.11,4.11,0,0,0-2.14.58,4,4,0,0,0-1.49,1.64,5.73,5.73,0,0,0-.54,2.61v9.65Z"/></g></g></svg>