<svg id="Layer_1" data-name="Layer 1" xmlns="http://www.w3.org/2000/svg" viewBox="0 0 1102.36 160.75"><defs><style>.cls-1{fill:#fff;}.cls-2{font-size:36px;fill:#231f20;}.cls-3{letter-spacing:-0.01em;}.cls-4{letter-spacing:0em;}</style></defs><path class="cls-1" d="M773.76,791.86h-348v-84h348ZM465.94,725.19c-8.77-.46-18.16,6.46-18.89,15.24-.85,10.34-.2,20.8-.2,31.24,10.56-.69,18.3-7.2,18.94-16.82S465.94,735.27,465.94,725.19Zm85.2,24.67,1.14,1.33c-1.84,2.1-3.3,4.91-5.61,6.15-5.14,2.76-11.06.08-13.07-5.26-2.52-6.68.22-14.86,5.92-15.77,3.06-.49,6.51,1,9.7,1.94a76.79,76.79,0,0,1,7.82,3.23c-3.69-10.18-13-13.56-21.62-9.41-8.1,3.91-11.09,15.83-6.07,24.29,4.49,7.57,13.82,8.95,20.92,4l7,3.15V746.15c-11.25-1.44-13.31-.89-13,3.71h6.82Zm136.08.21c-1.21,6.1-4,8.38-9.46,8.1-6.78-.34-10.71-6.15-8.65-14.3a13.17,13.17,0,0,1,6.21-7.51c3.14-1.6,7-1,10.07,2,1.44,1.43,4.07,1.67,7.21,2.83-3.26-9.67-12.19-13.08-20.7-9.45-8.26,3.52-11.69,14.52-7.33,23.47s15.44,10.13,21.86,5.28l6.5,3.07V746.28c-10.68-1.73-13.27-1-12.54,3.43ZM480,724.85a10.74,10.74,0,0,0-11,11,10.88,10.88,0,1,0,21.76.14A10.83,10.83,0,0,0,480,724.85Zm-11,35.61a10.88,10.88,0,1,0,21.75.82,10.88,10.88,0,1,0-21.75-.82Zm117.32-7.74H603c.15-7.53-3.21-11.57-9.49-12-6.93-.52-11.93,3-12.81,9-1,6.73,2.36,12.09,8.3,13.25,6.48,1.26,11.18-1.23,13-7.85-2.64,1-4.77,1.48-6.61,2.52C591.18,760,587.85,758.52,586.34,752.72Zm134.43.08c.8-6.8-2.41-11.25-8.33-12-7.05-1-12.55,2.48-13.64,8.52-1.24,6.85,2.24,12.5,8.38,13.63,6.55,1.21,11.3-1.39,12.69-7.67-2.33.78-4.4,1.11-6.08,2.11-4.68,2.75-8,1.35-9.31-4.54ZM629.87,755c-3,1.08-5.31,1.54-7.23,2.63-4.3,2.43-7.85.74-8.8-4.81h16.38c.59-6.58-2.51-11-8.08-12-6.85-1.22-12.56,2-14.11,8a11.31,11.31,0,0,0,7,13.76C621.25,764.67,626.63,762.3,629.87,755Zm6.2-14.78v22.44h5.59c0-2.16.08-4.12,0-6.07-.5-10.07,1.68-10.89,5.57-11.37s5.14,2.31,5.15,11c0,2.1,0,4.19,0,6.68l5.54-.31c0-4.36,0-8.19,0-12a19,19,0,0,0-.07-2c-.74-6.46-6.52-9.91-12.42-7.32a14.18,14.18,0,0,0-2.68,1.71Zm112.47,22.48c0-3.92.09-7.24,0-10.55-.14-4,0-8.28-4.31-10.47a9.47,9.47,0,0,0-10.91,1.16l-6.32-2.4v22.5l5.06-.38c0-3.95-.14-7.59,0-11.21s2-6.19,5.85-6.13,4.92,2.79,4.89,6.2c0,3.76,0,7.53,0,11.28Zm-184.68-22.9v22.83h4.62c2-6.14-3.61-15.86,8.43-16.59v-6.11l-6.84,3.49Z" transform="translate(-425.76 -707.86)"/><path d="M551.14,749.86h-6.82c-.35-4.6,1.71-5.15,13-3.71v17.39l-7-3.15c-7.1,4.92-16.43,3.54-20.92-4-5-8.46-2-20.38,6.07-24.29,8.6-4.15,17.93-.77,21.62,9.41a76.79,76.79,0,0,0-7.82-3.23c-3.19-.92-6.64-2.43-9.7-1.94-5.7.91-8.44,9.09-5.92,15.77,2,5.34,7.93,8,13.07,5.26,2.31-1.24,3.77-4.05,5.61-6.15Z" transform="translate(-425.76 -707.86)"/><path d="M687.22,750.07l-6.83-.36c-.73-4.45,1.86-5.16,12.54-3.43v17.33l-6.5-3.07c-6.42,4.85-17.43,3.81-21.86-5.28s-.93-20,7.33-23.47c8.51-3.63,17.44-.22,20.7,9.45-3.14-1.16-5.77-1.4-7.21-2.83-3.1-3-6.93-3.65-10.07-2a13.17,13.17,0,0,0-6.21,7.51c-2.06,8.15,1.87,14,8.65,14.3C683.27,758.45,686,756.17,687.22,750.07Z" transform="translate(-425.76 -707.86)"/><path d="M586.34,752.72c1.51,5.8,4.84,7.28,9.11,4.84,1.84-1,4-1.54,6.61-2.52-1.86,6.62-6.56,9.11-13,7.85-5.94-1.16-9.3-6.52-8.3-13.25.88-6,5.88-9.48,12.81-9,6.28.47,9.64,4.51,9.49,12Zm.41-3.81h10.82C593.82,743.52,589.64,743.61,586.75,748.91Z" transform="translate(-425.76 -707.86)"/><path d="M720.77,752.8H704.48c1.29,5.89,4.63,7.29,9.31,4.54,1.68-1,3.75-1.33,6.08-2.11-1.39,6.28-6.14,8.88-12.69,7.67-6.14-1.13-9.62-6.78-8.38-13.63,1.09-6,6.59-9.47,13.64-8.52C718.36,741.55,721.57,746,720.77,752.8ZM704.67,749h10.9C712,743.55,707.85,743.58,704.67,749Z" transform="translate(-425.76 -707.86)"/><path d="M629.87,755c-3.24,7.32-8.62,9.69-14.84,7.61a11.31,11.31,0,0,1-7-13.76c1.55-6,7.26-9.24,14.11-8,5.57,1,8.67,5.41,8.08,12H613.84c.95,5.55,4.5,7.24,8.8,4.81C624.56,756.52,626.83,756.06,629.87,755Zm-5.37-6,.45-1.51c-2-.83-4.06-2.3-6.09-2.29-1.77,0-3.54,1.68-5.32,2.62l.63,1.18Z" transform="translate(-425.76 -707.86)"/><path d="M636.07,740.2l6.67,2.76a14.18,14.18,0,0,1,2.68-1.71c5.9-2.59,11.68.86,12.42,7.32a19,19,0,0,1,.07,2c0,3.82,0,7.65,0,12l-5.54.31c0-2.49,0-4.58,0-6.68,0-8.7-1.2-11.5-5.15-11s-6.07,1.3-5.57,11.37c.09,1.95,0,3.91,0,6.07h-5.59Z" transform="translate(-425.76 -707.86)"/><path d="M748.54,762.68h-5.73c0-3.75,0-7.52,0-11.28,0-3.41-1.09-6.15-4.89-6.2s-5.67,2.53-5.85,6.13,0,7.26,0,11.21l-5.06.38v-22.5l6.32,2.4a9.47,9.47,0,0,1,10.91-1.16c4.26,2.19,4.17,6.47,4.31,10.47C748.63,755.44,748.54,758.76,748.54,762.68Z" transform="translate(-425.76 -707.86)"/><path d="M563.86,739.78l6.21,3.62,6.84-3.49V746c-12,.73-6.42,10.45-8.43,16.59h-4.62Z" transform="translate(-425.76 -707.86)"/><path class="cls-1" d="M586.75,748.91c2.89-5.3,7.07-5.39,10.82,0Z" transform="translate(-425.76 -707.86)"/><path class="cls-1" d="M704.67,749c3.18-5.37,7.33-5.4,10.9,0Z" transform="translate(-425.76 -707.86)"/><path class="cls-1" d="M624.5,749H614.17l-.63-1.18c1.78-.94,3.55-2.61,5.32-2.62,2,0,4.06,1.46,6.09,2.29Z" transform="translate(-425.76 -707.86)"/><path d="M481.24,818.58c0,10.09.5,19.92-.14,29.67s-8.39,16.13-18.94,16.82c0-10.44-.66-20.9.2-31.24C463.08,825,472.47,818.12,481.24,818.58Z" transform="translate(-425.76 -707.86)"/><path d="M495.29,818.25a10.83,10.83,0,0,1,10.79,11.13,10.88,10.88,0,1,1-21.76-.14A10.74,10.74,0,0,1,495.29,818.25Z" transform="translate(-425.76 -707.86)"/><path d="M484.32,853.86a10.89,10.89,0,1,1,21.76.81,10.89,10.89,0,1,1-21.76-.81Z" transform="translate(-425.76 -707.86)"/><path class="cls-1" d="M1503.27,822c0,10.09.5,19.91-.15,29.66s-8.38,16.14-18.94,16.83c0-10.44-.65-20.91.2-31.25C1485.11,828.41,1494.5,821.49,1503.27,822Z" transform="translate(-425.76 -707.86)"/><path class="cls-1" d="M1517.32,821.62a10.83,10.83,0,0,1,10.79,11.13,10.88,10.88,0,1,1-21.76-.14A10.74,10.74,0,0,1,1517.32,821.62Z" transform="translate(-425.76 -707.86)"/><path class="cls-1" d="M1506.35,857.22a10.88,10.88,0,1,1,21.75.82,10.88,10.88,0,1,1-21.75-.82Z" transform="translate(-425.76 -707.86)"/><text class="cls-2" transform="translate(99.15 144.5)">G<tspan class="cls-3" x="28.01" y="0">r</tspan><tspan class="cls-4" x="42.44" y="0">eenGen</tspan></text></svg>