<svg xmlns="http://www.w3.org/2000/svg" viewBox="0 0 44.18 46.99"><defs><style>.cls-1{fill:#fff;}</style></defs><g id="Layer_2" data-name="Layer 2"><g id="Layer_1-2" data-name="Layer 1"><path class="cls-1" d="M19.32.33c0,10.09.51,19.92-.14,29.66S10.79,46.13.24,46.82c0-10.44-.66-20.9.2-31.24C1.17,6.79,10.55-.13,19.32.33Z"/><path class="cls-1" d="M33.37,0A10.82,10.82,0,0,1,44.16,11.13,11.08,11.08,0,0,1,33,22,11.19,11.19,0,0,1,22.41,11,10.73,10.73,0,0,1,33.37,0Z"/><path class="cls-1" d="M22.41,35.6a10.88,10.88,0,1,1,21.75.82A11.22,11.22,0,0,1,33.16,47,11.31,11.31,0,0,1,22.41,35.6Z"/></g></g></svg>